<?xml version="1.0" encoding="UTF-8" standalone="no"?>
<svg width="61px" height="36px" viewBox="0 0 61 36" version="1.1" xmlns="http://www.w3.org/2000/svg" xmlns:xlink="http://www.w3.org/1999/xlink" xmlns:sketch="http://www.bohemiancoding.com/sketch/ns">
    <!-- Generator: Sketch 3.5.2 (25235) - http://www.bohemiancoding.com/sketch -->
    <title>airplane icon</title>
    <desc>Created with Sketch.</desc>
    <defs></defs>
    <g id="Page-1" stroke="none" stroke-width="1" fill="none" fill-rule="evenodd" sketch:type="MSPage">
        <g id="Large-Desktop" sketch:type="MSArtboardGroup" transform="translate(-119.000000, -1375.000000)">
            <g id="factoid-1" sketch:type="MSLayerGroup" transform="translate(99.000000, 1360.000000)">
                <g id="airplane-icon" transform="translate(20.000000, 15.000000)" sketch:type="MSShapeGroup">
                    <ellipse id="Oval-1" fill="#EADECE" cx="31.1428571" cy="17.1428571" rx="17.1428571" ry="17.1428571"></ellipse>
                    <path d="M28.1268244,17.3797628 C28.105349,18.1997384 28.1828471,18.3128449 28.6986298,18.213386 C28.631776,17.3212466 28.6293484,17.3178814 28.1268244,17.3797628 L28.1268244,17.3797628 Z M38.9646099,18.2539548 C38.8943947,17.3160119 38.8682508,17.2829212 38.2594704,17.407058 C38.511386,17.68487 38.1978454,18.3390183 38.9646099,18.2539548 L38.9646099,18.2539548 Z M33.1968822,17.3595719 C33.3670046,18.2934018 33.3670046,18.2934018 33.8865222,18.2223597 C33.822843,17.9396869 33.759724,17.6594444 33.69231,17.3595719 L33.1968822,17.3595719 Z M40.1532257,18.2505896 C40.0682579,17.3732195 39.9804889,17.1653278 39.4962657,17.4349139 C39.7141942,17.6972089 39.3761903,18.3526659 40.1532257,18.2505896 L40.1532257,18.2505896 Z M37.6307085,18.2208641 C37.5029767,17.2982514 37.4953202,17.2887168 37.0004527,17.4001407 C37.0361205,18.1875865 37.1132451,18.292654 37.6307085,18.2208641 L37.6307085,18.2208641 Z M36.397648,18.2249771 C36.2409711,17.1851448 36.1942855,17.2666563 35.7449831,17.4145361 C35.8682332,18.2913453 35.8682332,18.2913453 36.397648,18.2249771 L36.397648,18.2249771 Z M34.478309,17.3618154 C34.5244344,18.2167511 34.6887678,18.4788591 35.1429254,18.1341179 C34.9212621,17.8841619 35.2097792,17.2154312 34.478309,17.3618154 L34.478309,17.3618154 Z M32.6861416,18.2126382 C32.6146192,17.9200568 32.5434704,17.6304667 32.4700806,17.3309681 C32.3035063,17.3431201 32.1845514,17.3519068 32.0685843,17.3603197 C32.0312358,18.1632826 32.1333839,18.3083581 32.6861416,18.2126382 L32.6861416,18.2126382 Z M31.2758625,18.2522722 C31.1860394,17.4524875 31.1423417,17.1546715 30.5798734,17.4534223 C30.8635352,17.6787006 30.4885563,18.3504225 31.2758625,18.2522722 L31.2758625,18.2522722 Z M27.5458686,18.2505896 C27.4750932,17.355085 27.3733186,17.172619 26.8642586,17.4476267 C27.1482939,17.6682312 26.7660321,18.3511703 27.5458686,18.2505896 L27.5458686,18.2505896 Z M29.4112391,17.3526547 C29.4947129,18.2885411 29.5257122,18.3274273 30.1208604,18.1900169 C29.8622221,17.919496 30.1850998,17.2565608 29.4112391,17.3526547 L29.4112391,17.3526547 Z M19.0492733,26.0173623 C18.3973554,25.9003298 17.8283511,25.8253617 17.274473,25.6885121 C16.9497278,25.6081224 16.6023869,25.4852943 16.3525254,25.2766548 C16.1566326,25.113071 16.0077989,24.7894555 16.005558,24.5355734 C16.0042508,24.3847024 16.307147,24.1386723 16.5080819,24.0945514 C17.3390859,23.9128332 18.17868,23.7195238 19.0238764,23.6664292 C20.1224823,23.5972566 21.2291181,23.6613815 22.3322058,23.6570815 C22.4758108,23.6567076 22.6427585,23.6269821 22.7590991,23.5501445 C24.2887066,22.5383552 25.8114046,21.5157226 27.3348496,20.4947726 C27.3699572,20.4712166 27.3949807,20.4328912 27.4394254,20.385966 C25.1942208,19.7849123 22.96657,19.1896542 20.7394794,18.5921526 C19.5120212,18.2629285 18.283069,17.9381913 17.0608396,17.5900849 C16.8528085,17.5308208 16.6307717,17.4014494 16.4914618,17.2389873 C15.0330032,15.5386503 13.5844419,13.8299005 12.1495129,12.1097465 C11.9327049,11.849882 11.7793893,11.8467038 11.496101,12.0037442 C9.07946679,13.3436359 6.6303394,14.626507 4.23854195,16.0093978 C3.04376368,16.7001889 1.83367253,16.7302883 0.553739696,16.4999623 C0.404158984,16.4730411 0.2551385,16.4436895 4.82972137e-05,16.3954556 C3.24133721,13.9405766 6.41819997,11.5346793 9.62494152,9.10597374 C8.56685873,7.67615769 7.35956872,6.36000903 6.46021702,4.7279099 C7.57208164,4.50767935 8.57918373,4.24688 9.62456803,4.46898009 C10.2096322,4.59330379 10.4025371,4.89785012 10.1859159,5.44861347 C10.0032817,5.91300456 10.1558503,6.16520407 10.5276546,6.40805593 C10.9941372,6.71278922 11.4383976,7.05154793 11.8890071,7.37329394 C12.6363505,6.65819896 13.4100245,6.0176982 14.0591413,5.26913865 C14.7233842,4.50319248 15.5323526,4.42691568 16.4233008,4.50244466 C17.6501988,4.6067644 17.7002458,4.68902369 17.0548638,5.71969523 C16.3205925,6.89226403 15.5549484,8.04520278 14.7741782,9.25086226 C15.6785719,9.85191595 16.5902486,10.4654955 17.5135033,11.0613145 C17.6169587,11.1280567 17.7848401,11.107118 17.9226561,11.1065571 C24.3479039,11.0815054 30.7731518,11.0549581 37.198213,11.0218674 C37.3392035,11.0211196 37.5393914,10.9884028 37.6109138,10.8939916 C38.3044753,9.9792309 38.9765614,9.04801833 39.6695627,8.10110171 C39.1211001,7.90180988 38.6107329,7.73373919 38.1166124,7.5267823 C37.9631101,7.46228353 37.8534923,7.29253027 37.7237063,7.17101086 C37.8656305,7.04780888 37.9963502,6.83543034 38.1511597,6.81617419 C38.8708652,6.72718459 39.5965464,6.66642489 40.3212939,6.64885131 C40.6258709,6.6413732 40.8191493,6.5908959 41.0096266,6.32430102 C42.2126216,4.64153765 43.4344775,2.97223489 44.6677247,1.31153197 C44.7745414,1.16757821 45.006849,1.04418927 45.1846278,1.03895459 C45.7103079,1.0238114 46.2432708,1.03371991 46.7633486,1.10607069 C47.4283385,1.19879935 47.546173,1.39117392 47.2951911,2.01597063 C46.7921069,3.26818139 46.2731496,4.51553137 45.7093741,5.74119481 C44.97641,7.33459468 44.1933988,8.90481238 43.4327968,10.4854994 C43.3609009,10.6350618 43.2959146,10.7878023 43.1995555,11.0016765 C46.0938769,11.0566407 48.870924,11.4664415 51.6003518,12.3554027 C51.5297632,12.9788907 51.1954942,13.4294473 50.748246,13.800175 C49.9206034,14.4861053 48.9269468,14.7779388 47.8901526,14.9486269 C47.4796927,15.0161169 47.0656846,15.0622943 46.599202,15.1256713 L46.599202,16.9916485 C48.6389899,16.807126 50.6828861,16.5797912 52.4489096,15.3477714 C53.2545166,14.7856039 53.6737534,14.1181819 53.8550803,13.108823 C54.9497646,13.680899 56.0522921,14.1772591 57.0687314,14.8115904 C57.9858236,15.3840403 58.8493207,16.0615577 59.6614637,16.7779613 C60.4097407,17.4380921 60.3137551,18.0183941 59.4678118,18.5829919 C58.5049676,19.2257361 57.3979583,19.4854137 56.2879611,19.7149919 C53.678422,20.254912 51.0315343,20.4856119 48.3747493,20.560954 C44.8934963,20.6596651 41.4103759,20.6949992 37.9280025,20.7578154 C37.3528357,20.7682848 36.7778557,20.7881018 36.2026889,20.7899713 C35.6807437,20.7916539 35.2170622,20.930373 34.750953,21.1863115 C26.5591214,25.6858948 18.3551516,30.1634176 10.1657477,34.6673007 C9.13754369,35.2326464 8.12278516,35.0202679 7.08468381,34.8349975 C6.82884664,34.789381 6.57973219,34.7069348 6.20960864,34.610841 C10.5117815,31.7315788 14.7379501,28.9027939 19.0492733,26.0173623 L19.0492733,26.0173623 Z" id="Fill-4" fill="#9E2F50"></path>
                </g>
            </g>
        </g>
    </g>
</svg>