<?xml version="1.0" encoding="UTF-8" standalone="no"?>
<svg width="56px" height="38px" viewBox="0 0 56 38" version="1.1" xmlns="http://www.w3.org/2000/svg" xmlns:xlink="http://www.w3.org/1999/xlink">
    <!-- Generator: Sketch 3.6.1 (26313) - http://www.bohemiancoding.com/sketch -->
    <title>apple icon</title>
    <desc>Created with Sketch.</desc>
    <defs></defs>
    <g id="Page-1" stroke="none" stroke-width="1" fill="none" fill-rule="evenodd">
        <g id="Large-Desktop-Copy-3" transform="translate(-215.000000, -955.000000)">
            <g id="fact-4" transform="translate(180.000000, 867.000000)">
                <g id="apple-icon" transform="translate(35.000000, 88.000000)">
                    <path d="M36.1670976,0.700244159 C36.1670976,2.45070223 35.525954,4.08509273 34.247903,5.59769926 C32.7057197,7.39612531 30.8403482,8.43526562 28.8174941,8.27123007 C28.7918285,8.06121487 28.7768776,7.84026397 28.7768776,7.60812882 C28.7768776,5.92751012 29.5102183,4.12933262 30.8126891,2.65897766 C31.4630524,1.91435571 32.289836,1.29549435 33.2927909,0.801647949 C34.2935032,0.315009173 35.2401431,0.046090298 36.1302188,0.000110638298 C36.1563828,0.233985556 36.1670976,0.468109013 36.1670976,0.700244159 L36.1670976,0.700244159 Z M42.938102,27.2757419 C42.4073458,28.4985523 41.7791597,29.624184 41.0515502,30.6590992 C40.0595593,32.0698049 39.2472281,33.0463134 38.6212846,33.5886249 C37.6507233,34.478642 36.6111388,34.9344619 35.4977966,34.9605585 C34.6984228,34.9605585 33.7345894,34.7336427 32.6127751,34.273349 C31.4869738,33.8152922 30.4523729,33.5886249 29.5064805,33.5886249 C28.5144896,33.5886249 27.4504853,33.8152922 26.3124742,34.273349 C25.1727188,34.7336427 24.2547347,34.9734825 23.5525417,34.9970937 C22.4850489,35.0425763 21.4207954,34.5738323 20.3585354,33.5886249 C19.6805129,32.9988425 18.8325489,31.9877871 17.8168857,30.55521 C16.7267174,29.0257028 15.8306613,27.2521307 15.1287175,25.2297713 C14.3769374,23.0456132 13.9999261,20.9305488 13.9999261,18.8828385 C13.9999261,16.5373787 14.508256,14.5142737 15.5259125,12.8189912 C16.3257846,11.4572477 17.3900381,10.3830634 18.7219124,9.59445012 C20.0537866,8.80608536 21.493058,8.40419828 23.0427167,8.37835025 C23.8906808,8.37835025 25.0027771,8.64006151 26.3847368,9.15428808 C27.7627096,9.67025442 28.6475525,9.93171713 29.0355278,9.93171713 C29.3255749,9.93171713 30.3083461,9.62576599 31.9748708,9.01610056 C33.5504444,8.45042648 34.8805744,8.21630302 35.9699952,8.30851088 C38.9222956,8.54611388 41.1402587,9.70678961 42.6154122,11.7982428 C39.9748376,13.3938612 38.6688782,15.6289698 38.6947931,18.4958637 C38.7187145,20.7292325 39.5310456,22.5875563 41.1273013,24.0631306 C41.8506747,24.7481033 42.6587698,25.2774907 43.5575668,25.6532812 C43.362707,26.2172155 43.1568833,26.7572901 42.938102,27.2757419 L42.938102,27.2757419 Z" id="Fill-1" fill="#E8DDCE"></path>
                    <path d="M26.0051815,21.0968298 C25.985326,21.8541013 26.0569785,21.9585585 26.5338558,21.8667052 C26.4720448,21.0427883 26.4698003,21.0396804 26.0051815,21.0968298 L26.0051815,21.0968298 Z M36.025476,21.9041717 C35.9605572,21.0379539 35.9363853,21.0073937 35.373525,21.1220376 C35.6064386,21.3786052 35.3165483,21.9827304 36.025476,21.9041717 L36.025476,21.9041717 Z M30.6928064,21.0781829 C30.8500965,21.9406022 30.8500965,21.9406022 31.330427,21.8749928 C31.2715511,21.6139361 31.2131932,21.3551239 31.1508642,21.0781829 L30.6928064,21.0781829 Z M37.1244349,21.9010639 C37.0458761,21.0907868 36.9647276,20.8987927 36.5170292,21.1477634 C36.7185194,21.3900006 36.406011,21.9953344 37.1244349,21.9010639 L37.1244349,21.9010639 Z M34.7921904,21.8736115 C34.6740934,21.0215515 34.6670144,21.012746 34.2094746,21.1156493 C34.242452,21.8428786 34.3137592,21.9399116 34.7921904,21.8736115 L34.7921904,21.8736115 Z M33.6521394,21.8774099 C33.5072805,20.9170943 33.4641164,20.9923726 33.0487048,21.1289439 C33.1626581,21.938703 33.1626581,21.938703 33.6521394,21.8774099 L33.6521394,21.8774099 Z M31.8775755,21.0802547 C31.9202217,21.8698131 32.0721594,22.1118775 32.4920601,21.7934989 C32.2871168,21.5626571 32.5538712,20.9450647 31.8775755,21.0802547 L31.8775755,21.0802547 Z M30.2205908,21.8660146 C30.1544633,21.5958071 30.0886812,21.3283622 30.0208272,21.0517664 C29.8668175,21.0629891 29.7568353,21.0711039 29.6496156,21.0788735 C29.6150843,21.8204333 29.7095274,21.9544148 30.2205908,21.8660146 L30.2205908,21.8660146 Z M28.9166886,21.9026178 C28.8336409,21.1639932 28.7932392,20.8889513 28.2731978,21.1648564 C28.535463,21.3729076 28.1887687,21.9932625 28.9166886,21.9026178 L28.9166886,21.9026178 Z M25.4680471,21.9010639 C25.4026103,21.0740391 25.3085124,20.9055263 24.8378507,21.1595041 C25.1004613,21.3632388 24.7470334,21.9939531 25.4680471,21.9010639 L25.4680471,21.9010639 Z M27.1927132,21.0717946 C27.2698906,21.9361132 27.2985516,21.9720257 27.848808,21.8451232 C27.6096787,21.5952892 27.9082018,20.9830491 27.1927132,21.0717946 L27.1927132,21.0717946 Z M17.6123475,29.0739069 C17.0096036,28.9658239 16.4835191,28.8965886 15.9714198,28.770204 C15.6711701,28.6959617 15.350029,28.5825264 15.1190145,28.3898417 C14.9378978,28.2387672 14.8002906,27.9398988 14.7982187,27.7054312 C14.7970101,27.5660974 15.077059,27.3388814 15.2628374,27.2981344 C16.031159,27.1303123 16.8074228,26.9517854 17.5888662,26.902751 C18.6046046,26.838868 19.6277672,26.8980892 20.6476494,26.8941181 C20.7804222,26.8937728 20.9347772,26.8663204 21.0423422,26.7953586 C22.4565718,25.8609415 23.8644132,24.9165102 25.2729452,23.9736329 C25.3054046,23.9518782 25.3285406,23.9164836 25.3696329,23.8731468 C23.2937834,23.318056 21.2341636,22.7683176 19.1750618,22.2165074 C18.0401904,21.9124592 16.9039378,21.6125548 15.7739008,21.2910684 C15.5815614,21.2363362 15.3762728,21.1168579 15.247471,20.9668194 C13.8990235,19.3965082 12.5597268,17.8184275 11.233034,16.2298148 C11.0325797,15.9898222 10.8908287,15.986887 10.6289088,16.1319185 C8.39456059,17.3693479 6.13017017,18.554117 3.91878531,19.8312574 C2.81412882,20.4692233 1.69531449,20.497021 0.511926618,20.2843081 C0.373628735,20.2594456 0.235848823,20.2323385 0,20.1877931 C2.99679943,17.9206402 5.93403235,15.6987233 8.89889032,13.4557423 C7.92061841,12.1352651 6.80439393,10.9197631 5.97288007,9.41247161 C7.00087706,9.20908221 7.93201374,8.96822635 8.89854501,9.17334231 C9.43947792,9.28815891 9.61783212,9.5694164 9.41755054,10.0780625 C9.24869245,10.5069414 9.38975284,10.739855 9.733512,10.9641359 C10.164808,11.245566 10.5755579,11.5584196 10.9921781,11.8555615 C11.6831496,11.1951503 12.3984656,10.603629 12.9986197,9.91231227 C13.612759,9.20493846 14.3607071,9.13449459 15.1844514,9.20424783 C16.3188048,9.30059018 16.3650767,9.37655905 15.7683758,10.3284145 C15.0894903,11.4113163 14.3815985,12.4760891 13.6597215,13.5895511 C14.4958971,14.1446418 15.3388063,14.7113006 16.1924202,15.2615569 C16.2880719,15.3231953 16.4432901,15.3038578 16.5707107,15.3033398 C22.511304,15.2802039 28.4518973,15.2556866 34.3923179,15.2251264 C34.5226736,15.2244358 34.7077614,15.1942209 34.7738888,15.1070294 C35.4151352,14.2622209 36.0365261,13.4022188 36.6772545,12.5277134 C36.1701622,12.3436616 35.6982919,12.1884433 35.2414427,11.9973126 C35.0995191,11.937746 34.9981697,11.7809739 34.8781734,11.6687472 C35.0093924,11.5549665 35.1302519,11.3588287 35.2733842,11.3410451 C35.9388025,11.2588606 36.6097457,11.2027472 37.2798257,11.1865175 C37.5614286,11.1796112 37.7401281,11.132994 37.9162377,10.8867857 C39.0284911,9.33270429 40.1581828,7.79105412 41.2984065,6.25734614 C41.3971661,6.12440061 41.6119508,6.0104473 41.7763198,6.00561292 C42.262348,5.99162774 42.7551097,6.00077854 43.2359581,6.06759661 C43.850788,6.15323425 43.9597343,6.33089782 43.7276839,6.90791596 C43.2625472,8.06436941 42.7827347,9.21633379 42.2614847,10.34827 C41.5838078,11.8198216 40.8598589,13.2699638 40.1566289,14.7297748 C40.0901561,14.8679001 40.0300716,15.0089604 39.9409809,15.2064795 C42.6169845,15.2572405 45.1845598,15.6357037 47.7081076,16.4566855 C47.6428435,17.032495 47.3337883,17.4485972 46.9202759,17.7909751 C46.1550621,18.424452 45.2363567,18.6939688 44.2777676,18.8516042 C43.8982686,18.9139332 43.5154891,18.9565794 43.084193,19.01511 L43.084193,20.7383948 C44.9701203,20.5679828 46.8598461,20.3580325 48.4926589,19.2202259 C49.2374992,18.7010477 49.6251131,18.0846639 49.7927626,17.1524913 C50.8048752,17.6808203 51.8242394,18.1392234 52.7640089,18.725047 C53.6119251,19.2537213 54.4102889,19.8794286 55.1611721,20.5410484 C55.8530069,21.1506986 55.7642614,21.6866245 54.9821273,22.2080472 C54.0919102,22.8016404 53.0684023,23.0414603 52.0421319,23.2534825 C49.6294295,23.7521146 47.1821958,23.9651727 44.7258114,24.0347533 C41.5071483,24.125916 38.2867586,24.158548 35.0670596,24.2165606 C34.5352775,24.2262294 34.0036681,24.244531 33.4718859,24.2462576 C32.9893109,24.2478115 32.5606048,24.3759226 32.1296541,24.6122894 C24.55573,28.7677868 16.9705832,32.9029108 9.39890364,37.0623793 C8.44825677,37.5844926 7.51004118,37.3883548 6.55024351,37.2172522 C6.31370406,37.175124 6.08338025,37.0989825 5.741175,37.010237 C9.71883619,34.3511538 13.6262262,31.7386878 17.6123475,29.0739069 L17.6123475,29.0739069 Z" id="Fill-1" fill="#9E2F50" style="mix-blend-mode: multiply;"></path>
                </g>
            </g>
        </g>
    </g>
</svg>