<?xml version="1.0" encoding="UTF-8" standalone="no"?>
<svg width="37px" height="41px" viewBox="0 0 37 41" version="1.1" xmlns="http://www.w3.org/2000/svg" xmlns:xlink="http://www.w3.org/1999/xlink">
    <!-- Generator: Sketch 3.6 (26304) - http://www.bohemiancoding.com/sketch -->
    <title>boomerang</title>
    <desc>Created with Sketch.</desc>
    <defs></defs>
    <g id="Page-1" stroke="none" stroke-width="1" fill="none" fill-rule="evenodd">
        <g id="Large-Desktop-Copy-3" transform="translate(-214.000000, -721.000000)">
            <g id="fact-3" transform="translate(180.000000, 701.000000)">
                <g id="boomerang" transform="translate(34.000000, 20.000000)">
                    <ellipse id="Oval-1-Copy-2" fill="#EADECE" cx="19.5" cy="17.5" rx="17.5" ry="17.5"></ellipse>
                    <path d="M7.36774311,3.40211724 C7.3115094,3.38436552 7.21836813,3.35222414 7.12375055,3.32546207 C5.77360472,2.94353103 4.42681413,2.54842069 3.07062888,2.18881379 C2.63485119,2.07315862 2.17075534,1.98076897 1.72598563,2.00349655 C1.00192631,2.04047931 0.424289367,2.39363103 0.140839268,3.10235517 C-0.148918669,3.82681379 0.0148167097,4.48268621 0.574469604,4.99788966 C0.923145435,5.3189 1.32765235,5.59687586 1.74638545,5.82011724 C2.68128762,6.31824138 3.64048168,6.77064138 4.5904153,7.24052414 C5.48773886,7.68445172 6.38573346,8.1269 7.25769146,8.55724483 C7.29406219,6.85065862 7.33029871,5.15577241 7.36774311,3.40211724 M19.936044,31.5805586 C19.9227572,31.6443034 19.8985996,31.7280862 19.8885339,31.8134828 C19.6674911,33.6788931 19.4290011,35.5425552 19.2385581,37.4110586 C19.1699771,38.0836069 19.1215276,38.7842621 19.2329213,39.4434966 C19.4567825,40.7686897 20.8904065,41.2853724 21.974281,40.4920586 C22.4156955,40.1688966 22.6791484,39.7240276 22.8387233,39.209631 C23.2218909,37.9736 23.6047901,36.737569 23.988092,35.5016724 C24.1417616,35.0062379 24.2961024,34.5109379 24.428567,34.0846276 C22.9028753,33.2342931 21.4261701,32.4111241 19.936044,31.5805586 M7.881228,3.54789655 C8.05476066,5.34162759 8.2266828,7.05184483 8.37927881,8.76381034 C8.40571805,9.06061379 8.53952475,9.20316552 8.79398563,9.32850345 C12.1965947,11.0034862 15.596117,12.6849241 18.9921498,14.3733552 C20.7611629,15.2528724 21.6753968,17.0128483 21.413286,18.9405241 C21.245927,20.1707724 21.1098387,21.4053241 20.963819,22.6383966 C20.6744637,25.0822172 20.3898057,27.5265759 20.0970952,29.9699931 C20.071998,30.1797862 20.1137371,30.3265069 20.2916987,30.4568207 C20.7788785,30.8133345 21.2420349,31.2033345 21.7364621,31.5489552 C22.677001,32.2064414 23.6325715,32.8422759 24.6027707,33.5012414 C24.656857,33.3363655 24.6894699,33.2415552 24.7191302,33.1458034 C26.3685628,27.8389793 28.0138349,22.5308103 29.6694412,17.225869 C30.0771691,15.9195034 30.4650341,14.6126 30.3474667,13.2211069 C30.2731148,12.3411862 30.0748876,11.5029552 29.479535,10.8032414 C28.4995385,9.65166552 27.2187789,8.99902069 25.8013942,8.59597586 C20.250228,7.01728276 14.6947671,5.45351724 9.14064832,3.88544828 C8.76016488,3.77799655 8.37686304,3.68036207 7.881228,3.54789655" id="Fill-1" fill="#FEFEFE" style="mix-blend-mode: multiply;"></path>
                    <path d="M28.986007,14.0449079 C28.9672177,13.1726528 28.734633,12.3828355 28.2118876,11.6876941 C27.5629855,10.8245838 26.6860618,10.292301 25.6700972,9.98151138 C23.828611,9.4181631 21.983367,8.86732172 20.1395992,8.31150448 C19.4682842,8.10910793 18.8015323,7.88788379 18.1218962,7.71883897 C17.9525241,7.67674586 17.6990026,7.7544769 17.5641223,7.87053552 C17.4720547,7.94961138 17.4512522,8.23135276 17.5213095,8.34929414 C17.6042509,8.48915621 17.8077122,8.58813552 17.9785607,8.64018034 C20.4383492,9.38924931 22.9044456,10.1181459 25.3627578,10.8725941 C26.4090538,11.1936045 27.29913,11.7502286 27.7708758,12.7967734 C28.0915019,13.5079183 28.0647942,14.2506666 27.8875037,14.9974493 C27.8038913,15.3500631 27.9385032,15.5905183 28.2279928,15.6510355 C28.5263401,15.71357 28.7367803,15.5616045 28.8057639,15.2002493 C28.878908,14.8176459 28.9269549,14.430201 28.986007,14.0449079 M7.88132194,3.54785621 C8.37695699,3.68045621 8.76012462,3.77795621 9.14060806,3.88540793 C14.6948611,5.4534769 20.2501877,7.01724241 25.8014881,8.59593552 C27.2188728,8.99898034 28.4994982,9.65162517 29.4794947,10.803201 C30.0749815,11.5029148 30.2730745,12.3411459 30.3474265,13.221201 C30.465128,14.6125597 30.0772631,15.9194631 29.6695351,17.2258286 C28.0139289,22.53077 26.3685225,27.838939 24.7192241,33.1458976 C24.6894296,33.2415148 24.656951,33.3363252 24.6028646,33.501201 C23.6326654,32.8422355 22.6769608,32.206401 21.7364218,31.5489148 C21.2419947,31.2034286 20.7788383,30.8132941 20.2917926,30.4567803 C20.1138311,30.326601 20.0719577,30.1797459 20.0970549,29.9699528 C20.3897654,27.5265355 20.6744234,25.0821769 20.9637787,22.6384907 C21.1097985,21.4052838 21.2458867,20.1707321 21.4132458,18.9406183 C21.6754908,17.0129424 20.7611226,15.2528321 18.9921095,14.3733148 C15.5962109,12.6848838 12.1966886,11.0035803 8.79407958,9.3284631 C8.53948448,9.20325966 8.40581199,9.06070793 8.37937276,8.76390448 C8.22677675,7.05193897 8.05472039,5.34158724 7.88132194,3.54785621" id="Fill-3" fill="#9E2F50" style="mix-blend-mode: multiply;"></path>
                    <path d="M19.9360305,31.5805317 C21.4261567,32.4110972 22.9028619,33.2342662 24.4285536,34.0847352 C24.2960889,34.510911 24.1417482,35.006211 23.9880785,35.5016455 C23.6047767,36.7376766 23.2218775,37.9737076 22.8387099,39.2096041 C22.679135,39.7240007 22.4156821,40.1688697 21.9742676,40.4920317 C20.8903931,41.2853455 19.456769,40.7687972 19.2329079,39.4434697 C19.1215141,38.7842352 19.1699637,38.08358 19.2385447,37.4110317 C19.4289877,35.5425283 19.6674777,33.6788662 19.8885204,31.8134559 C19.8985861,31.7280593 19.9227438,31.6442766 19.9360305,31.5805317" id="Fill-5" fill="#9E2F50" style="mix-blend-mode: multiply;"></path>
                    <path d="M7.36774311,3.40211724 C7.33029871,5.15577241 7.29406219,6.85065862 7.25769146,8.55724483 C6.38573346,8.1269 5.48773886,7.68445172 4.5904153,7.24052414 C3.64048168,6.77064138 2.68128762,6.31824138 1.74638545,5.82011724 C1.32765235,5.59687586 0.923145435,5.3189 0.574469604,4.99788966 C0.0148167097,4.48268621 -0.148918669,3.82681379 0.140839268,3.10235517 C0.424289367,2.39363103 1.00192631,2.04047931 1.72598563,2.00349655 C2.17075534,1.98076897 2.63485119,2.07315862 3.07062888,2.18881379 C4.42681413,2.54842069 5.77360472,2.94353103 7.12375055,3.32546207 C7.21836813,3.35222414 7.3115094,3.38436552 7.36774311,3.40211724" id="Fill-7" fill="#9E2F50" style="mix-blend-mode: multiply;"></path>
                    <path d="M28.986007,14.0449079 C28.9269549,14.430201 28.878908,14.8176459 28.8057639,15.2002493 C28.7367803,15.5616045 28.5263401,15.71357 28.2279928,15.6510355 C27.9385032,15.5905183 27.8038913,15.3500631 27.8875037,14.9974493 C28.0647942,14.2506666 28.0915019,13.5079183 27.7708758,12.7967734 C27.29913,11.7502286 26.4090538,11.1936045 25.3627578,10.8725941 C22.9044456,10.1181459 20.4383492,9.38924931 17.9785607,8.64018034 C17.8077122,8.58813552 17.6042509,8.48915621 17.5213095,8.34929414 C17.4512522,8.23135276 17.4720547,7.94961138 17.5641223,7.87053552 C17.6990026,7.7544769 17.9525241,7.67674586 18.1218962,7.71883897 C18.8015323,7.88788379 19.4682842,8.10910793 20.1395992,8.31150448 C21.983367,8.86732172 23.828611,9.4181631 25.6700972,9.98151138 C26.6860618,10.292301 27.5629855,10.8245838 28.2118876,11.6876941 C28.734633,12.3828355 28.9672177,13.1726528 28.986007,14.0449079" id="Fill-9" fill="#FEFEFE" style="mix-blend-mode: multiply;"></path>
                </g>
            </g>
        </g>
    </g>
</svg>