<?xml version="1.0" encoding="UTF-8" standalone="no"?>
<svg width="37px" height="38px" viewBox="0 0 37 38" version="1.1" xmlns="http://www.w3.org/2000/svg" xmlns:xlink="http://www.w3.org/1999/xlink">
    <!-- Generator: Sketch 3.6 (26304) - http://www.bohemiancoding.com/sketch -->
    <title>commercial flights</title>
    <desc>Created with Sketch.</desc>
    <defs></defs>
    <g id="Page-1" stroke="none" stroke-width="1" fill="none" fill-rule="evenodd">
        <g id="Large-Desktop-Copy-3" transform="translate(-216.000000, -1143.000000)">
            <g id="fact-6" transform="translate(180.000000, 1123.000000)">
                <g id="airplane-icon" transform="translate(36.000000, 20.000000)">
                    <g id="commercial-flights">
                        <ellipse id="Oval-1-Copy-4" fill="#EADECE" cx="19.5" cy="17.5" rx="17.5" ry="17.5"></ellipse>
                        <g id="plane" style="mix-blend-mode: multiply;" transform="translate(0.000000, 2.000000)">
                            <path d="M30.0768609,16.8154365 C30.1033922,16.7070038 30.0755632,16.5879009 29.9907783,16.5032599 L29.173354,15.6856889 C29.0443021,15.5567809 28.8352238,15.5567809 28.7063161,15.6858331 L28.6978088,15.6941963 L27.1052084,11.1306506 C29.9515581,8.17066871 32.1036234,5.87325098 32.1036234,5.87325098 L32.0994418,5.86921359 C34.6076613,3.18983016 34.0435823,0.71274868 33.6656551,0.334387786 C33.2871511,-0.0435405312 30.8100771,-0.607765447 28.1308459,1.90060579 L28.1268086,1.89642421 C28.1268086,1.89642421 25.8292536,4.04835179 22.8692806,6.89471004 L18.3058928,5.30210483 L18.3142559,5.29374167 C18.4433078,5.16468946 18.4433078,4.95561046 18.3142559,4.82655825 L17.4968316,4.00913145 C17.367924,3.88022344 17.1587014,3.88022344 17.0297938,4.00913145 L16.4014051,4.63752199 L12.1056377,3.13849766 L12.1275549,3.11643622 C12.2566067,2.9875282 12.2566067,2.77830501 12.127699,2.6492528 L11.3101305,1.831826 C11.1812229,1.70291799 10.9720003,1.70291799 10.8430927,1.831826 L10.20115,2.47377063 L4.40549756,0.451327833 C3.98575471,0.225378321 3.44445802,0.216438391 3.07042402,0.40215822 C2.71470241,0.562788569 2.20440699,0.913320327 1.78697121,1.33075737 C1.13060931,1.98712123 0.722834395,2.64391768 0.876398854,2.7974826 C0.950946108,2.87203008 1.14401917,2.81406473 1.39822963,2.65992304 L6.96793324,5.74405458 L7.31500333,5.93626306 L7.02171685,6.31347042 L7.30894727,6.60099009 L7.31356141,6.60560425 L7.60122441,6.89297973 L8.20091886,6.42666146 L12.711244,8.92392988 L12.488179,9.21101698 L12.7754094,9.49853665 L12.7801678,9.50315081 L13.0676866,9.79052629 L13.5703398,9.39962065 L14.0409824,9.66032054 L17.3069308,12.4262194 C13.7925396,16.5495457 13.9433645,16.3034092 10.557881,20.250244 C10.355868,20.4857102 7.95045739,23.9248435 7.59949411,24.4153861 L1.65892873,22.0265503 C1.43182636,21.9224434 1.10133834,21.9822833 0.924703167,22.1587748 L0,23.0834807 L5.86010626,27.4788981 L5.21527972,28.7848488 L6.52108229,28.1398761 L10.9163422,34 L11.8410454,33.075294 C12.0176806,32.8986583 12.077376,32.5681693 11.9734136,32.3410663 L9.5845851,26.400483 C10.0751262,26.0495187 13.5143933,23.6441008 13.7497146,23.4420873 C17.6966817,20.0567378 17.4504018,20.207563 21.5738598,16.6931613 L22.5622959,17.8602547 C24.0618925,17.0190362 25.8082015,16.5332519 27.7092286,16.5390196 C28.5291042,16.5414709 29.3201414,16.6390892 30.0768609,16.8154365" id="Fill-1" fill="#9E2F50" style="mix-blend-mode: multiply;"></path>
                            <g id="Group-2" style="mix-blend-mode: multiply;" transform="translate(19.000000, 18.000000)">
                                <path d="M8.55389809,17.3866088 C3.92465087,17.3864653 0.195558817,13.6124892 0.191566366,8.93593147 C0.187716502,4.4529992 3.77906899,0.51594741 8.6042315,0.530576892 C13.4262571,0.545349801 17.0646635,4.55124622 16.9505934,9.17287171 C16.8398029,13.6639793 13.1654645,17.4094135 8.55389809,17.3866088" id="Fill-4" fill="#9E2F50"></path>
                                <path d="M8.55743426,9.93545498 C10.0332153,9.93545498 11.5088538,9.93789323 12.9846349,9.934451 C13.6914414,9.93272988 14.2121711,9.41912032 14.2103175,8.73870598 C14.2083212,8.02257849 13.6855953,7.55744701 12.8541673,7.55615618 C9.99799623,7.55214024 7.14182512,7.55343108 4.28551143,7.55730359 C4.10684923,7.55759044 3.92048731,7.57121594 3.75095072,7.62256255 C3.18445041,7.79424382 2.86277291,8.33367012 2.94347746,8.94093705 C3.01819333,9.50259442 3.523381,9.93258645 4.13023359,9.93416414 C5.60601468,9.93818008 7.08165318,9.93545498 8.55743426,9.93545498" id="Fill-7" fill="#FEFEFE"></path>
                            </g>
                        </g>
                    </g>
                </g>
            </g>
        </g>
    </g>
</svg>