<?xml version="1.0" encoding="UTF-8" standalone="no"?>
<svg width="70px" height="90px" viewBox="0 0 70 90" version="1.1" xmlns="http://www.w3.org/2000/svg" xmlns:xlink="http://www.w3.org/1999/xlink" xmlns:sketch="http://www.bohemiancoding.com/sketch/ns">
    <!-- Generator: Sketch 3.5.2 (25235) - http://www.bohemiancoding.com/sketch -->
    <title>.csv icon</title>
    <desc>Created with Sketch.</desc>
    <defs>
        <filter x="-50%" y="-50%" width="200%" height="200%" filterUnits="objectBoundingBox" id="filter-1">
            <feOffset dx="0" dy="2" in="SourceAlpha" result="shadowOffsetOuter1"></feOffset>
            <feGaussianBlur stdDeviation="0.5" in="shadowOffsetOuter1" result="shadowBlurOuter1"></feGaussianBlur>
            <feColorMatrix values="0 0 0 0 0.807843137   0 0 0 0 0.776470588   0 0 0 0 0.725490196  0 0 0 0.35 0" in="shadowBlurOuter1" type="matrix" result="shadowMatrixOuter1"></feColorMatrix>
            <feMerge>
                <feMergeNode in="shadowMatrixOuter1"></feMergeNode>
                <feMergeNode in="SourceGraphic"></feMergeNode>
            </feMerge>
        </filter>
    </defs>
    <g id="Page-1" stroke="none" stroke-width="1" fill="none" fill-rule="evenodd" sketch:type="MSPage">
        <g id="Large-Desktop-Copy" sketch:type="MSArtboardGroup" transform="translate(-178.000000, -1145.000000)">
            <g id=".csv-icon" sketch:type="MSLayerGroup" transform="translate(179.000000, 1145.000000)">
                <rect id="Rectangle-13" stroke="#EADECE" fill="#FFFFFF" filter="url(#filter-1)" sketch:type="MSShapeGroup" x="0" y="0" width="68" height="87" rx="5"></rect>
                <path d="M33.4486079,71.3210131 C29.6044388,71.3210131 25.7603426,71.3202843 21.9161735,71.3221793 C21.538258,71.3223251 21.258156,71.1629956 21.0948178,70.8274271 C20.9381851,70.5055612 20.9783455,70.1894534 21.1951822,69.9035933 C21.3647157,69.680051 21.6064067,69.5938265 21.8768149,69.5731268 C21.9190889,69.5699198 21.9618003,69.572398 22.004293,69.572398 C29.6379665,69.5723251 37.2715671,69.5725437 44.9051676,69.5715233 C45.2095408,69.5715233 45.4873105,69.637777 45.6878936,69.8821647 C45.9253571,70.1715962 45.9666108,70.499949 45.8062609,70.8356633 C45.6514504,71.15957 45.3797303,71.3209402 45.0174854,71.3209402 C42.8069169,71.321086 40.5964213,71.3210131 38.3858528,71.3210131 L33.4486079,71.3210131" id="Fill-6" fill="#27757B" sketch:type="MSShapeGroup"></path>
                <path d="M32.5769023,65.3892274 L32.5769023,65.1729738 C32.5769023,59.6587609 32.5768294,54.1445481 32.5770481,48.6303353 C32.577121,48.1495044 32.8486953,47.8148834 33.3062026,47.7280758 C33.8124708,47.6320845 34.3002259,48.0196939 34.3242055,48.5379883 C34.3270481,48.5986297 34.3247886,48.6594169 34.3247886,48.7202041 C34.3248615,54.2040233 34.3248615,59.6879155 34.3248615,65.1717347 L34.3248615,65.3819388 C34.343156,65.3937464 34.3614504,65.405481 34.3797449,65.4172886 C34.6505904,65.1340525 34.9164067,64.8458601 35.1930831,64.5685277 C36.1024854,63.6572303 37.0154592,62.7495773 37.9276312,61.8411224 C40.0875437,59.6900292 42.2477478,57.5391545 44.4080248,55.3884257 C44.7833163,55.0148105 45.3185204,55.0025656 45.6761735,55.3582507 C46.0279227,55.708105 46.0172813,56.2559184 45.6451968,56.6280758 C41.811086,60.4634257 37.9763192,64.2981195 34.1411152,68.1323761 C33.7520481,68.5212974 33.1811297,68.5145918 32.7792347,68.1139359 C31.7384184,67.0763994 30.7002988,66.0360933 29.661086,64.9969534 C26.8956341,62.2314286 24.1308382,59.4653207 21.3634184,56.7017638 C21.1481122,56.4868222 20.9910423,56.2526385 21.012981,55.9359475 C21.0389286,55.560656 21.2326603,55.2982653 21.580328,55.1618222 C21.9256633,55.0261808 22.2412609,55.1028571 22.5019023,55.3578863 C22.9836808,55.829242 23.455984,56.3103644 23.9321501,56.787551 C24.026465,56.8820845 24.1198324,56.9777114 24.2142201,57.072172 C26.9352843,59.7963703 29.6566399,62.520277 32.3765379,65.2456414 C32.4311297,65.3002332 32.4697595,65.3707143 32.5158236,65.4338338 C32.5361589,65.418965 32.5565671,65.4040962 32.5769023,65.3892274" id="Fill-4" fill="#27757B" sketch:type="MSShapeGroup"></path>
                <text id=".csv" sketch:type="MSTextLayer" font-family="Metric" font-size="27" font-weight="normal" sketch:alignment="middle" line-spacing="27" fill="#27757B">
                    <tspan x="14.3435" y="25">.csv</tspan>
                </text>
            </g>
        </g>
    </g>
</svg>