<?xml version="1.0" encoding="UTF-8" standalone="no"?>
<svg width="35px" height="43px" viewBox="0 0 35 43" version="1.1" xmlns="http://www.w3.org/2000/svg" xmlns:xlink="http://www.w3.org/1999/xlink">
    <!-- Generator: Sketch 3.6.1 (26313) - http://www.bohemiancoding.com/sketch -->
    <title>Page 1</title>
    <desc>Created with Sketch.</desc>
    <defs>
        <path id="path-1" d="M34.999,17.7010447 L34.999,17.3229553 C34.8976277,7.74503962 27.1019066,0.012 17.5,0.012 C7.835,0.012 0,7.847 0,17.512 C0,27.177 7.835,35.012 17.5,35.012 C27.1019066,35.012 34.8976277,27.2789604 34.999,17.7010447 L34.999,17.7010447 L34.999,17.7010447 Z"></path>
        <path id="path-3" d="M12.626,0.148 C14.059,1.929 15.474,3.688 16.921,5.488 C16.587,5.625 16.269,5.725 15.982,5.882 C15.701,6.035 15.409,6.206 15.197,6.438 C14.254,7.47 13.344,8.531 12.404,9.567 C12.304,9.678 12.096,9.739 11.938,9.739 C8.117,9.749 4.297,9.746 0.477,9.746 L0.063,9.746 L0.063,17.92 L0.49,17.92 C4.345,17.92 8.198,17.922 12.053,17.916 C12.3,17.916 12.456,17.965 12.589,18.205 C13.138,19.199 14.066,19.607 15.129,19.784 C15.184,19.793 15.24,19.802 15.354,19.821 C15.279,19.932 15.226,20.021 15.161,20.102 C12.855,23.007 10.533,25.901 8.246,28.822 C7.189,30.171 6.333,31.639 6.052,33.37 C5.668,35.738 6.253,37.873 7.703,39.756 C9.126,41.602 11.031,42.646 13.337,42.946 C13.693,42.992 14.056,42.997 14.416,42.998 C17.773,43.001 21.132,43 24.49,43 C28.733,42.999 32.16,40.138 32.89,35.952 C32.962,35.539 32.997,35.133 33,34.733 L33,34.647 C32.991,33.166 32.528,31.77 31.772,30.435 C31.033,29.129 30.034,28.023 29.107,26.861 C27.309,24.603 25.492,22.36 23.683,20.11 C23.629,20.042 23.58,19.969 23.489,19.844 C23.968,19.844 24.374,19.851 24.779,19.844 C25.609,19.829 26.224,19.217 26.223,18.416 C26.221,17.611 25.603,17.011 24.767,17.008 C24.415,17.008 24.063,17.008 23.711,17.009 C23.117,17.011 22.522,17.013 21.928,17.005 C21.296,16.997 20.802,17.219 20.517,17.799 C20.231,18.379 20.362,18.915 20.754,19.403 C22.111,21.09 23.472,22.774 24.826,24.464 C26.447,26.488 28.087,28.497 29.666,30.553 C30.404,31.513 30.931,32.613 31.086,33.838 C31.366,36.03 30.658,37.891 29.073,39.398 C27.83,40.579 26.327,41.154 24.602,41.149 C21.176,41.139 17.749,41.117 14.324,41.155 C11.357,41.188 8.384,39.04 7.835,35.586 C7.623,34.258 7.893,33.011 8.495,31.822 C9.074,30.674 9.885,29.691 10.677,28.694 C12.944,25.844 15.211,22.994 17.472,20.139 C17.632,19.935 17.79,19.834 18.059,19.845 C18.585,19.869 19.114,19.852 19.664,19.852 L19.664,13.867 C19.17,14.255 18.71,14.646 18.22,14.995 C16.849,15.971 15.339,16.506 13.634,16.39 C13.534,16.383 13.432,16.377 13.332,16.364 C12.645,16.276 12.645,16.275 12.758,15.526 C14.236,15.871 15.596,15.494 16.921,14.853 C18.194,14.238 18.936,13.159 19.521,11.939 C20.113,10.702 20.466,9.388 20.736,8.049 C20.744,8.008 20.759,7.968 20.78,7.896 C20.874,7.946 20.953,7.982 21.024,8.028 C21.649,8.43 22.271,8.837 22.897,9.236 C23.608,9.691 24.46,9.526 24.883,8.858 C25.311,8.181 25.109,7.361 24.394,6.893 C23.659,6.413 22.922,5.936 22.187,5.456 C22.179,5.451 22.176,5.438 22.15,5.393 C23.528,3.666 24.915,1.926 26.333,0.148 L12.626,0.148 L12.626,0.148 Z"></path>
        <path id="path-5" d="M3.569,0.91 L3.569,2.63 C3.241,2.741 2.937,2.823 2.65,2.945 C1.438,3.458 0.721,4.363 0.603,5.688 C0.487,6.99 1.052,7.973 2.156,8.615 C2.735,8.952 3.379,9.174 3.988,9.46 C4.373,9.641 4.766,9.814 5.121,10.045 C5.501,10.29 5.719,10.667 5.642,11.141 C5.56,11.646 5.204,11.904 4.741,12.04 C4.06,12.242 3.376,12.172 2.71,11.995 C2.134,11.84 1.577,11.605 0.998,11.401 C0.853,11.993 0.713,12.606 0.55,13.214 C0.488,13.443 0.539,13.564 0.756,13.659 C1.524,13.997 2.321,14.222 3.159,14.274 C3.418,14.289 3.509,14.37 3.496,14.637 C3.475,15.116 3.491,15.597 3.491,16.081 L5.221,16.081 C5.221,15.519 5.231,14.989 5.216,14.461 C5.21,14.243 5.275,14.158 5.492,14.095 C5.888,13.979 6.292,13.851 6.651,13.653 C8.518,12.623 8.954,10.046 7.526,8.487 C6.958,7.865 6.192,7.551 5.431,7.231 C4.884,7.001 4.34,6.755 3.823,6.466 C3.452,6.259 3.209,5.918 3.307,5.453 C3.405,4.989 3.747,4.744 4.18,4.665 C4.519,4.603 4.883,4.564 5.217,4.623 C5.935,4.752 6.641,4.952 7.371,5.126 C7.482,4.699 7.614,4.199 7.742,3.698 C7.893,3.108 7.9,3.078 7.315,2.909 C6.672,2.723 6.013,2.602 5.31,2.441 L5.31,0.91 L3.569,0.91 L3.569,0.91 Z"></path>
        <path id="path-7" d="M4.268,0.543 L4.268,0.544 C3.39,0.544 2.512,0.517 1.635,0.552 C0.903,0.579 0.364,1.215 0.368,1.959 C0.373,2.68 0.914,3.315 1.637,3.326 C3.392,3.356 5.148,3.358 6.902,3.327 C7.656,3.314 8.188,2.683 8.183,1.94 C8.178,1.19 7.646,0.579 6.9,0.55 C6.559,0.537 6.217,0.533 5.875,0.533 C5.34,0.533 4.803,0.543 4.268,0.543 L4.268,0.543 Z"></path>
        <path id="path-9" d="M1.753,0.041 C0.95,0.052 0.347,0.716 0.368,1.492 C0.391,2.285 1.002,2.868 1.82,2.87 C2.53,2.873 3.239,2.871 3.949,2.871 C4.659,2.871 5.37,2.873 6.08,2.87 C6.903,2.868 7.508,2.292 7.531,1.493 C7.553,0.717 6.951,0.053 6.147,0.041 C5.415,0.03 4.683,0.025 3.95,0.025 C3.218,0.025 2.485,0.03 1.753,0.041 L1.753,0.041 Z"></path>
        <path id="path-11" d="M0.21,0.854 C0.92,1.733 1.59,2.564 2.264,3.391 C2.628,3.838 2.631,3.831 3.191,3.647 C3.646,3.498 4.092,3.288 4.595,3.436 C4.639,3.449 4.723,3.409 4.755,3.368 C5.408,2.55 6.055,1.729 6.703,0.907 C6.708,0.901 6.704,0.887 6.704,0.854 L0.21,0.854 L0.21,0.854 Z"></path>
    </defs>
    <g id="Page-1" stroke="none" stroke-width="1" fill="none" fill-rule="evenodd">
        <g id="Large-Desktop-Copy-3" transform="translate(-224.000000, -1443.000000)">
            <g id="fact-7" transform="translate(180.000000, 1341.000000)">
                <g id="Page-1" transform="translate(44.000000, 101.000000)">
                    <g id="Group-3" transform="translate(0.000000, 4.852500)">
                        <mask id="mask-2" fill="white">
                            <use xlink:href="#path-1"></use>
                        </mask>
                        <g id="Clip-2"></g>
                        <path d="M-5,40.012 L40,40.012 L40,-4.988 L-5,-4.988 L-5,40.012 Z" id="Fill-1" fill="#E9DDCD" mask="url(#mask-2)"></path>
                    </g>
                    <g id="Group-19" transform="translate(1.000000, 0.852500)">
                        <g id="Group-6">
                            <mask id="mask-4" fill="white">
                                <use xlink:href="#path-3"></use>
                            </mask>
                            <g id="Clip-5"></g>
                            <path d="M-4.936,48 L38,48 L38,-4.853 L-4.936,-4.853 L-4.936,48 Z" id="Fill-4" fill="#9F3050" mask="url(#mask-4)"></path>
                        </g>
                        <g id="Group-9" transform="translate(15.000000, 23.000000)">
                            <mask id="mask-6" fill="white">
                                <use xlink:href="#path-5"></use>
                            </mask>
                            <g id="Clip-8"></g>
                            <path d="M-4.475,21.081 L13.373,21.081 L13.373,-4.09 L-4.475,-4.09 L-4.475,21.081 Z" id="Fill-7" fill="#9F3050" mask="url(#mask-6)"></path>
                        </g>
                        <g id="Group-12" transform="translate(20.000000, 13.000000)">
                            <mask id="mask-8" fill="white">
                                <use xlink:href="#path-7"></use>
                            </mask>
                            <g id="Clip-11"></g>
                            <path d="M-4.632,8.349 L13.183,8.349 L13.183,-4.468 L-4.632,-4.468 L-4.632,8.349 Z" id="Fill-10" fill="#9F3050" mask="url(#mask-8)"></path>
                        </g>
                        <g id="Group-15" transform="translate(20.000000, 10.000000)">
                            <mask id="mask-10" fill="white">
                                <use xlink:href="#path-9"></use>
                            </mask>
                            <g id="Clip-14"></g>
                            <path d="M-4.632,7.872 L12.532,7.872 L12.532,-4.975 L-4.632,-4.975 L-4.632,7.872 Z" id="Fill-13" fill="#9F3050" mask="url(#mask-10)"></path>
                        </g>
                        <g id="Group-18" transform="translate(16.000000, 1.000000)">
                            <mask id="mask-12" fill="white">
                                <use xlink:href="#path-11"></use>
                            </mask>
                            <g id="Clip-17"></g>
                            <path d="M-4.79,8.765 L11.705,8.765 L11.705,-4.146 L-4.79,-4.146 L-4.79,8.765 Z" id="Fill-16" fill="#FEFEFE" mask="url(#mask-12)"></path>
                        </g>
                    </g>
                </g>
            </g>
        </g>
    </g>
</svg>