<?xml version="1.0" encoding="UTF-8" standalone="no"?>
<svg width="35px" height="43px" viewBox="0 0 35 43" version="1.1" xmlns="http://www.w3.org/2000/svg" xmlns:xlink="http://www.w3.org/1999/xlink">
    <!-- Generator: Sketch 3.6 (26304) - http://www.bohemiancoding.com/sketch -->
    <title>dollar-bag</title>
    <desc>Created with Sketch.</desc>
    <defs></defs>
    <g id="Page-1" stroke="none" stroke-width="1" fill="none" fill-rule="evenodd">
        <g id="Large-Desktop-Copy-3" transform="translate(-215.000000, -1354.000000)">
            <g id="fact-7" transform="translate(180.000000, 1341.000000)">
                <g id="dollar-bag" style="mix-blend-mode: multiply;" transform="translate(52.500000, 34.500000) scale(-1, 1) translate(-52.500000, -34.500000) translate(35.000000, 13.000000)">
                    <ellipse id="Oval-1" fill="#EADECE" style="mix-blend-mode: multiply;" cx="17.5" cy="21.5" rx="17.5" ry="17.5"></ellipse>
                    <g id="icon" style="mix-blend-mode: multiply;" transform="translate(1.000000, 0.000000)">
                        <path d="M9.51091107,19.8329166 C9.03159959,19.8329166 8.62626762,19.8387459 8.2210709,19.8316966 C7.39120205,19.8173269 6.77596844,19.2055304 6.77745615,18.4042166 C6.77894385,17.5995137 7.39728811,16.9989689 8.23229631,16.9967999 C9.17888238,16.9943597 10.1257389,17.0053404 11.0721898,16.9930041 C11.7035176,16.9848703 12.1981119,17.2073295 12.4829398,17.7864553 C12.7685791,18.3673434 12.6379316,18.903089 12.2453127,19.3911163 C10.8882553,21.0779287 9.52741107,22.7618942 8.17427582,24.45196 C6.55362418,26.4760535 4.91363238,28.4855061 3.33355451,30.5410502 C2.59565287,31.5011085 2.06968156,32.6007968 1.91347254,33.8257455 C1.63378402,36.0179372 2.34220205,37.8789482 3.92701352,39.3860038 C5.16965287,40.5675723 6.67291107,41.1418178 8.39851352,41.1369375 C11.8242922,41.1274481 15.2506119,41.1049446 18.6761201,41.1430379 C21.6434152,41.1761153 24.6161201,39.0286593 25.1653537,35.5746457 C25.3764725,34.2462624 25.1065217,32.9990814 24.5053537,31.8095147 C23.925825,30.6623793 23.1154316,29.6792753 22.3227553,28.6826149 C20.0557635,25.8322641 17.788366,22.9823199 15.5282717,20.1265464 C15.3677348,19.923744 15.2100381,19.8218005 14.9411693,19.83373 C14.4147922,19.8570469 13.8865217,19.8405082 13.3356652,19.8405082 L13.3356652,13.8548526 C13.8298537,14.2426988 14.2902307,14.6339341 14.7804971,14.9831448 C16.1508086,15.9591995 17.6612348,16.4944028 19.3654684,16.3779541 C19.4664971,16.3710404 19.5677963,16.3650756 19.6680135,16.3521971 C20.354657,16.2638099 20.3545217,16.2632677 20.2422676,15.5142812 C18.7641652,15.8590183 17.4034561,15.4818816 16.078452,14.8412102 C14.8061939,14.2260246 14.0632881,13.1477552 13.4783496,11.9267379 C12.8861078,10.6901308 12.533657,9.37625271 12.2641119,8.03743099 C12.2558619,7.99621979 12.2409848,7.95636422 12.2200217,7.88451575 C12.1257553,7.93494525 12.0471775,7.97019167 11.9756324,8.01614758 C11.3509316,8.41809233 10.7292061,8.82478179 10.1031529,9.22442197 C9.39135369,9.67882967 8.54052172,9.51439156 8.11774303,8.84660746 C7.68914877,8.16960507 7.89188238,7.34904129 8.60652172,6.8817551 C9.34104221,6.40131928 10.0774561,5.92373028 10.8127881,5.44437897 C10.8209029,5.43909201 10.8238783,5.42607794 10.8494398,5.3813421 C9.47196025,3.65386082 8.08501352,1.91444998 6.66655451,0.135590267 L20.3734561,0.135590267 C18.9406611,1.91756794 17.5263947,3.6763643 16.078993,5.476643 C16.4123742,5.6131551 16.7308783,5.71333627 17.0186816,5.87018284 C17.2990463,6.02309808 17.5911775,6.19431434 17.8031078,6.4262629 C18.7460422,7.45816963 19.6566529,8.51962913 20.5956652,9.55533163 C20.6956119,9.66568004 20.9038906,9.72709015 21.0621283,9.72749684 C24.8824193,9.7368507 28.7027102,9.73468169 32.5231365,9.73468169 L32.936448,9.73468169 L32.936448,17.9084621 L32.5097471,17.9084621 C28.6556447,17.9084621 24.8015422,17.9104955 20.9473045,17.9041241 C20.7002102,17.9037174 20.5434602,17.9529268 20.4111898,18.1924669 C19.8620914,19.1869582 18.9341693,19.5951389 17.8704602,19.7719132 C17.8154152,19.7811315 17.7602348,19.7900787 17.645952,19.8090575 C17.7216898,19.9199482 17.7748414,20.0091487 17.8388127,20.0896733 C20.1452963,22.9954695 22.466657,25.8897428 24.7542061,28.8103154 C25.8106119,30.1590333 26.6669889,31.6270467 26.9478947,33.357917 C27.3322635,35.726612 26.7475955,37.8610539 25.296407,39.7438906 C23.8733496,41.5903963 21.9690873,42.6338259 19.6634152,42.9340983 C19.307448,42.9804609 18.9443127,42.9852056 18.5845586,42.9856123 C15.2262676,42.9891369 11.8681119,42.9880524 8.50995615,42.9876457 C4.26729221,42.9869679 0.839620082,40.1255008 0.110103689,35.9402596 C-0.234097131,33.9656466 0.253464344,32.1444912 1.22804631,30.4228392 C1.96716516,29.1169593 2.96622664,28.0104928 3.89239057,26.848581 C5.69143156,24.5910478 7.50818975,22.3477487 9.31710369,20.0982137 C9.37147254,20.0305677 9.41989057,19.9580414 9.51091107,19.8329166" id="Fill-4" fill="#9E2F50"></path>
                        <path d="M14.3235418,39.0692605 L12.5928,39.0692605 C12.5928,38.5846222 12.577382,38.1040509 12.5987508,37.6252418 C12.6107877,37.3583179 12.520173,37.2773867 12.2606361,37.2615258 C11.4230582,37.2101474 10.6261893,36.9851126 9.85785738,36.6472892 C9.64146393,36.5521239 9.5898,36.4307948 9.65160738,36.2019642 C9.81539016,35.5946413 9.95523443,34.9809469 10.1000828,34.388807 C10.679882,34.5935074 11.2356074,34.8287095 11.8129721,34.9831159 C12.4775705,35.1608392 13.1617795,35.2294342 13.8434189,35.0285296 C14.3070418,34.8918819 14.661927,34.6343119 14.744427,34.1294747 C14.8217877,33.6555459 14.6033656,33.2789515 14.2231893,33.0326332 C13.8680336,32.8025826 13.4747385,32.628655 13.0899639,32.4480849 C12.4810869,32.1623178 11.8367754,31.940672 11.2584639,31.6039331 C10.1544516,30.9608215 9.58871803,29.9785309 9.7053,28.6761757 C9.82391066,27.3511814 10.5404434,26.4464329 11.752382,25.9326486 C12.0393738,25.8110484 12.3431361,25.7294394 12.6713779,25.6184132 L12.6713779,23.8981167 L14.4118574,23.8981167 L14.4118574,25.4295737 C15.1144598,25.590216 15.7750008,25.7114095 16.4170131,25.8968599 C17.0022221,26.0659072 16.9946484,26.0969511 16.8439844,26.6863797 C16.7160418,27.1868789 16.5845828,27.6865647 16.4734107,28.1146731 C15.7430828,27.9393899 15.0373697,27.7401121 14.3190787,27.6111916 C13.9856975,27.5514082 13.6210746,27.5915349 13.2826893,27.6532161 C12.8494967,27.7319783 12.5080008,27.9776188 12.409677,28.4413803 C12.3109475,28.9066331 12.5545254,29.2473033 12.9250992,29.4543082 C13.4424148,29.7434644 13.986509,29.9891048 14.5335787,30.2192911 C15.2936607,30.5390846 16.0595582,30.8534555 16.628673,31.474877 C18.0561934,33.0333111 17.6204311,35.6114511 15.753091,36.6409177 C15.3940131,36.8389755 14.9905746,36.9674894 14.5944393,37.0825825 C14.3777754,37.1456193 14.3121811,37.2310241 14.3185377,37.4491453 C14.3338205,37.9778416 14.3235418,38.5072157 14.3235418,39.0692605" id="Fill-7" fill="#9E2F50" transform="translate(13.551137, 31.483689) scale(-1, 1) translate(-13.551137, -31.483689) "></path>
                        <path d="M8.73208402,13.5316972 C9.60969467,13.5316972 10.488252,13.5058046 11.3646455,13.5396954 C12.0971373,13.5680281 12.6366332,14.2032771 12.6317643,14.9475188 C12.6270307,15.6679014 12.0860471,16.3026081 11.3626168,16.3146732 C9.60793648,16.3439548 7.85217418,16.3459883 6.0976291,16.315351 C5.34417418,16.3020658 4.81144057,15.6706127 4.81698566,14.9279977 C4.82253074,14.1775201 5.35364139,13.5670792 6.0993873,13.5383398 C6.97578074,13.5045846 7.85433811,13.5304771 8.73194877,13.5304771 C8.73208402,13.5308838 8.73208402,13.5312905 8.73208402,13.5316972" id="Fill-9" fill="#9E2F50"></path>
                        <path d="M9.05050697,12.8590328 C8.34060123,12.8590328 7.63069549,12.8609307 6.92078975,12.8584906 C6.09727746,12.8557793 5.49205205,12.2796359 5.46906025,11.4813045 C5.44674467,10.7052054 6.04926516,10.0410815 6.85262582,10.0290164 C8.31706844,10.0070552 9.78245779,10.0073263 11.2469004,10.0288808 C12.0502611,10.0408104 12.6533225,10.7039854 12.6316832,11.4800844 C12.6096381,12.2729933 11.9979209,12.8557793 11.1802242,12.8584906 C10.4703184,12.8609307 9.7604127,12.8590328 9.05050697,12.8590328" id="Fill-11" fill="#9E2F50"></path>
                        <path d="M16.790116,1.84205926 C16.0792635,2.72077963 15.4100668,3.55218846 14.735866,4.37953039 C14.3716488,4.82634655 14.3690791,4.81902614 13.8094316,4.6352025 C13.3545996,4.48567634 12.9077471,4.2760957 12.4051734,4.42453736 C12.360948,4.43755142 12.2775012,4.39728916 12.244366,4.35580684 C11.5922102,3.53822545 10.9447881,2.7168483 10.2972307,1.89574227 C10.2919561,1.88923524 10.2965545,1.87500111 10.2965545,1.84205926 L16.790116,1.84205926 Z" id="Fill-13" fill="#FEFEFE"></path>
                    </g>
                </g>
            </g>
        </g>
    </g>
</svg>