<?xml version="1.0" encoding="utf-8"?>
<!-- Generator: Adobe Illustrator 18.0.0, SVG Export Plug-In . SVG Version: 6.00 Build 0)  -->
<!DOCTYPE svg PUBLIC "-//W3C//DTD SVG 1.1//EN" "http://www.w3.org/Graphics/SVG/1.1/DTD/svg11.dtd">
<svg version="1.1" id="Layer_1" xmlns="http://www.w3.org/2000/svg" xmlns:xlink="http://www.w3.org/1999/xlink" x="0px" y="0px"
	 viewBox="0 0 35 43" enable-background="new 0 0 35 43" xml:space="preserve">
<g enable-background="new    ">
	<g>
		<defs>
			<rect id="SVGID_1_" width="35" height="43"/>
		</defs>
		<clipPath id="SVGID_2_">
			<use xlink:href="#SVGID_1_"  overflow="visible"/>
		</clipPath>
		<g clip-path="url(#SVGID_2_)">
			<defs>
				<rect id="SVGID_3_" width="35" height="43"/>
			</defs>
			<clipPath id="SVGID_4_">
				<use xlink:href="#SVGID_3_"  overflow="visible"/>
			</clipPath>
			<g clip-path="url(#SVGID_4_)" enable-background="new    ">
				<g>
					<defs>
						<rect id="SVGID_5_" width="35" height="43"/>
					</defs>
					<clipPath id="SVGID_6_">
						<use xlink:href="#SVGID_5_"  overflow="visible"/>
					</clipPath>
					<g clip-path="url(#SVGID_6_)">
						<defs>
							<rect id="SVGID_7_" width="35" height="43"/>
						</defs>
						<clipPath id="SVGID_8_">
							<use xlink:href="#SVGID_7_"  overflow="visible"/>
						</clipPath>
						<g clip-path="url(#SVGID_8_)" enable-background="new    ">
							<g>
								<defs>
									<rect id="SVGID_9_" width="35" height="43"/>
								</defs>
								<clipPath id="SVGID_10_">
									<use xlink:href="#SVGID_9_"  overflow="visible"/>
								</clipPath>
								<g clip-path="url(#SVGID_10_)">
									<defs>
										<circle id="SVGID_11_" cx="17.5" cy="21.5" r="17.5"/>
									</defs>
									<clipPath id="SVGID_12_">
										<use xlink:href="#SVGID_11_"  overflow="visible"/>
									</clipPath>
									<g clip-path="url(#SVGID_12_)">
										<defs>
											<rect id="SVGID_13_" width="35" height="43"/>
										</defs>
										<clipPath id="SVGID_14_">
											<use xlink:href="#SVGID_13_"  overflow="visible"/>
										</clipPath>
										<rect x="-5" y="-1" clip-path="url(#SVGID_14_)" fill="#EADDCE" width="45" height="45"/>
									</g>
								</g>
								<g clip-path="url(#SVGID_10_)">
									<defs>
										<rect id="SVGID_15_" width="35" height="43"/>
									</defs>
									<clipPath id="SVGID_16_">
										<use xlink:href="#SVGID_15_"  overflow="visible"/>
									</clipPath>
									<g clip-path="url(#SVGID_16_)" enable-background="new    ">
										<g>
											<defs>
												<rect id="SVGID_17_" x="1" width="33" height="43"/>
											</defs>
											<clipPath id="SVGID_18_">
												<use xlink:href="#SVGID_17_"  overflow="visible"/>
											</clipPath>
											<g clip-path="url(#SVGID_18_)">
												<defs>
													<rect id="SVGID_19_" x="1" width="33" height="43"/>
												</defs>
												<clipPath id="SVGID_20_">
													<use xlink:href="#SVGID_19_"  overflow="visible"/>
												</clipPath>
												<g clip-path="url(#SVGID_20_)" enable-background="new    ">
													<g>
														<defs>
															<rect id="SVGID_21_" x="1" width="33" height="43"/>
														</defs>
														<clipPath id="SVGID_22_">
															<use xlink:href="#SVGID_21_"  overflow="visible"/>
														</clipPath>
														<g clip-path="url(#SVGID_22_)">
															<defs>
																<path id="SVGID_23_" d="M24.489,19.833c0.479,0,0.885,0.006,1.29-0.001c0.83-0.014,1.445-0.626,1.444-1.427
																	c-0.001-0.805-0.62-1.405-1.455-1.407c-0.947-0.002-1.893,0.009-2.84-0.004c-0.631-0.008-1.126,0.214-1.411,0.793
																	c-0.286,0.581-0.155,1.117,0.238,1.605c1.357,1.687,2.718,3.371,4.071,5.061c1.621,2.024,3.261,4.034,4.841,6.089
																	c0.738,0.96,1.264,2.06,1.42,3.285c0.28,2.192-0.429,4.053-2.014,5.56c-1.243,1.182-2.746,1.756-4.472,1.751
																	c-3.426-0.009-6.852-0.032-10.278,0.006c-2.967,0.033-5.94-2.114-6.489-5.568c-0.211-1.328,0.059-2.576,0.66-3.765
																	c0.58-1.147,1.39-2.13,2.183-3.127c2.267-2.85,4.534-5.7,6.794-8.556c0.161-0.203,0.318-0.305,0.587-0.293
																	c0.526,0.023,1.055,0.007,1.605,0.007v-5.986c-0.494,0.388-0.955,0.779-1.445,1.128
																	c-1.37,0.976-2.881,1.511-4.585,1.395c-0.101-0.007-0.202-0.013-0.303-0.026c-0.687-0.088-0.687-0.089-0.574-0.838
																	c1.478,0.345,2.839-0.032,4.164-0.673c1.272-0.615,2.015-1.693,2.6-2.914c0.592-1.237,0.945-2.55,1.214-3.889
																	c0.008-0.041,0.023-0.081,0.044-0.153c0.094,0.05,0.173,0.086,0.244,0.132c0.625,0.402,1.246,0.809,1.872,1.208
																	c0.712,0.454,1.563,0.29,1.985-0.378c0.429-0.677,0.226-1.498-0.489-1.965c-0.735-0.48-1.471-0.958-2.206-1.437
																	c-0.008-0.005-0.011-0.018-0.037-0.063c1.377-1.727,2.764-3.467,4.183-5.246H13.627
																	c1.433,1.782,2.847,3.541,4.294,5.341c-0.333,0.137-0.652,0.237-0.94,0.394c-0.28,0.153-0.573,0.324-0.784,0.556
																	c-0.943,1.032-1.854,2.093-2.793,3.129c-0.1,0.11-0.308,0.172-0.466,0.172C9.118,9.737,5.297,9.735,1.477,9.735
																	H1.064v8.174H1.49c3.854,0,7.708,0.002,11.562-0.004c0.247,0,0.404,0.049,0.536,0.288
																	c0.549,0.994,1.477,1.403,2.541,1.579c0.055,0.009,0.11,0.018,0.225,0.037c-0.076,0.111-0.129,0.2-0.193,0.281
																	c-2.306,2.906-4.628,5.8-6.915,8.721c-1.056,1.349-1.913,2.817-2.194,4.548c-0.384,2.369,0.2,4.503,1.651,6.386
																	c1.423,1.847,3.327,2.89,5.633,3.19c0.356,0.046,0.719,0.051,1.079,0.052c3.358,0.004,6.716,0.002,10.075,0.002
																	c4.243-0.001,7.67-2.862,8.4-7.047c0.344-1.975-0.143-3.796-1.118-5.517c-0.739-1.306-1.738-2.412-2.664-3.574
																	c-1.799-2.258-3.616-4.501-5.425-6.75C24.629,20.031,24.58,19.958,24.489,19.833"/>
															</defs>
															<clipPath id="SVGID_24_">
																<use xlink:href="#SVGID_23_"  overflow="visible"/>
															</clipPath>
															<g clip-path="url(#SVGID_24_)">
																<defs>
																	<rect id="SVGID_25_" x="1" width="33" height="43"/>
																</defs>
																<clipPath id="SVGID_26_">
																	<use xlink:href="#SVGID_25_"  overflow="visible"/>
																</clipPath>
																<rect x="-3.936" y="-4.864" clip-path="url(#SVGID_26_)" fill="#9F3051" width="42.936" height="52.853"/>
															</g>
														</g>
														<g clip-path="url(#SVGID_22_)">
															<defs>
																<path id="SVGID_27_" d="M21.221,39.069h-1.731c0-0.485-0.015-0.965,0.006-1.444
																	c0.012-0.267-0.079-0.348-0.338-0.364c-0.838-0.051-1.634-0.276-2.403-0.614c-0.216-0.095-0.268-0.216-0.206-0.445
																	c0.164-0.607,0.304-1.221,0.448-1.813c0.58,0.205,1.136,0.44,1.713,0.594c0.665,0.178,1.349,0.246,2.03,0.045
																	c0.464-0.137,0.819-0.394,0.901-0.899c0.077-0.474-0.141-0.851-0.521-1.097c-0.355-0.23-0.748-0.404-1.133-0.585
																	c-0.609-0.286-1.253-0.507-1.831-0.844c-1.104-0.643-1.67-1.625-1.553-2.928c0.119-1.325,0.835-2.23,2.047-2.744
																	c0.287-0.122,0.591-0.203,0.919-0.314v-1.72h1.74v1.531c0.703,0.161,1.363,0.282,2.005,0.467
																	c0.585,0.169,0.578,0.2,0.427,0.79c-0.128,0.5-0.259,1-0.371,1.428c-0.73-0.175-1.436-0.375-2.154-0.503
																	c-0.333-0.06-0.698-0.02-1.036,0.042c-0.433,0.079-0.775,0.324-0.873,0.788c-0.099,0.465,0.145,0.806,0.515,1.013
																	c0.517,0.289,1.061,0.535,1.608,0.765c0.76,0.32,1.526,0.634,2.095,1.256c1.428,1.558,0.992,4.137-0.876,5.166
																	c-0.359,0.198-0.763,0.327-1.159,0.442c-0.217,0.063-0.282,0.148-0.276,0.367
																	C21.232,37.978,21.221,38.507,21.221,39.069"/>
															</defs>
															<clipPath id="SVGID_28_">
																<use xlink:href="#SVGID_27_"  overflow="visible"/>
															</clipPath>
															<g clip-path="url(#SVGID_28_)">
																<defs>
																	<rect id="SVGID_29_" x="1" width="33" height="43"/>
																</defs>
																<clipPath id="SVGID_30_">
																	<use xlink:href="#SVGID_29_"  overflow="visible"/>
																</clipPath>
																<rect x="11.525" y="18.898" clip-path="url(#SVGID_30_)" fill="#9F3051" width="17.848" height="25.171"/>
															</g>
														</g>
														<g clip-path="url(#SVGID_22_)">
															<defs>
																<path id="SVGID_31_" d="M25.268,13.532c-0.878,0-1.756-0.026-2.633,0.008c-0.732,0.028-1.272,0.664-1.267,1.408
																	c0.005,0.72,0.546,1.355,1.269,1.367c1.755,0.029,3.51,0.031,5.265,0.001c0.753-0.013,1.286-0.645,1.281-1.387
																	c-0.006-0.75-0.537-1.361-1.282-1.39c-0.876-0.034-1.755-0.008-2.633-0.008
																	C25.268,13.531,25.268,13.531,25.268,13.532"/>
															</defs>
															<clipPath id="SVGID_32_">
																<use xlink:href="#SVGID_31_"  overflow="visible"/>
															</clipPath>
															<g clip-path="url(#SVGID_32_)">
																<defs>
																	<rect id="SVGID_33_" x="1" width="33" height="43"/>
																</defs>
																<clipPath id="SVGID_34_">
																	<use xlink:href="#SVGID_33_"  overflow="visible"/>
																</clipPath>
																<rect x="16.368" y="8.521" clip-path="url(#SVGID_34_)" fill="#9F3051" width="17.815" height="12.817"/>
															</g>
														</g>
														<g clip-path="url(#SVGID_22_)">
															<defs>
																<path id="SVGID_35_" d="M24.949,12.859c0.71,0,1.42,0.002,2.13-0.001c0.824-0.003,1.429-0.579,1.452-1.377
																	c0.022-0.776-0.58-1.44-1.384-1.452c-1.464-0.022-2.93-0.022-4.394,0c-0.803,0.012-1.406,0.675-1.385,1.451
																	c0.022,0.793,0.634,1.376,1.451,1.378C23.53,12.861,24.24,12.859,24.949,12.859"/>
															</defs>
															<clipPath id="SVGID_36_">
																<use xlink:href="#SVGID_35_"  overflow="visible"/>
															</clipPath>
															<g clip-path="url(#SVGID_36_)">
																<defs>
																	<rect id="SVGID_37_" x="1" width="33" height="43"/>
																</defs>
																<clipPath id="SVGID_38_">
																	<use xlink:href="#SVGID_37_"  overflow="visible"/>
																</clipPath>
																<rect x="16.368" y="5.013" clip-path="url(#SVGID_38_)" fill="#9F3051" width="17.164" height="12.847"/>
															</g>
														</g>
														<g clip-path="url(#SVGID_22_)">
															<defs>
																<path id="SVGID_39_" d="M17.21,1.842c0.711,0.879,1.38,1.71,2.054,2.537c0.364,0.447,0.367,0.439,0.926,0.256
																	c0.455-0.15,0.902-0.359,1.404-0.211c0.044,0.013,0.128-0.027,0.161-0.069c0.652-0.818,1.3-1.639,1.947-2.46
																	c0.005-0.007,0.001-0.021,0.001-0.054H17.21z"/>
															</defs>
															<clipPath id="SVGID_40_">
																<use xlink:href="#SVGID_39_"  overflow="visible"/>
															</clipPath>
															<g clip-path="url(#SVGID_40_)">
																<defs>
																	<rect id="SVGID_41_" x="1" width="33" height="43"/>
																</defs>
																<clipPath id="SVGID_42_">
																	<use xlink:href="#SVGID_41_"  overflow="visible"/>
																</clipPath>
																<rect x="12.21" y="-3.158" clip-path="url(#SVGID_42_)" fill="#FFFFFF" width="16.495" height="12.911"/>
															</g>
														</g>
													</g>
												</g>
											</g>
										</g>
									</g>
								</g>
							</g>
						</g>
					</g>
				</g>
			</g>
		</g>
	</g>
</g>
</svg>
