<?xml version="1.0" encoding="UTF-8" standalone="no"?>
<svg width="60px" height="35px" viewBox="0 0 60 35" version="1.1" xmlns="http://www.w3.org/2000/svg" xmlns:xlink="http://www.w3.org/1999/xlink">
    <!-- Generator: Sketch 3.6 (26304) - http://www.bohemiancoding.com/sketch -->
    <title>helicopter</title>
    <desc>Created with Sketch.</desc>
    <defs></defs>
    <g id="Page-1" stroke="none" stroke-width="1" fill="none" fill-rule="evenodd">
        <g id="Large-Desktop-Copy-3" transform="translate(-203.000000, -891.000000)">
            <g id="helicopter" transform="translate(203.000000, 891.000000)">
                <ellipse id="Oval-1" fill="#EADECE" cx="29.5238095" cy="17.1428571" rx="17.1428571" ry="17.1428571"></ellipse>
                <path d="M19.4720869,19.274716 C20.3094773,19.274716 21.0666735,19.2605231 21.82232,19.2813286 C22.1444529,19.2901991 22.3069721,19.2050418 22.4421788,18.9586015 C22.9291553,18.0705778 23.4488681,17.194973 23.9548277,16.3142071 C24.3819491,15.5708542 24.8073272,14.8266949 25.2631171,14.0310863 C24.2916822,14.0310863 23.3944367,14.0259253 22.4977723,14.0383441 C22.4011131,14.0397956 22.2597078,14.1257594 22.2180611,14.2022075 C21.3082247,15.8676147 20.409817,17.5372153 19.4720869,19.274716 L19.4720869,19.274716 Z M17.2303291,27.621106 C19.37659,27.621106 21.406821,27.6232027 23.4366646,27.6149773 C23.5397161,27.6144934 23.7132765,27.541271 23.7338094,27.4757901 C23.9674186,26.7284052 24.1775895,25.9758592 24.4102302,25.1686383 C24.0427702,25.0889645 23.7266423,24.9667121 23.4068339,24.9600995 C22.0071154,24.9305847 20.6066221,24.9320363 19.2063225,24.9309073 C19.0806074,24.9309073 18.8841897,24.961551 18.8396373,25.0309027 C18.3048155,25.8647353 17.7924635,26.7085674 17.2303291,27.621106 L17.2303291,27.621106 Z M20.2362565,13.8548041 C18.2941617,14.0325379 16.4880483,14.328492 14.7543809,14.8892726 C13.2399886,15.3789275 11.8061779,15.9842223 10.7737257,17.0732044 C9.91870809,17.9750984 9.53187751,18.9681172 10.0953678,20.1051616 C10.2288312,20.3743428 10.4052972,20.4901439 10.7760502,20.4811121 C12.3208543,20.4433719 13.8670144,20.4415978 15.4116249,20.4011157 C15.5857665,20.3964385 15.820538,20.263864 15.9139042,20.1340313 C16.4926973,19.3310037 17.0379792,18.5115253 17.5960458,17.6983369 C18.4562935,16.4446849 19.3178971,15.1915168 20.2362565,13.8548041 L20.2362565,13.8548041 Z M23.6013146,7.75218177 L23.6013146,6.76190476 L24.8305719,6.76190476 L24.8305719,7.73121499 L48.9903404,7.73121499 C48.8212352,8.07523142 48.7084984,8.3668309 48.5324198,8.62891561 C48.4696591,8.72229841 48.2542582,8.78987594 48.1072355,8.79181134 C47.0583183,8.80552039 46.0090137,8.79923035 44.9597091,8.79923035 L25.493627,8.79923035 L24.8842284,8.79923035 L24.8842284,10.8971983 L25.427767,10.8971983 C28.5592158,10.8971983 31.6906646,10.9012304 34.8219197,10.8910696 C35.1502511,10.8901019 35.3449255,10.9655823 35.5103503,11.2087969 C35.9049291,11.7882863 36.3380554,12.3495508 36.7934578,12.9698449 L34.0397355,12.9698449 C34.7895708,13.2866045 35.4576623,13.6511038 35.9266241,14.2380123 C35.9758254,14.2996224 36.1939382,14.289139 36.329726,14.2780105 C38.1100765,14.1331784 39.8898459,13.9843143 41.6694215,13.8323858 C43.6891924,13.6599744 45.7083822,13.4836922 47.7279594,13.3087002 C49.5069539,13.1546751 51.2847862,12.9914568 53.0657178,12.8540437 C53.389594,12.8290449 53.5375853,12.699696 53.6830584,12.4916411 C54.4611748,11.3789503 55.2633107,10.277872 56.0284488,9.1590525 C56.2248665,8.87196894 56.4569262,8.78536002 56.8365896,8.79358545 C57.7818742,8.81439094 58.728321,8.80052062 59.7599983,8.80052062 C59.405904,9.49935942 59.0841586,10.1367494 58.7602824,10.773333 C58.1202783,12.0310171 57.4703952,13.2854755 56.8491805,14.5496109 C56.7701485,14.7104099 56.7713107,14.9437863 56.8491805,15.1053917 C57.2859872,16.0127693 57.7584358,16.9080507 58.2165501,17.8083319 C58.2779549,17.9291327 58.3271561,18.054127 58.402314,18.2226676 C57.2745586,18.2226676 56.1981351,18.2281512 55.1220991,18.2150873 C55.0027763,18.2136358 54.8635018,18.1257366 54.7703293,18.0473531 C54.1004945,17.4841532 53.4337589,16.9180502 52.7807765,16.3414639 C52.5696371,16.1548596 52.3844543,16.1008298 52.0658082,16.1788907 C48.8888386,16.9570807 45.6839753,17.6612418 42.5318,18.5031386 C40.7460257,18.9800521 39.0530366,19.6938902 37.2999986,20.2619286 C36.4564096,20.5351418 35.7908363,20.937704 35.172721,21.5012264 C33.2128052,23.2882409 30.6680914,24.2267461 27.8787272,24.7470448 C27.236786,24.8667167 26.5752805,24.9126823 25.9271407,25.0123551 C25.7967767,25.0323542 25.6065575,25.1242855 25.5788576,25.2125072 C25.335563,25.9866651 25.122874,26.7674357 24.8850032,27.6033649 L33.6155196,27.6033649 L33.6155196,28.6428332 C33.4489326,28.6504135 33.27944,28.6650903 33.1099474,28.6652515 C25.8947918,28.6663805 18.6796363,28.6713803 11.4646745,28.6520263 C11.0625411,28.6510586 10.5974534,28.5194518 10.2712527,28.3228479 C9.28219066,27.7269076 8.59279154,26.8938814 7.83811355,26.0313405 C8.37816546,25.9524732 8.84577138,25.870864 9.31841366,25.8260274 C9.41720364,25.816673 9.55124809,25.9297323 9.64054649,26.0087609 C10.1352712,26.4471278 10.5856373,26.9262993 11.1260767,27.3204747 C11.3773131,27.5036921 11.7943618,27.5980426 12.1416764,27.6088485 C13.270013,27.6441695 14.4010615,27.6290089 15.5305603,27.6144934 C15.6952103,27.6123968 15.9419915,27.5467546 16.0084326,27.4456302 C16.570567,26.590347 17.0995777,25.7202258 17.6483464,24.8388147 C16.6195746,24.6435011 15.6278006,24.4896373 14.6600462,24.2641638 C12.8293322,23.8378931 11.0931467,23.2482428 9.72771412,22.0810384 C7.64653846,20.3017655 7.74842774,17.5878581 9.96016114,15.9155157 C11.6409468,14.6447678 13.6725338,13.9456064 15.8255743,13.4874017 C17.4895076,13.133547 19.1865645,12.888397 20.8658005,12.583411 C21.0046876,12.5582509 21.1449307,12.4629327 21.2425584,12.3697112 C21.4862404,12.1374638 21.7033846,11.8860238 21.935638,11.6452284 C22.5822281,10.9742915 22.5831966,10.9749367 23.5631545,10.8552648 L23.5631545,8.81745532 L0,8.81745532 C0.180727559,8.45585906 0.322713947,8.15313106 0.487557626,7.85927361 C0.517775739,7.80556641 0.636904837,7.76911647 0.721360588,7.75766539 C0.847075686,7.74040812 0.978795664,7.75218177 1.10780376,7.75218177 L22.8985497,7.75218177 L23.6013146,7.75218177 Z" id="Fill-1" fill="#9E2F50" style="mix-blend-mode: multiply;" transform="translate(29.879999, 17.714286) scale(-1, 1) translate(-29.879999, -17.714286) "></path>
            </g>
        </g>
    </g>
</svg>