<?xml version="1.0" encoding="UTF-8" standalone="no"?>
<svg width="46px" height="46px" viewBox="0 0 46 46" version="1.1" xmlns="http://www.w3.org/2000/svg" xmlns:xlink="http://www.w3.org/1999/xlink">
    <!-- Generator: Sketch 3.6.1 (26313) - http://www.bohemiancoding.com/sketch -->
    <title>Page 1</title>
    <desc>Created with Sketch.</desc>
    <defs>
        <path id="path-1" d="M0,17.143 C0,26.61 7.675,34.286 17.143,34.286 C26.611,34.286 34.285,26.61 34.285,17.143 C34.285,7.675 26.611,0 17.143,0 C7.675,0 0,7.675 0,17.143 L0,17.143 Z"></path>
        <path d="M28.988,0.013 C27.686,0.021 26.567,0.454 25.61,1.415 C17.531,9.534 9.429,17.631 1.333,25.732 C0.458,26.608 0.013,27.435 0,28.26 L0,28.335 C0.014,29.154 0.452,29.972 1.316,30.837 C4.596,34.12 7.878,37.401 11.16,40.682 C12.922,42.441 14.512,42.439 16.277,40.677 C24.381,32.583 32.479,24.482 40.598,16.404 C41.459,15.547 41.905,14.552 41.937,13.384 C41.982,11.683 41.949,9.979 41.949,8.276 L41.992,8.276 C41.992,6.573 42.014,4.87 41.985,3.167 C41.955,1.352 40.578,0.013 38.762,0.009 C37.035,0.004 35.307,0 33.579,0 C32.049,0 30.518,0.003 28.988,0.013 L28.988,0.013 Z M30.997,8.445 C31.04,7.073 32.201,5.952 33.544,5.987 C34.919,6.022 36.015,7.163 35.996,8.536 C35.976,9.899 34.86,10.986 33.489,10.986 L33.456,10.986 C32.096,10.969 30.955,9.79 30.997,8.445 L30.997,8.445 Z" id="path-3"></path>
        <path id="path-5" d="M29.09,0.007 L29.09,0.807 C29.09,3.679 29.097,6.551 29.087,9.423 C29.082,11.068 28.593,12.452 27.394,13.665 C21.803,19.32 16.275,25.04 10.727,30.74 C8.498,33.03 6.255,35.308 4.053,37.626 C2.907,38.835 1.665,39.425 0,38.726 C0.648,39.376 1.3,40.021 1.942,40.678 C2.787,41.543 3.589,41.984 4.39,42 L4.477,42 C5.277,41.984 6.078,41.544 6.919,40.678 C14.776,32.595 22.622,24.5 30.504,16.441 C31.463,15.46 31.943,14.329 31.962,13.013 C32.009,9.622 32.013,6.229 31.971,2.838 C31.952,1.33 30.615,0 29.254,0 C29.2,0 29.145,0.002 29.09,0.007 L29.09,0.007 Z"></path>
    </defs>
    <g id="Page-1" stroke="none" stroke-width="1" fill="none" fill-rule="evenodd">
        <g id="Large-Desktop-Copy-3" transform="translate(-216.000000, -1923.000000)">
            <g id="fact-5-copy" transform="translate(180.000000, 1825.000000)">
                <g id="Page-1" transform="translate(36.000000, 98.000000)">
                    <g id="Group-3" transform="translate(6.000000, 5.000000)">
                        <mask id="mask-2" fill="white">
                            <use xlink:href="#path-1"></use>
                        </mask>
                        <g id="Clip-2"></g>
                        <path d="M-5,39.286 L39.286,39.286 L39.286,-5 L-5,-5 L-5,39.286 Z" id="Fill-1" fill="#E9DDCD" mask="url(#mask-2)"></path>
                    </g>
                    <g id="Group-6">
                        <mask id="mask-4" fill="white">
                            <use xlink:href="#path-3"></use>
                        </mask>
                        <g id="Clip-5"></g>
                        <path d="M-5,47 L47,47 L47,-5 L-5,-5 L-5,47 Z" id="Fill-4" fill="#9F3050" mask="url(#mask-4)"></path>
                    </g>
                    <g id="Group-9" transform="translate(14.000000, 4.000000)">
                        <mask id="mask-6" fill="white">
                            <use xlink:href="#path-5"></use>
                        </mask>
                        <g id="Clip-8"></g>
                        <path d="M-5,47 L37,47 L37,-5 L-5,-5 L-5,47 Z" id="Fill-7" fill="#9F3050" mask="url(#mask-6)"></path>
                    </g>
                    <path d="M14.377,34.7754 L8.547,29.1464 L12.297,25.2624 L13.36,26.2894 L10.774,28.9664 L12.257,30.3974 L14.649,27.9204 L15.703,28.9374 L13.31,31.4154 L15.541,33.5704 L14.377,34.7754 Z" id="Fill-10" fill="#FEFEFE"></path>
                    <g id="Group-17" transform="translate(13.000000, 10.000000)" fill="#FEFEFE">
                        <path d="M3.9551,15.7598 L5.0361,14.6398 C5.6241,14.0308 5.6031,13.4058 5.1201,12.9388 C4.6261,12.4618 4.0001,12.4648 3.4131,13.0718 L2.3311,14.1928 L3.9551,15.7598 Z M4.9521,16.7228 L7.1261,18.8228 L5.9621,20.0278 L0.1321,14.3988 L2.4511,11.9958 C3.6341,10.7708 5.0781,10.5878 6.2741,11.7428 C7.2041,12.6408 7.2981,13.7218 6.7091,14.7318 L10.4541,15.3758 L9.1341,16.7418 L5.5651,16.0858 L4.9521,16.7228 Z" id="Fill-11"></path>
                        <path d="M9.1172,5.0933 L10.1802,6.1203 L7.5132,8.8833 L8.7842,10.1123 L11.2062,7.6053 L12.2402,8.6043 L9.8192,11.1113 L11.2062,12.4503 L13.8742,9.6873 L14.9472,10.7233 L11.1242,14.6823 L5.2942,9.0523 L9.1172,5.0933 Z" id="Fill-13"></path>
                        <path d="M13.8486,0.1938 L14.9116,1.2208 L12.2446,3.9838 L13.5166,5.2118 L15.9366,2.7058 L16.9716,3.7048 L14.5506,6.2118 L15.9376,7.5498 L18.6056,4.7878 L19.6786,5.8238 L15.8546,9.7828 L10.0246,4.1528 L13.8486,0.1938 Z" id="Fill-15"></path>
                    </g>
                </g>
            </g>
        </g>
    </g>
</svg>