<?xml version="1.0" encoding="UTF-8" standalone="no"?>
<svg width="39px" height="38px" viewBox="0 0 39 38" version="1.1" xmlns="http://www.w3.org/2000/svg" xmlns:xlink="http://www.w3.org/1999/xlink">
    <!-- Generator: Sketch 3.6 (26304) - http://www.bohemiancoding.com/sketch -->
    <title>label icon</title>
    <desc>Created with Sketch.</desc>
    <defs></defs>
    <g id="Page-1" stroke="none" stroke-width="1" fill="none" fill-rule="evenodd">
        <g id="Large-Desktop-Copy-3" transform="translate(-214.000000, -1041.000000)">
            <g id="fact-5" transform="translate(180.000000, 1021.000000)">
                <g id="airplane-icon" transform="translate(34.000000, 20.000000)">
                    <g id="label-icon">
                        <ellipse id="Oval-1" fill="#EADECE" cx="21.5" cy="18.4904989" rx="17.5" ry="17.5"></ellipse>
                        <path d="M30.0112847,7.54575281 C30.0307893,6.16838869 28.9310019,5.02467904 27.5527186,4.9892544 C26.2049266,4.95469378 25.0409469,6.07803735 24.997617,7.45515461 C24.9552748,8.80301878 26.1001203,9.98548569 27.4643307,10.0028894 C28.8540946,10.02054 29.9917801,8.92311693 30.0112847,7.54575281 M34.9569332,6.89700061 C34.9569332,8.31571404 34.9849556,9.73516806 34.9471809,11.1527706 C34.9213805,12.1266395 34.5488181,12.9557241 33.8310985,13.6697712 C27.0652272,20.4021799 20.3175026,27.1528563 13.5639759,33.8977315 C12.0934779,35.3661876 10.7684001,35.3675453 9.30061783,33.9010642 C6.56491365,31.1676894 3.83019706,28.4334507 1.09646803,25.6979777 C-0.37106733,24.2293982 -0.364648097,22.9206616 1.11078786,21.4440591 C7.85703114,14.6919015 14.6087061,7.94529826 21.3412468,1.17943981 C22.1384661,0.378250593 23.0717238,0.0179561339 24.1559569,0.01104401 C26.8714158,-0.00623629984 29.5869981,0.000182100942 32.302457,0.00734108643 C33.8146801,0.0112908715 34.9624883,1.12673487 34.9879183,2.63913227 C35.0117436,4.05809257 34.9929797,5.47767002 34.9929797,6.89700061 L34.9569332,6.89700061" id="Fill-4" fill="#9E2F50" style="mix-blend-mode: multiply;"></path>
                        <path d="M11.4369231,35.2275443 C12.8414003,35.8100698 13.8894322,35.3188115 14.8572395,34.3116516 C16.7145775,32.3790635 18.6064888,30.480902 20.4878089,28.5723382 C25.1691967,23.8228476 29.833663,19.0558962 34.5504761,14.3431851 C35.5623522,13.3321862 35.9747964,12.1796425 35.9794224,10.8088994 C35.9875788,8.41564061 35.9817354,6.022258 35.9817354,3.62887539 L35.9817354,2.96139817 C37.1758515,2.86653963 38.3952887,4.01400603 38.4119667,5.32084966 C38.4477573,8.14691601 38.4449573,10.9740969 38.4041755,13.8000394 C38.3883497,14.8971045 37.983575,15.8393743 37.1741471,16.6568172 C30.5246409,23.3725792 23.9042298,30.1184334 17.2745667,36.8546283 C15.8280903,38.3244404 14.5262373,38.3215922 13.0755001,36.8545045 C12.5342584,36.3071484 11.9833995,35.7695754 11.4369231,35.2275443" id="Fill-7" fill="#9E2F50" style="mix-blend-mode: multiply;"></path>
                        <text id="FREE" transform="translate(17.154878, 20.478576) rotate(-46.000000) translate(-17.154878, -20.478576) " font-family="Metric-Semibold, Metric" font-size="11" font-weight="500" fill="#FFFFFF">
                            <tspan x="5.63237794" y="21.9785762">FREE</tspan>
                        </text>
                    </g>
                </g>
            </g>
        </g>
    </g>
</svg>