<?xml version="1.0" encoding="UTF-8" standalone="no"?>
<svg width="32px" height="32px" viewBox="0 0 32 32" version="1.1" xmlns="http://www.w3.org/2000/svg" xmlns:xlink="http://www.w3.org/1999/xlink" xmlns:sketch="http://www.bohemiancoding.com/sketch/ns">
    <!-- Generator: Sketch 3.5.2 (25235) - http://www.bohemiancoding.com/sketch -->
    <title>linked in</title>
    <desc>Created with Sketch.</desc>
    <defs></defs>
    <g id="Page-1" stroke="none" stroke-width="1" fill="none" fill-rule="evenodd" sketch:type="MSPage">
        <g id="Large-Desktop" sketch:type="MSArtboardGroup" transform="translate(-518.000000, -2243.000000)">
            <g id="d---card-share-icons" sketch:type="MSLayerGroup" transform="translate(430.000000, 2244.000000)">
                <g id="linked-in" transform="translate(89.000000, 0.044691)" sketch:type="MSShapeGroup">
                    <g id="Page-1" transform="translate(8.000000, 7.955309)" fill="#75736B">
                        <path d="M14.2700005,14.2702194 L14.2700005,8.24893639 C14.2700005,7.01609989 13.9548327,6.07717162 13.3242779,5.43280908 C12.6939423,4.78822736 11.8532026,4.46604609 10.802278,4.46604609 C10.4239889,4.46604609 10.0684937,4.52040048 9.73579221,4.62889009 C9.40309073,4.73759888 9.13153794,4.86888227 8.92135302,5.02295943 C8.7111681,5.17725577 8.52728368,5.33133293 8.36969978,5.4854101 C8.21189671,5.63948726 8.10165373,5.76901729 8.0385325,5.87421933 L7.93354963,6.04232344 L7.93354963,4.76039265 L5.10690211,4.76039265 L5.10690211,14.2702194 L7.93354963,14.2702194 L7.93354963,9.2788206 C7.93354963,8.59917154 8.08762679,8.07381881 8.3960003,7.70254325 C8.70415463,7.33126769 9.14907162,7.14562991 9.7305321,7.14562991 C10.802278,7.14562991 11.3381509,7.85662042 11.3381509,9.2788206 L11.3381509,14.2700002 L14.2700005,14.2700002 L14.2700005,14.2702194 Z M3.22597717,4.76039265 L0.283607399,4.76039265 L0.283607399,14.2702194 L3.22597717,14.2702194 L3.22597717,4.76039265 Z M0.50957263,2.99475162 C0.849287575,3.3379733 1.25913722,3.50980331 1.73890239,3.50980331 C2.21888673,3.50980331 2.62873638,3.33819247 2.96845132,2.99475162 C3.30816627,2.65152994 3.47802374,2.2364202 3.47802374,1.74964155 C3.47802374,1.26264374 3.30816627,0.849506534 2.96845132,0.509572418 C2.62873638,0.169638302 2.21888673,0 1.73890239,0 C1.25913722,0 0.849287575,0.169857473 0.50957263,0.509572418 C0.169857685,0.849287364 2.11827577e-07,1.26264374 2.11827577e-07,1.74964155 C-0.000218959105,2.2364202 0.169638514,2.65152994 0.50957263,2.99475162 L0.50957263,2.99475162 Z" id="Fill-1"></path>
                    </g>
                    <ellipse id="twitter-icon" stroke="#A7A59A" opacity="0.6" cx="15.0196097" cy="15.0196097" rx="15.0196097" ry="15.0196097"></ellipse>
                </g>
            </g>
        </g>
    </g>
</svg>