<?xml version="1.0" encoding="UTF-8" standalone="no"?>
<svg width="44px" height="45px" viewBox="0 0 44 45" version="1.1" xmlns="http://www.w3.org/2000/svg" xmlns:xlink="http://www.w3.org/1999/xlink">
    <!-- Generator: Sketch 3.6.1 (26313) - http://www.bohemiancoding.com/sketch -->
    <title>Page 1</title>
    <desc>Created with Sketch.</desc>
    <defs>
        <path id="path-1" d="M0.006,19.417 C0.006,30.025 8.725,38.624 19.48,38.624 C30.236,38.624 38.956,30.025 38.956,19.417 C38.956,8.809 30.236,0.21 19.48,0.21 C8.725,0.21 0.006,8.809 0.006,19.417 L0.006,19.417 Z"></path>
        <path d="M38.388,2.973 C38.343,3.174 38.316,3.378 38.308,3.583 C36.006,6.21 29.315,10.654 26.82,12.691 C26.624,12.852 26.482,12.879 26.247,12.746 C24.545,11.791 22.549,12.022 21.089,13.339 C20.891,13.518 20.749,13.527 20.518,13.41 C18.982,12.638 17.435,11.891 15.903,11.113 C15.741,11.03 15.59,10.815 15.542,10.632 C15.163,9.193 13.922,8.301 12.497,8.492 C10.928,8.703 9.992,10.179 10.102,11.37 C10.115,11.506 9.994,11.701 9.878,11.796 C6.931,14.212 7.976,13.617 5.026,16.029 C4.768,16.24 4.544,16.389 4.173,16.264 C3.896,16.172 3.565,16.198 3.265,16.232 C1.843,16.395 0.775,17.775 0.9,19.265 C1.022,20.727 2.353,21.897 3.771,21.787 C5.294,21.669 6.314,20.574 6.401,18.989 C6.412,18.793 6.484,18.534 6.621,18.422 C9.633,15.948 8.658,16.488 11.687,14.034 C11.778,13.96 11.952,13.931 12.068,13.96 C12.793,14.143 13.477,14.068 14.149,13.73 C14.29,13.659 14.522,13.66 14.664,13.728 C16.211,14.476 17.747,15.249 19.293,16.001 C19.508,16.105 19.59,16.206 19.57,16.463 C19.385,18.907 21.106,21.016 23.51,21.312 C26.691,21.704 29.274,18.705 28.429,15.585 C28.334,15.238 28.41,15.051 28.673,14.84 C30.942,13.014 37.212,8.19 39.459,6.336 C39.978,5.907 40.44,5.683 41.165,5.789 C42.52,5.987 43.829,4.801 44.006,3.412 L44.006,2.723 C43.842,1.339 42.728,0.241 41.39,0.24 C39.94,0.238 38.71,1.522 38.388,2.973 L38.388,2.973 Z M23.835,18.468 C22.919,18.34 22.261,17.459 22.388,16.531 C22.513,15.615 23.409,14.919 24.302,15.045 C25.201,15.172 25.88,16.083 25.753,16.992 C25.635,17.841 24.88,18.483 24.055,18.483 C23.982,18.483 23.909,18.477 23.835,18.468 L23.835,18.468 Z" id="path-3"></path>
    </defs>
    <g id="Page-1" stroke="none" stroke-width="1" fill="none" fill-rule="evenodd">
        <g id="Large-Desktop-Copy-3" transform="translate(-218.000000, -1682.000000)">
            <g id="fact-8" transform="translate(180.000000, 1559.000000)">
                <g id="Page-1" transform="translate(38.000000, 123.000000)">
                    <g id="Group-3" transform="translate(4.000000, 5.790000)">
                        <mask id="mask-2" fill="white">
                            <use xlink:href="#path-1"></use>
                        </mask>
                        <g id="Clip-2"></g>
                        <path d="M-4.994,43.625 L43.956,43.625 L43.956,-4.79 L-4.994,-4.79 L-4.994,43.625 Z" id="Fill-1" fill="#E9DDCD" mask="url(#mask-2)"></path>
                    </g>
                    <g id="Group-6" transform="translate(0.000000, 17.790000)">
                        <mask id="mask-4" fill="white">
                            <use xlink:href="#path-3"></use>
                        </mask>
                        <g id="Clip-5"></g>
                        <path d="M-0.6082,-9.9727 L49.9258,-3.7677 L45.5338,32.0003 L-5.0002,25.7953 L-0.6082,-9.9727 Z" id="Fill-4" fill="#9F3050" mask="url(#mask-4)"></path>
                    </g>
                    <path d="M21.7414,23.8017 C19.6954,23.6037 17.9464,22.9767 16.7904,22.2177 L16.7904,18.2247 C18.5074,19.5117 20.7184,20.3687 22.9624,20.3687 C24.9434,20.3687 26.4284,19.8087 26.4284,18.2897 C26.4284,17.0357 25.6024,16.5407 24.1504,15.9797 L21.3124,15.0557 C18.4084,14.0987 16.5264,12.6137 16.5264,9.4457 C16.5264,6.3747 18.7384,4.4937 21.7414,3.9987 L21.7414,0.9627 L25.2734,0.9627 L25.2734,3.9987 C26.7914,4.1977 28.1444,4.6927 29.2654,5.3857 L29.2654,9.3457 C27.6164,8.1247 25.8014,7.3327 23.5564,7.3327 C21.8074,7.3327 20.5204,7.9267 20.5204,9.2467 C20.5204,10.4347 21.2794,10.8977 22.6324,11.3597 L25.6694,12.3827 C28.9034,13.5047 30.3884,15.2867 30.3884,18.1247 C30.3884,21.2277 28.2434,23.0757 25.2734,23.6697 L25.2734,26.9377 L21.7414,26.9377 L21.7414,23.8017 Z" id="Fill-7" fill="#B04563"></path>
                </g>
            </g>
        </g>
    </g>
</svg>