<?xml version="1.0" encoding="UTF-8" standalone="no"?>
<svg width="44px" height="45px" viewBox="0 0 44 45" version="1.1" xmlns="http://www.w3.org/2000/svg" xmlns:xlink="http://www.w3.org/1999/xlink">
    <!-- Generator: Sketch 3.6 (26304) - http://www.bohemiancoding.com/sketch -->
    <title>market rate</title>
    <desc>Created with Sketch.</desc>
    <defs>
        <path d="M24.726885,23.3762819 C25.6434277,23.3915885 26.4360944,22.6105997 26.451338,21.6772576 C26.4664063,20.7599339 25.6812739,19.938721 24.7733166,19.9223465 C23.8720174,19.9059721 23.0676115,20.7056491 23.0549961,21.6302701 C23.0422055,22.5669939 23.8022824,23.3607974 24.726885,23.3762819 M20.2498251,21.9068554 C20.2377354,21.6489583 20.1441713,21.5590769 19.9177952,21.4814764 C18.2921627,20.9236781 16.6738892,20.34381 15.046855,19.7901053 C14.8973978,19.7393802 14.6668166,19.7667895 14.5361072,19.8541791 C13.9100687,20.2722609 13.2400516,20.4294197 12.4992482,20.3365127 C12.3804533,20.3215621 12.2108465,20.3721092 12.1293721,20.4566511 C9.42197043,23.261127 10.3242265,22.6056486 7.63574786,25.4289908 C7.51362393,25.5573164 7.47332479,25.8230448 7.48646581,26.018292 C7.59317094,27.6014496 6.715,28.8129789 5.21692308,29.1157278 C3.82309829,29.3974746 2.35936325,28.3991688 2.05992308,26.9626691 C1.75487607,25.499116 2.64601282,23.9992544 4.03773504,23.6642907 C4.33156838,23.5936315 4.65694017,23.5272439 4.94271368,23.5856223 C5.3260812,23.6639347 5.53073077,23.4887996 5.76113675,23.2479888 C8.39494872,20.4945939 7.4304918,21.2125443 10.0606243,18.4555898 C10.1643508,18.3468423 10.2603679,18.1386023 10.2314576,18.0054711 C9.977573,16.8359458 10.7267867,15.2572378 12.2578038,14.8571323 C13.6482995,14.4940473 14.9888593,15.2275146 15.5407824,16.6095516 C15.6110431,16.7855766 15.7871328,16.9808238 15.9581414,17.0429398 C17.5734362,17.6288594 19.2002952,18.1818522 20.8182183,18.7608304 C21.0615901,18.847864 21.2015858,18.8222345 21.3769747,18.6202239 C22.6654961,17.1353129 24.6187781,16.6633024 26.4238294,17.4038891 C26.672808,17.5060512 26.8108764,17.4619115 26.9857397,17.2793011 C29.2141072,14.9528871 35.3136298,9.72674288 37.2782222,6.838147 C37.2613348,6.6345076 37.263507,6.42876491 37.2832968,6.22407943 C37.4263365,4.7446276 38.4897789,3.32040717 39.9293803,3.14482465 C41.4017009,2.96506196 42.7652137,4.15630125 42.9036325,5.74319644 C43.032765,7.22365788 41.8269444,8.71319644 40.3826581,8.68009163 C39.6507906,8.66336124 39.2194145,8.9420824 38.7561496,9.43082334 C36.7520556,11.5447258 31.1169277,17.0979365 29.0867268,19.1862094 C28.8517653,19.4277322 28.7995516,19.6228014 28.9348166,19.9549174 C30.154479,22.9489451 27.9555474,26.2402042 24.7514149,26.2394922 C22.3296115,26.2387803 20.3635388,24.3546537 20.2498251,21.9068554 Z" id="path-1"></path>
    </defs>
    <g id="Page-1" stroke="none" stroke-width="1" fill="none" fill-rule="evenodd">
        <g id="Large-Desktop-Copy-3" transform="translate(-215.000000, -1571.000000)">
            <g id="fact-8" transform="translate(180.000000, 1559.000000)">
                <g id="market-rate" style="mix-blend-mode: multiply;" transform="translate(35.000000, 15.000000)">
                    <ellipse id="Oval-1-Copy-6" fill="#EADECE" style="mix-blend-mode: multiply;" cx="23.4747632" cy="22.2073171" rx="19.4747632" ry="19.2073171"></ellipse>
                    <g id="Group-3" style="mix-blend-mode: multiply;" transform="translate(0.000000, 9.658537)">
                        <g id="Fill-1">
                            <use fill="#9E2F50" fill-rule="evenodd" style="mix-blend-mode: multiply;" transform="translate(22.456590, 16.145144) rotate(7.000000) translate(-22.456590, -16.145144) " xlink:href="#path-1"></use>
                            <use fill="none" style="mix-blend-mode: multiply;" xlink:href="#path-1"></use>
                        </g>
                    </g>
                    <text id="$" style="mix-blend-mode: multiply;" font-family="Metric-Semibold, Metric" font-size="33" font-weight="500" fill="#9E2F50">
                        <tspan x="15.5635" y="21">$</tspan>
                    </text>
                </g>
            </g>
        </g>
    </g>
</svg>