<?xml version="1.0" encoding="UTF-8" standalone="no"?>
<svg width="35px" height="57px" viewBox="0 0 35 57" version="1.1" xmlns="http://www.w3.org/2000/svg" xmlns:xlink="http://www.w3.org/1999/xlink">
    <!-- Generator: Sketch 3.6 (26304) - http://www.bohemiancoding.com/sketch -->
    <title>ralph Lauren</title>
    <desc>Created with Sketch.</desc>
    <defs></defs>
    <g id="Page-1" stroke="none" stroke-width="1" fill="none" fill-rule="evenodd">
        <g id="Large-Desktop-Copy-3" transform="translate(-214.000000, -599.000000)">
            <g id="fact-2" transform="translate(180.000000, 579.000000)">
                <g id="ralph-Lauren" transform="translate(34.000000, 20.000000)">
                    <ellipse id="Oval-1" fill="#EADECE" cx="17.1428571" cy="33.1428571" rx="17.1428571" ry="17.1428571"></ellipse>
                    <g id="horse" style="mix-blend-mode: multiply;" transform="translate(5.000000, 0.000000)">
                        <path d="M2.96783333,24.42 L2.96783333,24.7166667 L3.3395,25.2366667 L3.3395,25.6066667 L2.89283333,25.905 L2.52283333,26.275 L2.52283333,26.4233333 C2.52283333,26.4983333 2.52283333,26.5716667 2.44783333,26.6466667 L2.22616667,26.6466667 L2.07783333,26.6466667 C2.59616667,25.9783333 2.8195,25.0883333 2.7445,23.975 L2.96783333,24.0483333 L2.96783333,24.42 Z M2.7445,22.64 L2.7445,22.8616667 L2.44783333,22.8616667 L2.52283333,22.565 C2.67116667,22.565 2.7445,22.565 2.7445,22.64 L2.7445,22.64 Z M2.3745,23.455 L2.3745,23.2333333 C2.44783333,23.2333333 2.52283333,23.2333333 2.52283333,23.3066667 C2.52283333,23.3816667 2.44783333,23.455 2.3745,23.455 L2.3745,23.455 Z M3.3395,23.53 L3.48783333,23.6033333 L3.7095,24.94 L4.08116667,24.94 L4.08116667,25.2366667 L3.56116667,25.31 L3.48783333,25.1616667 L3.3395,24.94 L3.11616667,23.455 C3.1895,23.455 3.2645,23.53 3.3395,23.53 L3.3395,23.53 Z M4.08116667,23.6033333 C4.00616667,23.6783333 4.00616667,23.6033333 4.00616667,23.3816667 L4.1545,23.01 L4.2295,23.01 L4.2295,23.3066667 C4.2295,23.455 4.1545,23.53 4.08116667,23.6033333 L4.08116667,23.6033333 Z M5.6395,25.5333333 L5.49116667,25.755 C5.26783333,25.83 5.1945,25.83 5.1945,25.6816667 L5.34283333,25.385 C5.5645,25.31 5.6395,25.385 5.6395,25.5333333 L5.6395,25.5333333 Z M4.5995,24.94 L4.89783333,24.5683333 C5.26783333,24.42 5.1945,24.5683333 4.82283333,25.2366667 C4.5995,25.2366667 4.52616667,25.1616667 4.5995,24.94 L4.5995,24.94 Z M5.26783333,21.675 L5.26783333,22.1933333 L5.1195,22.49 L4.82283333,22.49 L4.5995,22.1933333 C4.52616667,22.2683333 4.45116667,22.1933333 4.52616667,22.12 L4.45116667,21.8233333 L4.82283333,21.4516667 L5.26783333,21.675 Z M4.82283333,19.82 C5.04616667,20.0416667 4.97116667,20.19 4.7495,20.19 L4.08116667,20.0416667 L4.1545,19.745 L4.82283333,19.82 Z M4.7495,14.625 L4.89783333,14.4016667 C5.04616667,14.4016667 5.1195,14.4766667 5.04616667,14.7733333 L4.89783333,15.2183333 L4.7495,15.2183333 L4.52616667,14.9216667 L4.7495,14.625 Z" id="Fill-1" fill="#D6CB6F"></path>
                        <path d="M23.8936667,30.208 L24.042,30.3563333 L24.6353333,30.8013333 L24.932,30.9496667 L25.007,30.9496667 L25.1553333,31.098 L25.2286667,31.098 L25.3036667,31.3963333 L25.1553333,31.3963333 L25.0803333,31.3213333 L24.932,31.2463333 L24.3386667,30.8763333 L23.7453333,30.8763333 L23.522,30.5796667 L23.522,30.208 L23.8936667,30.208 Z M25.7486667,30.8013333 L25.452,30.8013333 C24.6353333,30.208 24.042,29.9113333 23.4486667,29.9846667 C23.152,29.9846667 23.0036667,30.0596667 22.9286667,30.133 L22.9286667,30.283 L22.8553333,30.5046667 L23.0036667,30.5046667 L23.0036667,30.8763333 L22.707,30.8763333 C22.5586667,30.728 22.5586667,30.653 22.707,30.728 L22.707,30.5046667 L22.3353333,30.4313333 C22.262,30.3563333 22.187,30.4313333 22.1136667,30.728 L22.707,31.2463333 L23.0036667,31.2463333 L23.077,31.098 L23.3003333,30.9496667 L23.4486667,31.173 L23.8203333,31.2463333 L23.8203333,31.4696667 L24.7103333,31.693 L25.0803333,32.063 C25.452,32.063 25.6753333,31.9896667 25.7486667,31.693 L25.7486667,30.8013333 Z" id="Fill-3" fill="#9E2F50"></path>
                        <path d="M21.445,41.3391667 C21.965,41.3391667 21.89,41.5608333 21.2966667,42.0075 L20.925,42.0075 C21,41.9325 20.925,41.8591667 20.7766667,41.8591667 L20.925,41.4875 L21.3716667,41.4875 L21.445,41.3391667 Z" id="Fill-6" fill="#D6CB6F"></path>
                        <g id="Group-10" transform="translate(6.666667, 0.000000)" fill="#9E2F50">
                            <path d="M6.69016667,6.98183333 L6.17016667,7.13016667 L5.20516667,8.1685 L1.49516667,11.2851667 L0.7535,11.9535 L0.901833333,12.1768333 L1.34683333,12.1768333 L1.49516667,11.9535 L1.7185,11.9535 L2.0885,11.4335 L2.31183333,11.4335 L2.5335,11.0635 L3.35016667,10.5435 L4.83516667,9.06016667 L5.4285,8.7635 L6.02183333,8.02016667 L6.46683333,7.7985 L6.91183333,7.2035 L7.21016667,7.2035 L7.43183333,6.7585 L8.32183333,6.09183333 L8.7685,5.57183333 L8.91516667,5.4985 C8.91516667,5.4985 8.99016667,5.4985 9.06516667,5.4235 L9.06516667,5.27516667 L9.2135,5.27516667 L9.2135,4.9785 L9.80683333,4.68183333 L9.80683333,4.38516667 C9.95516667,4.08683333 10.3268333,3.71683333 10.9201667,3.27183333 L11.2168333,2.90016667 C11.5135,2.82683333 11.8101667,2.97516667 12.0318333,3.34516667 L12.5518333,4.08683333 L12.9235,4.08683333 L13.0718333,3.86516667 L11.1418333,0.2285 L10.8451667,0.2285 L10.4751667,0.451833333 L10.4751667,0.896833333 L10.7718333,1.12016667 C11.0685,1.56516667 11.1418333,2.08516667 10.8451667,2.6035 L10.6235,2.6035 L10.6235,2.75183333 L10.2518333,3.0485 L10.2518333,3.27183333 L10.1768333,3.4935 L10.0301667,3.4935 L9.88016667,3.5685 L9.88016667,3.71683333 L8.91516667,4.38516667 L8.91516667,4.68183333 L8.7685,4.68183333 L8.7685,4.9035 L8.10016667,5.4985 L7.7285,5.9435 L7.43183333,5.9435 L7.06183333,6.46183333 C6.91183333,6.68516667 6.7635,6.8335 6.69016667,6.98183333" id="Fill-8"></path>
                        </g>
                        <g id="Group-13" transform="translate(0.000000, 11.666667)" fill="#9E2F50">
                            <path d="M3.56133333,3.923 C3.11633333,4.21966667 2.81966667,4.51633333 2.74466667,4.66466667 L2.74466667,5.258 L2.968,5.92633333 L2.74466667,6.298 L2.448,6.14966667 L2.523,5.333 L2.37466667,5.10966667 C2.15133333,5.18466667 2.078,5.258 2.15133333,5.333 L2.22633333,5.62966667 L2.078,6.00133333 L2.003,6.51966667 C2.003,6.743 2.15133333,6.96633333 2.448,7.188 L3.11633333,7.55966667 L3.18966667,7.85633333 L3.933,7.55966667 L3.933,8.078 L2.74466667,9.043 C2.37466667,9.41466667 2.078,9.85966667 2.003,10.3796667 L2.003,11.343 L1.33633333,11.863 L1.33633333,12.0113333 L1.03966667,12.0113333 L1.03966667,12.308 L0.296333333,12.9763333 L0.296333333,13.4963333 L-0.000333333333,14.3863333 L0.148,14.4596667 L1.33633333,13.8663333 L1.33633333,14.0146667 C1.33633333,14.0896667 1.33633333,14.163 1.188,14.238 L0.519666667,14.3863333 L0.519666667,14.608 L1.03966667,15.053 L1.33633333,15.053 L1.40966667,14.7563333 L1.70633333,14.7563333 L1.633,15.053 L1.48466667,15.2763333 L2.078,15.2763333 L2.22633333,15.573 L2.81966667,15.573 L2.968,15.648 L3.413,16.8346667 L3.56133333,18.0963333 L4.15466667,19.2096667 L4.303,20.3963333 L4.59966667,20.6196667 L4.898,21.9546667 L5.11966667,21.9546667 C5.268,21.5096667 5.343,21.213 5.268,21.138 L5.11966667,21.0646667 L4.97133333,20.248 L4.59966667,19.803 L4.45133333,18.7646667 L4.15466667,18.4663333 L3.858,16.7613333 L3.70966667,16.613 L3.70966667,16.093 L3.48633333,16.093 L3.338,14.608 L3.78466667,14.0896667 L3.78466667,14.0146667 C4.15466667,13.718 4.52633333,13.793 4.74966667,14.238 L4.97133333,15.4246667 C5.04633333,15.4996667 4.97133333,15.573 4.97133333,15.573 L4.898,15.7963333 L5.11966667,15.9446667 L5.11966667,16.3896667 L5.268,16.613 L5.49133333,18.0963333 L5.86133333,18.913 L5.86133333,19.283 L6.308,19.7296667 L6.52966667,20.1746667 L6.233,20.248 L5.788,19.5796667 L5.49133333,19.5796667 L5.268,20.9163333 L5.343,20.9896667 L5.41633333,21.0646667 L5.56466667,21.138 L5.86133333,22.178 L6.15966667,22.3263333 L6.60466667,23.7363333 L6.90133333,24.033 L7.04966667,25.0713333 L7.27133333,25.2196667 L7.27133333,26.408 L7.27133333,26.6296667 L7.41966667,26.7046667 L7.41966667,27.0746667 L8.01466667,27.5946667 L8.533,29.0046667 L9.053,29.4496667 L9.943,30.7846667 L10.3146667,31.083 L10.6846667,31.083 L11.278,31.453 L11.798,31.528 L12.0213333,31.8246667 L12.4663333,31.8246667 L12.6146667,31.2313333 L12.763,31.2313333 L12.9863333,31.528 L13.1346667,33.383 C13.208,34.1996667 13.208,34.8663333 13.1346667,35.3113333 L12.9863333,35.3863333 L12.9863333,35.7563333 L12.6146667,36.9446667 L12.763,36.9446667 C12.838,37.613 12.9863333,38.1313333 13.4313333,38.503 C13.3563333,38.5763333 13.4313333,38.6513333 13.5046667,38.7246667 C13.5046667,38.7996667 13.4313333,38.948 13.208,39.0963333 L14.0246667,39.7646667 L14.0246667,40.0613333 L14.3213333,40.358 L14.7663333,40.5813333 L14.9896667,41.0996667 L15.508,41.1746667 L15.8796667,40.5813333 C15.8796667,40.4313333 15.7313333,40.0613333 15.3596667,39.7646667 L14.9146667,39.393 L14.618,39.393 L14.543,39.6896667 L14.2463333,39.6163333 C14.618,39.1696667 14.618,38.7996667 14.4696667,38.6513333 L14.2463333,38.503 L14.3963333,38.058 C14.543,37.7613333 14.618,37.613 14.543,37.3896667 L14.173,36.8696667 L14.173,35.238 L14.3963333,35.163 L14.3963333,34.6446667 L14.543,34.5696667 L14.543,33.903 L14.8413333,33.5313333 L15.138,33.6046667 L15.138,33.828 C15.2113333,33.828 15.2863333,33.828 15.3596667,33.753 L15.4346667,33.6046667 L15.508,33.6796667 L15.583,33.6796667 C15.9546667,34.5696667 16.1763333,35.0896667 16.1763333,35.3113333 L16.103,36.0546667 L16.1763333,36.2763333 L16.473,36.573 C16.6213333,36.8696667 16.6213333,37.1663333 16.548,37.4646667 L16.3246667,37.6863333 L16.103,37.7613333 L16.1763333,36.648 L15.8796667,36.4996667 L15.8796667,35.7563333 L15.7313333,35.683 L15.7313333,35.3113333 L15.2863333,34.8663333 L15.3596667,34.5696667 L15.2863333,34.273 L14.9896667,34.0513333 L14.7663333,34.718 L14.4696667,34.8663333 L14.4696667,34.9413333 C14.618,35.0146667 14.618,35.163 14.693,35.3863333 L14.7663333,35.9796667 L14.9146667,36.0546667 L15.2863333,36.9446667 L15.508,39.468 L15.8796667,39.468 L16.028,39.3196667 L16.103,39.0963333 L16.473,38.7996667 C16.548,38.5763333 16.6963333,38.2063333 16.7696667,37.6863333 C16.8446667,37.093 16.918,36.7213333 16.8446667,36.4996667 L16.473,35.238 L16.473,34.6446667 L16.103,33.9763333 L16.103,33.753 L16.1763333,33.5313333 L15.8796667,32.2696667 L15.583,32.2696667 L15.583,32.788 L15.4346667,33.1596667 L15.138,33.2346667 L15.2863333,32.1946667 L15.508,32.1213333 L15.508,31.898 L15.508,31.6763333 L15.7313333,31.6013333 L16.1763333,30.4146667 L15.9546667,29.523 L15.9546667,29.4496667 L15.8796667,29.153 L16.103,28.188 C16.2513333,27.8163333 16.3996667,27.5946667 16.548,27.4463333 L16.548,27.3713333 L16.1763333,26.4813333 L16.103,26.408 L16.103,26.2596667 C16.3246667,26.1846667 16.473,26.1846667 16.548,26.333 L16.548,26.4813333 L16.548,26.6296667 L17.1413333,27.4463333 L17.5863333,28.7813333 L18.4763333,28.7813333 L18.5513333,28.708 C18.848,28.4846667 18.9213333,28.188 18.848,27.743 L18.6246667,27.743 L18.6246667,27.3713333 L18.1796667,26.6296667 L18.1063333,26.333 L18.0313333,26.0363333 L17.6596667,25.6646667 L17.5113333,24.6263333 L17.2896667,24.6263333 L17.2146667,24.478 L17.2146667,24.2546667 L16.6213333,24.8496667 L17.2896667,26.1096667 L17.5113333,26.333 L17.5113333,26.853 C17.2146667,26.9263333 17.1413333,26.853 17.2146667,26.778 L16.918,26.0363333 L16.2513333,24.998 L15.8796667,25.1463333 L15.8063333,25.443 L16.103,25.9613333 L15.8063333,25.7396667 L15.7313333,25.888 L15.583,25.9613333 L15.583,27.0746667 L15.2863333,27.0746667 C15.2863333,26.2596667 15.2863333,25.813 15.2113333,25.6646667 L14.9146667,25.443 L14.4696667,25.2196667 L14.4696667,24.998 L13.8763333,24.6263333 L13.8763333,24.403 L13.5796667,24.3296667 L13.5046667,23.8846667 L13.1346667,23.513 L12.9863333,22.7713333 L12.9863333,21.8813333 C12.9113333,21.5096667 12.6896667,21.0646667 12.393,20.5446667 L12.1696667,20.4713333 L12.1696667,20.323 C12.243,20.248 12.1696667,20.1746667 12.1696667,20.1746667 L12.6146667,20.248 L12.6146667,20.5446667 L12.9113333,20.768 L13.4313333,20.6196667 L13.5796667,21.9546667 L14.173,22.3996667 L14.3963333,23.2913333 L14.7663333,23.588 L14.9146667,24.1813333 L15.138,24.1813333 L15.2863333,24.403 L15.3596667,24.403 L15.7313333,24.923 L16.3246667,24.6263333 C16.548,24.478 16.6213333,24.2546667 16.6213333,23.958 L16.473,23.143 L16.1763333,22.9946667 L16.1763333,23.588 L15.8796667,23.513 L15.8796667,22.7713333 C15.8796667,22.6963333 15.8063333,22.623 15.583,22.623 L15.7313333,22.2513333 L15.138,21.9546667 L15.508,21.2863333 L15.508,20.9163333 L15.7313333,20.8413333 L15.7313333,19.878 L15.8796667,19.7296667 L15.9546667,19.5796667 L15.9546667,19.5063333 L16.103,18.318 L16.3246667,18.318 L16.473,18.4663333 L16.2513333,19.5063333 L16.2513333,19.5796667 L16.1763333,20.6196667 L16.548,20.9163333 L16.473,20.9896667 L16.6213333,21.0646667 L16.6963333,21.138 C16.8446667,21.138 16.993,21.0646667 17.1413333,20.9163333 L17.2896667,20.768 L17.438,20.248 L17.363,19.9513333 L17.2146667,19.6546667 L16.8446667,18.913 L16.6963333,18.4663333 L16.548,18.0963333 L16.2513333,17.948 L16.103,17.7246667 L16.1763333,17.503 L16.2513333,17.428 L16.1763333,17.2063333 L16.103,17.058 L16.1763333,16.3896667 L15.9546667,16.3163333 L15.7313333,16.7613333 C15.583,16.7613333 15.508,16.7613333 15.583,16.6863333 L15.508,16.6863333 L15.8063333,15.648 L15.7313333,15.3513333 L15.508,15.3513333 C15.508,15.2763333 15.4346667,15.2013333 15.2863333,15.2013333 L15.2863333,14.4596667 L15.2113333,14.4596667 L15.138,14.3113333 L14.8413333,14.3863333 L14.7663333,15.3513333 L14.4696667,15.2763333 C14.543,14.7563333 14.543,14.4596667 14.543,14.3113333 C14.4696667,14.0146667 14.2463333,13.9413333 13.8763333,14.0146667 L13.653,14.238 L13.5046667,14.4596667 L13.0596667,14.4596667 L13.1346667,14.0896667 C13.208,14.0146667 13.4313333,13.9413333 13.653,13.8663333 L14.3963333,13.718 L14.543,13.4963333 C14.618,13.5696667 14.618,13.4213333 14.543,13.1996667 C14.4696667,13.1246667 14.3963333,13.1246667 14.2463333,13.0513333 L13.8763333,12.9763333 C14.0246667,12.6046667 14.0246667,12.2346667 13.8763333,11.863 L12.318,12.0113333 L11.353,12.5313333 L11.0563333,12.4563333 L10.908,12.308 L10.908,12.1596667 L11.798,11.9363333 L11.873,11.788 L12.9863333,11.343 L13.5796667,11.343 L14.098,11.1946667 C13.8763333,10.8246667 13.728,10.3796667 13.653,9.78466667 C13.5796667,9.19133333 13.5796667,8.673 13.728,8.22633333 L13.1346667,8.37466667 L13.0596667,9.043 L12.6896667,9.043 L12.393,8.89466667 L12.0946667,8.81966667 L12.0946667,8.673 L12.6896667,8.153 L12.9863333,8.153 L13.1346667,7.78133333 L13.8763333,7.55966667 C14.4696667,7.263 14.543,6.743 14.2463333,5.778 L14.0246667,5.55633333 L13.8763333,5.333 L13.4313333,5.333 L13.3563333,5.55633333 L12.838,5.62966667 L12.6146667,5.92633333 L12.318,5.92633333 L12.6146667,5.18466667 L12.9863333,5.18466667 L13.5046667,4.813 L13.208,4.443 L12.393,4.21966667 L11.278,3.478 C10.7596667,3.18133333 10.3146667,3.10633333 9.943,3.10633333 L9.64633333,3.32966667 L9.64633333,3.923 L9.34966667,3.923 L9.27466667,3.32966667 C9.20133333,3.18133333 9.053,3.10633333 8.75633333,3.10633333 L8.68133333,3.32966667 L8.01466667,3.32966667 L7.86466667,3.18133333 L7.79133333,2.958 L7.568,2.88466667 L7.34633333,2.88466667 L7.49466667,2.21633333 L7.86466667,1.91966667 L7.86466667,1.548 L7.79133333,1.548 C7.34633333,1.548 7.198,1.548 7.34633333,1.623 L6.678,1.993 L6.45633333,1.91966667 L6.308,1.84466667 L7.79133333,1.178 L7.79133333,0.954666667 L6.97466667,0.954666667 L6.97466667,0.879666667 L6.97466667,0.731333333 L7.04966667,0.509666667 L6.60466667,0.286333333 L5.86133333,0.213 L4.52633333,0.879666667 L4.52633333,1.103 L4.303,1.25133333 L4.15466667,1.548 L4.15466667,2.73633333 L4.303,3.69966667 L3.858,3.62633333 L3.56133333,3.923 Z" id="Fill-11"></path>
                        </g>
                        <path d="M3.71016667,16.109 L4.15516667,15.664 C4.23016667,15.664 4.3035,15.7373333 4.3035,15.8856667 L4.7485,15.8123333 L4.97183333,15.664 L5.12016667,15.8856667 L5.7135,16.2573333 L6.1585,16.7773333 L6.82683333,16.7023333 L6.97516667,16.109 L7.27183333,16.109 C7.27183333,16.7773333 7.34683333,17.1473333 7.5685,17.3706667 L7.94016667,17.6673333 L8.16183333,18.3356667 L8.31016667,18.3356667 L8.9035,17.2223333 L9.35016667,17.074 L9.4235,16.8506667 L9.4235,16.4806667 L9.72016667,16.4056667 C9.8685,16.4806667 9.8685,16.7023333 9.79516667,17.074 L9.57183333,17.7423333 L8.9785,17.6673333 C8.9035,18.039 8.68183333,18.484 8.38516667,19.0773333 L7.79183333,18.7056667 C7.86516667,18.6323333 7.79183333,18.5573333 7.42016667,18.5573333 L7.34683333,18.929 L7.1985,19.1506667 L6.6785,19.0773333 L6.08516667,19.894 L5.6385,19.894 L5.2685,19.5973333 L5.12016667,19.374 L5.49016667,18.929 L5.6385,18.1873333 L5.34183333,18.409 L5.12016667,18.5573333 C4.97183333,18.854 4.89683333,19.004 4.97183333,19.0773333 L4.89683333,19.374 L4.60016667,19.374 L4.3785,19.004 L4.23016667,18.5573333 L3.71016667,18.1123333 L3.71016667,17.964 L3.48683333,17.964 L3.3385,17.2223333 C3.26516667,16.8506667 3.26516667,16.629 3.3385,16.4056667 L3.48683333,16.2573333 L3.71016667,16.109 Z" id="Fill-14" fill="#9E2F50"></path>
                        <path d="M6.52966667,12.9926667 C6.52966667,13.0676667 6.45633333,13.0676667 6.308,12.9926667 L6.233,12.8443333 C6.38133333,12.8443333 6.45633333,12.9176667 6.52966667,12.9926667" id="Fill-16" fill="#9E2F50"></path>
                        <path d="M8.75566667,16.406 L8.68233333,16.3326667 L8.60733333,16.3326667 L8.68233333,16.0343333 C8.904,16.0343333 8.904,16.1093333 8.75566667,16.406" id="Fill-18" fill="#9E2F50"></path>
                        <path d="M5.639,14.9216667 C5.56566667,14.8483333 5.56566667,14.7733333 5.639,14.55 C6.01066667,14.4766667 6.084,14.625 5.86233333,14.9216667 L5.639,14.9216667 Z" id="Fill-20" fill="#9E2F50"></path>
                        <path d="M11.0561667,17.8158333 L11.1311667,17.4441667 L12.3178333,17.6675 L12.3928333,18.2608333 L11.7245,18.4841667 L11.7245,18.1875 L11.0561667,17.8158333 Z" id="Fill-22" fill="#9E2F50"></path>
                        <path d="M9.943,19.2256667 L10.388,19.3006667 C10.6113333,19.3006667 10.6113333,19.374 10.463,19.4473333 L10.1646667,19.7456667 L9.943,19.7456667 L9.943,19.2256667 Z" id="Fill-24" fill="#9E2F50"></path>
                        <path d="M14.0985,39.1125 L14.3951667,39.2608333 L14.3951667,39.4091667 L14.2468333,40.1508333 L13.7268333,40.8191667 C13.4301667,40.9675 13.4301667,40.7458333 13.5785,40.1508333 L14.0985,39.1125 Z" id="Fill-26" fill="#9E2F50"></path>
                        <path d="M15.9538333,39.3356667 L15.8055,39.409 L15.4355,39.7806667 L15.4355,40.374 L14.9888333,40.449 L15.1371667,40.7456667 L15.2855,40.894 L15.4355,41.784 L15.5821667,41.859 L15.5821667,42.1556667 L15.2855,43.4906667 L14.9155,43.8623333 L14.9155,44.3073333 L14.8405,44.3823333 L14.7671667,44.4556667 L14.6188333,44.3073333 L14.6921667,44.159 L14.6188333,43.8623333 L14.9155,42.9723333 C15.0638333,42.1556667 14.9155,41.339 14.4705,40.449 L15.2855,39.7073333 L15.5088333,39.2606667 L15.8055,38.964 L15.8805,38.964 L15.8805,39.039 C15.8805,38.964 15.9538333,39.039 15.9538333,39.3356667" id="Fill-28" fill="#9E2F50"></path>
                        <path d="M11.5016667,20.487 L11.7983333,20.562 L11.5016667,20.7103333 L11.5016667,20.487 Z" id="Fill-30" fill="#9E2F50"></path>
                        <path d="M11.5758333,21.9715 L11.7975,22.0465 L12.6891667,21.8231667 L12.7625,21.5998333 C13.4308333,21.5265 13.3575,21.8231667 12.6141667,22.4915 L11.7975,22.4915 L11.7241667,22.2681667 L11.5008333,22.3431667 L11.4275,22.4915 L10.9825,22.4915 L11.0558333,22.1948333 L11.3525,21.8965 L11.5758333,21.9715 Z" id="Fill-32" fill="#9E2F50"></path>
                        <path d="M10.611,20.71 L10.9826667,20.7833333 L11.2793333,20.5616667 L11.3526667,20.8583333 L11.056,20.9316667 L10.9826667,21.155 L10.9076667,21.3033333 L10.611,21.3033333 L10.166,20.4866667 L10.611,20.71 Z" id="Fill-34" fill="#9E2F50"></path>
                        <path d="M9.20083333,20.7841667 L9.27583333,20.4125 L8.9775,20.1908333 L8.68083333,20.0425 L8.68083333,19.7458333 L8.9775,19.8191667 L9.20083333,19.5225 L9.5725,19.5975 C9.42416667,20.1908333 9.4975,20.7108333 9.72083333,21.2291667 L10.0175,21.2291667 L10.0175,21.5258333 L9.27583333,21.6741667 L9.0525,22.1191667 L8.6075,22.1941667 L8.6075,22.4908333 L8.75583333,22.5641667 L9.34916667,23.0108333 L10.1658333,23.1591667 L10.3141667,23.4558333 L9.9425,23.6791667 L9.64583333,23.6791667 L9.34916667,24.2725 C9.27583333,24.4941667 9.34916667,24.7175 9.42416667,24.7175 L9.79416667,24.7175 L10.0175,24.5691667 L10.1658333,24.3458333 L10.3141667,24.1975 C10.5375,24.1975 10.6108333,24.2725 10.6108333,24.3458333 C10.6858333,24.4208333 10.6108333,24.4941667 10.4625,24.6425 L9.79416667,25.0141667 L9.79416667,25.3841667 L9.79416667,25.7558333 L9.64583333,25.9041667 L9.5725,26.5725 L9.27583333,26.6458333 L8.9775,26.3491667 L8.9775,25.9041667 L8.6075,25.1625 L8.1625,23.1591667 L7.6425,23.1591667 L7.1975,21.0808333 L7.42083333,21.0808333 L7.49416667,21.2291667 L7.56916667,21.4525 L7.93916667,21.8225 L8.68083333,21.6008333 C8.9775,21.5258333 9.1275,21.3775 9.20083333,21.1558333 L9.20083333,20.7841667 Z" id="Fill-36" fill="#9E2F50"></path>
                        <path d="M8.014,20.1903333 L8.31066667,20.4136667 L8.23733333,20.7103333 L7.939,20.7103333 L8.014,20.1903333 Z" id="Fill-38" fill="#9E2F50"></path>
                        <path d="M6.23283333,21.9715 C6.23283333,22.0465 6.23283333,22.1198333 6.1595,22.1198333 L6.0845,21.8231667 L6.23283333,21.9715 Z" id="Fill-40" fill="#9E2F50"></path>
                        <path d="M5.78783333,23.5295 C5.86116667,23.4561667 5.86116667,23.5295 5.86116667,23.6028333 C5.93616667,23.5295 5.93616667,23.5295 5.86116667,23.7528333 C5.86116667,23.9011667 5.78783333,24.0495 5.6395,24.0495 C5.34283333,24.2711667 5.34283333,24.0495 5.78783333,23.5295" id="Fill-42" fill="#9E2F50"></path>
                        <path d="M6.4555,24.346 L6.4555,24.0493333 C6.75216667,23.5293333 6.9005,23.1593333 6.9755,22.8626667 L7.27216667,22.8626667 L7.04883333,23.6776667 L6.9005,23.826 L6.9005,24.1976667 L6.23216667,25.1626667 C5.9355,24.791 5.9355,24.6426667 6.15883333,24.7176667 L6.4555,24.346 Z" id="Fill-44" fill="#9E2F50"></path>
                        <path d="M8.97833333,28.1301667 L8.97833333,28.0568333 L9.05333333,27.9818333 L9.42333333,28.2785 L9.42333333,28.7235 C9.20166667,28.7235 9.12666667,28.7235 9.275,28.6501667 L8.97833333,28.1301667 Z" id="Fill-46" fill="#9E2F50"></path>
                        <path d="M9.64633333,27.2401667 L10.018,27.7601667 L10.018,28.2785 L10.1663333,28.3535 L10.3146667,28.5018333 L10.3146667,29.0951667 L10.9813333,29.4668333 C10.908,29.4668333 10.9813333,29.5401667 11.278,29.6885 C11.428,29.3918333 11.353,29.3185 11.1313333,29.3918333 L11.0563333,29.0951667 L11.0563333,28.7985 L11.278,28.6501667 C11.1313333,28.5018333 11.2046667,28.5018333 11.428,28.6501667 L11.5763333,29.3918333 L13.208,31.4701667 L13.208,31.7668333 L12.9863333,31.8401667 L12.763,31.5435 L12.4663333,31.4701667 C12.318,31.4701667 12.243,31.4701667 12.1696667,31.3951667 L12.1696667,30.8018333 L12.0946667,30.8018333 L11.5013333,30.1335 L10.7596667,29.8368333 C10.463,29.6885 10.2396667,29.5401667 10.0913333,29.3918333 L10.018,29.0218333 L9.943,28.6501667 L9.72133333,28.5018333 L9.72133333,28.2785 L9.72133333,28.0568333 L9.34966667,27.6118333 L9.34966667,27.2401667 L9.64633333,27.2401667 Z" id="Fill-48" fill="#9E2F50"></path>
                        <path d="M9.943,30.1338333 L9.943,29.7621667 L10.1646667,29.7621667 L10.6846667,30.4305 L10.6846667,31.3955 C10.6846667,31.9155 10.6113333,32.1371667 10.463,32.2121667 L10.1646667,32.2121667 L10.1646667,31.7671667 L10.388,31.6921667 C10.5363333,31.3221667 10.5363333,30.8755 10.3146667,30.5055 L9.943,30.1338333 Z" id="Fill-50" fill="#9E2F50"></path>
                        <path d="M11.7983333,31.915 L11.4266667,32.2116667 L11.4266667,32.5083333 L11.2783333,32.5833333 L11.13,32.9533333 C11.0566667,33.1766667 10.76,33.325 10.315,33.5483333 L10.165,33.6966667 L9.86833333,33.6966667 L9.795,33.5483333 L10.0166667,33.325 L10.165,33.1766667 L10.4633333,33.1766667 C10.8333333,32.88 11.205,32.2866667 11.65,31.2466667 L11.7983333,31.2466667 L11.7983333,31.915 Z" id="Fill-52" fill="#9E2F50"></path>
                        <path d="M9.498,34.5866667 L9.20133333,34.9583333 C8.75633333,34.8833333 8.68133333,34.81 8.90466667,34.66 L9.27466667,34.215 C9.498,34.29 9.64633333,34.4383333 9.498,34.5866667" id="Fill-54" fill="#9E2F50"></path>
                        <path d="M11.8725,34.8091667 L12.1691667,34.4375 L12.3925,34.5125 L12.3175,35.5508333 C12.3175,35.9958333 12.2441667,36.3675 12.1691667,36.5158333 L12.0208333,36.5158333 L11.5008333,37.0358333 L11.1308333,37.0358333 L11.2791667,36.7391667 L11.5008333,36.5891667 L11.7975,35.9225 L11.8725,34.8091667 Z" id="Fill-56" fill="#9E2F50"></path>
                        <path d="M6.678,32.8796667 L6.678,33.103 L7.04966667,33.3246667 L7.04966667,33.918 L6.82633333,33.918 L6.678,33.548 L6.30633333,32.7313333 L6.60466667,32.7313333 L6.678,32.8796667 Z" id="Fill-58" fill="#9E2F50"></path>
                        <path d="M8.75566667,35.4025 L8.60733333,35.7741667 L8.384,36.0708333 C8.16233333,36.0708333 8.08733333,35.9225 8.23566667,35.6991667 L8.68233333,35.2541667 C8.829,35.1791667 8.829,35.2541667 8.75566667,35.4025" id="Fill-60" fill="#9E2F50"></path>
                        <path d="M8.08816667,37.6286667 C8.01316667,37.7036667 7.93983333,37.777 7.86483333,37.7036667 L7.7915,37.4053333 C7.93983333,37.4803333 8.08816667,37.4803333 8.08816667,37.6286667" id="Fill-62" fill="#9E2F50"></path>
                        <path d="M8.08816667,38.3708333 C8.08816667,38.5191667 8.01316667,38.5191667 7.86483333,38.5191667 L7.7915,38.1475 L8.01316667,38.1475 L8.08816667,38.3708333 Z" id="Fill-64" fill="#9E2F50"></path>
                        <path d="M8.014,36.8868333 L7.79233333,36.8868333 L7.86566667,36.3668333 C8.16233333,36.5151667 8.23733333,36.7385 8.014,36.8868333" id="Fill-66" fill="#9E2F50"></path>
                        <path d="M13.5793333,38.0741667 L13.5793333,38.3708333 L13.2076667,38.7425 L13.2076667,39.8541667 L12.8376667,40.6708333 L12.6143333,40.6708333 C12.6143333,40.1508333 12.6143333,39.8541667 12.6893333,39.8541667 L12.8376667,39.7058333 L12.986,39.6325 L12.986,39.0391667 L12.986,38.4458333 L13.2076667,38.0008333 L13.5793333,38.0741667 Z" id="Fill-68" fill="#9E2F50"></path>
                        <path d="M10.6851667,38.1483333 C10.5368333,38.8166667 10.4635,39.1866667 10.3885,39.335 C10.0918333,39.1133333 10.0168333,39.0383333 10.0918333,39.0383333 L10.3135,38.1483333 L10.6851667,38.1483333 Z" id="Fill-70" fill="#9E2F50"></path>
                        <path d="M9.7205,40.0778333 L9.42383333,39.8545 L9.42383333,39.4845 L9.79383333,39.6328333 L10.0171667,39.7811667 L10.0921667,40.1511667 L10.0921667,40.5228333 L10.1655,40.5228333 L10.4621667,41.1911667 L10.9071667,41.8578333 L11.3538333,42.0811667 C11.2788333,41.2645 11.5021667,40.8195 12.0955,40.7461667 L12.3188333,40.8195 C12.4655,40.8945 12.4655,40.8945 12.3921667,40.8945 L12.2438333,41.0428333 L12.1688333,41.1911667 L11.7988333,41.3395 C11.7238333,41.4128333 11.6505,41.5611667 11.6505,41.7845 L11.7988333,42.6011667 L11.4271667,42.5261667 L11.0555,42.4528333 L10.9071667,42.1545 L10.6105,42.1545 L10.6105,41.8578333 L9.79383333,41.1161667 L9.79383333,40.6711667 L9.7205,40.0778333 Z" id="Fill-72" fill="#9E2F50"></path>
                        <path d="M12.763,41.1903333 L13.0596667,41.3386667 L12.838,42.452 C12.9863333,42.527 12.838,42.527 12.6146667,42.6003333 L12.6146667,41.4136667 C12.6896667,41.3386667 12.763,41.2653333 12.763,41.1903333" id="Fill-74" fill="#9E2F50"></path>
                        <path d="M7.27183333,17.3703333 L7.05016667,17.4453333 L7.05016667,18.0386667 L7.27183333,18.187 L7.79183333,18.112 L7.27183333,17.3703333 Z" id="Fill-76" fill="#9E2F50"></path>
                        <path d="M17.1411667,29.6886667 L16.9178333,29.837 L17.2145,30.0603333 C17.4378333,30.357 17.5128333,30.8753333 17.5861667,31.5436667 L17.5861667,31.8403333 L17.5861667,31.9153333 C17.5861667,32.3603333 17.5128333,32.8053333 17.4378333,33.177 L17.8095,33.0286667 C17.8828333,33.0286667 18.0311667,32.9536667 18.0311667,32.8803333 C18.1061667,32.8053333 18.1795,32.5086667 18.1061667,31.9886667 L18.0311667,30.9503333 L17.8095,30.802 L17.6595,30.357 L17.1411667,29.6886667 Z" id="Fill-78" fill="#9E2F50"></path>
                        <path d="M17.8828333,29.6886667 L17.8828333,30.0603333 L18.3278333,30.9503333 C18.5511667,31.322 18.6245,31.6186667 18.6245,31.9153333 C18.6245,32.2853333 18.5511667,32.657 18.3278333,33.0286667 L17.6595,33.622 L17.8095,34.067 L18.0311667,34.437 L17.9578333,34.6603333 L17.9578333,34.957 L18.1795,35.1803333 L18.0311667,35.7003333 L17.6595,35.997 L17.6595,36.5903333 L17.9578333,36.6636667 L18.1795,37.4053333 L18.5511667,37.7036667 L18.5511667,38.0736667 L18.6995,38.1486667 L18.9211667,38.8903333 L19.2928333,38.8903333 L19.2928333,38.8903333 L19.5895,37.0353333 L19.8128333,36.9603333 C19.8128333,37.8503333 19.8128333,38.4453333 19.6645,38.742 L19.5895,39.112 L19.2195,39.4103333 L19.2195,39.707 L19.5895,39.707 L19.5895,39.4836667 C19.8128333,39.4836667 19.8861667,39.632 19.8128333,39.8553333 L19.7378333,40.7453333 C19.8128333,40.8936667 20.1095,41.1903333 20.6295,41.562 L20.6295,41.7836667 C20.5545,41.7103333 20.4811667,41.7103333 20.5545,41.8586667 L20.4811667,41.932 L20.5545,42.1553333 L20.7028333,42.1553333 L20.9995,42.7486667 C21.1478333,43.1936667 21.0745,44.1586667 20.9261667,45.4936667 L20.7028333,45.5686667 L20.6295,46.607 C20.6295,47.052 20.6295,47.4236667 20.7028333,47.647 C20.7028333,47.7203333 20.8511667,47.8686667 20.9995,47.8686667 L21.4445,48.017 L21.4445,48.3886667 L20.7028333,48.6853333 L20.7028333,50.0953333 C20.7028333,50.6153333 20.6295,51.0603333 20.5545,51.4303333 L20.1828333,51.8753333 C20.1095,52.1736667 20.1095,52.4703333 20.2578333,52.767 L20.4061667,53.4353333 L20.3328333,53.732 L20.2578333,53.8803333 L20.3328333,54.547 L20.6295,54.547 L20.7028333,54.7703333 L21.1478333,54.7703333 L21.4445,54.4736667 L20.9995,53.8053333 L20.9995,53.4353333 L21.0745,53.287 L21.0745,53.0636667 L21.1478333,52.247 L21.3711667,52.1736667 L21.3711667,50.4653333 L21.5928333,50.3186667 L21.5928333,49.3536667 L21.7411667,49.2786667 L21.9645,47.4236667 L22.4095,46.9786667 L22.4095,46.3853333 L21.7411667,46.5336667 L21.7411667,46.3103333 L21.7411667,46.162 L21.3711667,45.6436667 L21.3711667,43.9353333 L21.4445,43.9353333 L21.5928333,43.862 L21.6678333,43.9353333 L21.7411667,44.0836667 C21.7411667,44.752 21.7411667,45.197 21.8161667,45.4936667 L22.1128333,45.6436667 C22.3361667,45.197 22.4845,44.5303333 22.5578333,43.6386667 L22.7811667,41.4136667 L23.0028333,41.3386667 L23.0028333,40.8936667 L23.0028333,40.522 L23.3745,40.077 L23.8195,38.297 L23.8195,38.222 L23.7461667,38.0736667 L24.1161667,37.5536667 C24.2645,36.9603333 24.1911667,36.2936667 24.0428333,35.477 C23.8195,34.7353333 23.6711667,34.2153333 23.4495,33.8436667 L22.6328333,32.8803333 L22.4845,32.4336667 L21.5928333,31.767 L21.5928333,31.4703333 L22.2611667,31.5436667 L22.2611667,30.9503333 L21.8895,30.802 L21.4445,30.802 C21.4445,30.8753333 21.3711667,30.9503333 21.2961667,30.9503333 L21.2961667,31.172 L21.1478333,31.172 L20.9995,31.172 C20.6295,30.727 20.3328333,30.4303333 20.1095,30.282 L18.6245,29.9853333 L17.8828333,29.6886667 Z" id="Fill-80" fill="#9E2F50"></path>
                        <path d="M19.8123333,36.1446667 C19.8123333,36.218 19.8123333,36.3663333 19.664,36.5163333 L19.3673333,36.0696667 L19.4406667,34.5863333 L19.8123333,34.6613333 L19.9606667,35.328 L20.7023333,36.0696667 L20.629,36.3663333 C20.7773333,36.3663333 20.7773333,36.4413333 20.629,36.6646667 C20.3323333,36.6646667 20.2573333,36.5896667 20.3323333,36.5896667 L20.2573333,36.5896667 L19.9606667,35.848 L19.8123333,36.1446667 Z" id="Fill-82" fill="#9E2F50"></path>
                        <path d="M20.6286667,37.5545 C20.702,37.7028333 20.6286667,37.7028333 20.4053333,37.5545 L20.332,36.8861667 L20.4803333,36.8861667 L20.5536667,36.7378333 L20.702,36.8861667 L20.6286667,37.5545 Z" id="Fill-84" fill="#9E2F50"></path>
                        <path d="M20.332,37.777 C20.4053333,37.777 20.4803333,37.852 20.4803333,37.9253333 L20.5536667,38.297 L20.1836667,38.297 C20.1836667,38.0736667 20.1836667,38.0003333 20.257,38.0003333 L20.332,37.777 Z" id="Fill-86" fill="#9E2F50"></path>
                        <path d="M16.4731667,33.2505 L16.4731667,32.9538333 L16.1015,32.7321667 L16.0281667,33.0288333 L15.9531667,33.5471667 L16.1765,33.6221667 L16.2498333,34.0671667 L16.3248333,34.4371667 L16.6965,34.6605 L16.8431667,35.1055 L16.9181667,35.6255 L17.0665,35.5505 L17.1415,35.5505 L17.1415,34.9571667 L16.9181667,34.1405 L16.6215,33.3255 L16.4731667,33.2505 Z" id="Fill-88" fill="#9E2F50"></path>
                        <path d="M13.8018333,35.6996667 L14.7668333,36.5896667 L15.1368333,36.5896667 L15.1368333,36.2196667 L14.7668333,35.9963333 L14.6185,35.923 L14.2468333,35.1796667 L13.4301667,33.918 C13.3568333,33.918 13.2818333,34.0663333 13.2818333,34.2146667 C13.2818333,34.438 13.3568333,34.5113333 13.4301667,34.438 L13.4301667,34.958 L13.8018333,35.328 L13.8018333,35.6996667 Z" id="Fill-90" fill="#9E2F50"></path>
                        <path d="M17.512,33.9185 L17.2886667,33.9185 C17.2153333,33.8451667 17.1403333,34.0668333 17.2886667,34.5118333 L17.512,35.4018333 C17.5853333,35.4018333 17.6603333,35.2535 17.5853333,34.8835 L17.512,33.9185 Z" id="Fill-92" fill="#9E2F50"></path>
                        <path d="M17.6603333,41.1161667 L17.512,41.3395 L17.8086667,43.1195 L17.957,43.1945 L17.8836667,43.5645 L18.032,43.9361667 L18.1803333,44.3061667 L18.6253333,44.4561667 L19.2186667,43.7128333 L19.2186667,43.3428333 L19.442,43.1945 L19.7386667,42.2295 C19.812,42.0061667 19.7386667,41.7845 19.6636667,41.6361667 L19.442,41.1895 L19.367,40.2261667 L19.2186667,40.2261667 L18.7736667,40.5961667 L18.847,40.5228333 L19.2186667,41.1161667 L19.0703333,41.4128333 L18.477,40.8928333 L17.8836667,40.8928333 C17.8086667,40.9678333 17.7353333,41.0428333 17.6603333,41.1161667" id="Fill-94" fill="#9E2F50"></path>
                        <path d="M16.696,39.6323333 C16.5476667,40.004 16.3993333,40.449 16.3243333,40.819 C16.251,40.819 16.176,40.819 16.176,40.894 L16.176,41.1156667 L16.696,41.1156667 C16.621,40.7456667 16.771,40.374 16.9926667,40.004 L16.696,39.6323333 Z" id="Fill-96" fill="#9E2F50"></path>
                        <path d="M5.639,47.9433333 L5.93566667,48.1666667 C6.01066667,48.4633333 6.01066667,48.685 5.93566667,48.9816667 L5.639,49.5016667 L5.26733333,49.4266667 C5.49066667,49.0566667 5.639,48.5366667 5.639,47.9433333 L5.639,47.9433333 Z M5.49066667,46.2366667 L5.93566667,46.5333333 L5.93566667,46.905 L5.34233333,46.6816667 L5.49066667,46.2366667 Z M7.939,43.3433333 L7.86566667,42.7483333 L8.23733333,42.7483333 L8.31066667,43.4916667 L8.014,43.7883333 L7.86566667,43.7883333 L7.86566667,43.4916667 C7.86566667,43.64 7.86566667,43.565 7.939,43.3433333 L7.939,43.3433333 Z M7.42066667,40.0783333 C7.124,40.0783333 6.97566667,40.0033333 7.19733333,39.855 L7.049,39.7066667 L7.049,39.41 L7.42066667,39.6316667 L7.42066667,40.0783333 Z M5.78733333,34.5116667 L5.639,34.0666667 L5.49066667,34.215 L5.49066667,34.66 L5.26733333,34.8083333 C5.26733333,34.9566667 5.34233333,35.18 5.41733333,35.4016667 L5.56566667,35.9966667 L5.119,36.665 C5.04566667,36.8116667 5.119,37.1833333 5.26733333,37.7033333 C5.34233333,38.1483333 5.49066667,38.445 5.56566667,38.445 C5.639,38.5183333 5.639,38.5183333 5.56566667,38.5183333 L5.49066667,38.6683333 L5.78733333,38.965 L5.93566667,39.855 L6.45566667,40.4483333 L6.45566667,40.6716667 L6.529,40.8933333 L6.90066667,41.1166667 L6.90066667,41.4133333 L6.82566667,41.4133333 L6.529,41.3383333 L6.45566667,41.3383333 L6.159,40.82 L6.159,41.8583333 L5.93566667,42.0066667 L5.78733333,42.8966667 L5.639,44.2333333 L5.49066667,44.455 L5.26733333,45.865 L4.749,46.83 C4.674,46.905 4.749,47.0533333 4.82233333,47.275 L4.749,48.685 L4.89733333,48.76 L4.82233333,49.7983333 L5.93566667,50.0216667 L6.30733333,48.9083333 L6.30733333,47.35 C6.159,47.35 6.159,47.2016667 6.30733333,46.905 L6.38066667,46.6083333 L6.45566667,46.31 L6.67733333,46.2366667 L6.67733333,46.0133333 L7.569,45.3466667 L7.86566667,44.9 L8.16233333,44.9 L9.20066667,43.8616667 L9.349,43.1933333 L9.57233333,43.045 L9.72066667,42.8233333 L9.72066667,42.5266667 L9.424,42.6 L9.349,42.9716667 L9.05233333,43.12 L8.75566667,43.1933333 L8.75566667,42.8966667 L9.05233333,42.675 C9.27566667,42.5266667 9.27566667,42.3033333 9.20066667,42.0066667 L8.534,41.4133333 L8.38566667,40.82 L7.64233333,40.0033333 L7.64233333,39.78 L7.64233333,39.6316667 L7.19733333,38.89 L6.75233333,38.965 C6.67733333,38.965 6.529,38.965 6.45566667,38.89 L6.23233333,38.5183333 L6.159,38.0733333 L5.56566667,37.7033333 L5.49066667,37.2583333 L5.86233333,37.3316667 L6.084,37.035 C5.93566667,37.035 5.86233333,37.035 5.86233333,36.9616667 L5.86233333,36.7383333 L6.30733333,36.9616667 C6.45566667,37.4066667 6.529,37.7766667 6.604,37.925 L6.82566667,38.1483333 C6.97566667,38.2216667 6.97566667,38.2216667 6.97566667,38.0733333 L6.97566667,37.555 L6.82566667,37.4066667 L6.604,36.07 L6.45566667,35.9966667 L5.78733333,34.5116667 Z" id="Fill-98" fill="#9E2F50"></path>
                        <path d="M4.82266667,50.4661667 L4.971,50.6895 L5.26766667,52.0978333 C5.34266667,52.5445 5.416,52.7661667 5.56433333,52.8411667 L5.56433333,52.9145 L5.491,53.0645 L5.63933333,53.2128333 L5.78766667,54.7695 L6.52933333,54.5478333 C6.826,55.2895 7.12266667,55.6611667 7.421,55.7345 L8.01433333,55.7345 L8.16266667,56.1795 L8.311,56.1795 L8.53266667,56.4761667 L8.82933333,56.5511667 L9.276,56.6261667 C9.42433333,56.0311667 9.42433333,55.5861667 9.34933333,55.2895 L9.201,55.2145 C9.34933333,55.1411667 9.276,55.0661667 9.12766667,55.0661667 C8.82933333,55.0661667 8.82933333,55.0661667 8.97766667,55.1411667 L8.681,55.2895 L8.53266667,55.5861667 C8.60766667,55.5861667 8.53266667,55.6611667 8.16266667,55.7345 L8.236,55.5128333 L8.38433333,55.2145 L8.681,55.1411667 L8.681,54.9928333 L8.681,54.6961667 L8.60766667,54.3995 L8.236,54.3995 L8.236,54.4728333 L7.64266667,54.7695 L7.346,54.2511667 L6.97433333,53.9545 L6.901,53.3611667 L6.456,53.1378333 L6.456,52.8411667 L6.23266667,52.6178333 L6.08433333,50.6895 L4.89766667,50.3178333 C4.82266667,50.3178333 4.82266667,50.3928333 4.82266667,50.4661667" id="Fill-100" fill="#9E2F50"></path>
                        <path d="M16.6215,50.6886667 L16.3248333,50.837 L16.3248333,51.357 L16.6965,51.5053333 L16.6965,51.8753333 L16.9931667,52.0253333 L17.0665,51.2086667 L16.6215,50.6886667 Z" id="Fill-105" fill="#9E2F50"></path>
                        <path d="M16.1021667,51.6535 L16.1021667,51.8018333 L16.1755,52.2468333 L16.1755,52.3951667 L15.8055,53.3601667 L16.3238333,53.2118333 L16.4738333,52.9885 L16.6955,52.7668333 L16.6955,52.5435 L16.6221667,52.2468333 L16.4738333,52.1735 L16.3988333,52.0251667 L16.3988333,51.9501667 L16.3988333,51.8018333 C16.3988333,51.7268333 16.3238333,51.6535 16.1755,51.6535 L16.1021667,51.6535 Z" id="Fill-107" fill="#9E2F50"></path>
                        <path d="M21.1483333,55.5125 L21.1483333,54.9925 L20.2583333,54.8441667 C20.035,55.4375 20.035,55.7341667 20.1833333,55.8091667 C20.2583333,55.8841667 20.6283333,55.8091667 21.1483333,55.5125" id="Fill-109" fill="#9E2F50"></path>
                    </g>
                </g>
            </g>
        </g>
    </g>
</svg>