<?xml version="1.0" encoding="UTF-8" standalone="no"?>
<svg width="47px" height="37px" viewBox="0 0 47 37" version="1.1" xmlns="http://www.w3.org/2000/svg" xmlns:xlink="http://www.w3.org/1999/xlink">
    <!-- Generator: Sketch 3.6.1 (26313) - http://www.bohemiancoding.com/sketch -->
    <title>tax icon</title>
    <desc>Created with Sketch.</desc>
    <defs></defs>
    <g id="Page-1" stroke="none" stroke-width="1" fill="none" fill-rule="evenodd">
        <g id="Large-Desktop-Copy-3" transform="translate(-207.000000, -791.000000)">
            <g id="fact-3" transform="translate(180.000000, 701.000000)">
                <g id="tax-icon" transform="translate(26.000000, 88.000000)">
                    <ellipse id="Oval-1-Copy-6" fill="#EADECE" cx="24.5747863" cy="20.5" rx="17.5747863" ry="17.5"></ellipse>
                    <text id="TAX" transform="translate(26.500000, 26.000000) rotate(-20.000000) translate(-26.500000, -26.000000) " font-family="Metric-Black, Metric" font-size="19.3035904" font-weight="700" letter-spacing="-0.0600890063" fill="#9E2F50">
                        <tspan x="9" y="27">TAX</tspan>
                    </text>
                    <g id="tax-text" transform="translate(26.000000, 20.000000) rotate(-20.000000) translate(-26.000000, -20.000000) translate(4.000000, 7.000000)">
                        <path d="M36.4782035,20.4791333 L36.2189631,20.6958 L35.963742,20.9104667 L36.4782035,20.9104667 L36.9906554,20.9104667 L36.7347644,20.6938 L36.4782035,20.4791333 Z" id="Fill-210" fill="#FFFFFF"></path>
                        <path d="M21.0613721,19.8346 L21.0607022,20.2652667 L21.0607022,20.6939333 L21.3192728,20.4779333 L21.5744939,20.2652667 L21.3192728,20.0486 L21.0613721,19.8346 Z" id="Fill-212" fill="#FFFFFF"></path>
                        <path d="M22.0236429,19.9414 C21.9171333,19.9440667 21.8320596,20.0140667 21.8320596,20.1027333 C21.8320596,20.1900667 21.9184731,20.2627333 22.0256526,20.2647333 C22.1288128,20.2647333 22.216566,20.1927333 22.2172359,20.1040667 C22.2172359,20.0140667 22.1314923,19.9414 22.0236429,19.9414" id="Fill-214" fill="#FFFFFF"></path>
                        <path d="M25.8152513,19.4583333 L25.1212641,19.3476667 L24.4272769,19.233 L24.9611647,19.737 C25.252559,20.013 25.6363955,20.247 25.8145814,20.2523333 L26.1361199,20.263 L25.9746808,19.8616667 L25.8152513,19.4583333 Z" id="Fill-216" fill="#FFFFFF"></path>
                        <path d="M17.0156144,19.6198 C16.9097747,19.6184667 16.8240311,19.6911333 16.824701,19.7811333 C16.8206817,19.8684667 16.9084349,19.9411333 17.017624,19.9398 C17.122124,19.9398 17.2085375,19.8684667 17.2071978,19.7798 C17.2071978,19.6911333 17.1201144,19.6184667 17.0156144,19.6198" id="Fill-218" fill="#FFFFFF"></path>
                        <path d="M28.0590538,18.8138 L28.0295795,19.4311333 L27.9967558,20.0484667 L28.2318808,19.8544667 L28.4636564,19.6604667 L28.262025,19.2371333 L28.0590538,18.8138 Z" id="Fill-220" fill="#FFFFFF"></path>
                        <path d="M32.8161484,19.6198 C32.7096388,19.6184667 32.6205458,19.6924667 32.6238952,19.7798 C32.6238952,19.8684667 32.7096388,19.9398 32.818158,19.9398 C32.9206484,19.9438 33.0077317,19.8671333 33.0090715,19.7811333 C33.0090715,19.6924667 32.9219881,19.6198 32.8161484,19.6198" id="Fill-222" fill="#FFFFFF"></path>
                        <path d="M14.3168349,19.2982 C14.2103253,19.2975333 14.1252516,19.3695333 14.1219022,19.4595333 C14.1245817,19.5482 14.2116651,19.6182 14.3175048,19.6175333 C14.4240144,19.6182 14.509758,19.5468667 14.509758,19.4608667 C14.509758,19.3695333 14.4240144,19.2982 14.3168349,19.2982" id="Fill-224" fill="#FFFFFF"></path>
                        <path d="M32.4069907,18.6536667 L31.8081253,18.651 L32.0459298,18.975 L32.2830644,19.297 L31.6594138,19.2983333 L31.0371029,19.297 L31.2742375,18.975 L31.5147215,18.6516667 L30.9768144,18.6516667 L30.4389074,18.6516667 L30.4389074,19.1356667 L30.4389074,19.6183333 L31.114808,19.6183333 C31.4852471,19.621 32.0626766,19.5316667 32.3976125,19.4223333 C32.7312087,19.3163333 33.0078657,19.0976667 33.0078657,18.9396667 L33.0078657,18.6523333 L32.4069907,18.6536667 Z" id="Fill-226" fill="#FFFFFF"></path>
                        <path d="M33.9714763,19.2982 C33.8636269,19.2968667 33.7792231,19.3682 33.7785532,19.4588667 C33.7812327,19.5468667 33.8663064,19.6182 33.9714763,19.6195333 C34.0779859,19.6182 34.1643994,19.5468667 34.1650692,19.4588667 C34.1650692,19.3682 34.0779859,19.2982 33.9714763,19.2982" id="Fill-228" fill="#FFFFFF"></path>
                        <path d="M39.1747054,18.4882667 L38.7895292,18.2889333 L38.7895292,17.6656 L38.7895292,17.0396 L38.3380356,17.0382667 L37.8905612,17.0396 L38.121667,17.2336 L38.3541125,17.4282667 L38.0037696,18.1969333 L37.6554362,18.9676 L38.1256862,18.8929333 L38.597276,18.8122667 L38.5014843,19.2176 L38.4016734,19.6209333 L38.9824522,19.6196 L39.5598817,19.6182667 L39.5605516,19.1549333 C39.558542,18.8996 39.3863849,18.6002667 39.1747054,18.4882667" id="Fill-230" fill="#FFFFFF"></path>
                        <path d="M9.43969936,18.4596 L8.9969141,18.2289333 L9.27089167,18.6029333 C9.42161282,18.8062667 9.62190449,18.9756 9.71568654,18.9742667 C9.80946859,18.9756 9.88449423,18.9096 9.8851641,18.8322667 C9.88449423,18.7542667 9.68487244,18.5862667 9.43969936,18.4596" id="Fill-232" fill="#FFFFFF"></path>
                        <path d="M25.1067949,18.9752667 C25.2133045,18.9759333 25.3017276,18.9026 25.3017276,18.8126 C25.3017276,18.7246 25.2133045,18.6506 25.1094744,18.6519333 C25.0043045,18.6512667 24.9152115,18.7252667 24.9152115,18.8139333 C24.9145417,18.9019333 25.001625,18.9752667 25.1067949,18.9752667" id="Fill-234" fill="#FFFFFF"></path>
                        <path d="M34.4205583,18.5456 L34.1666769,18.7576 L34.1653372,18.3289333 L34.1653372,17.8982667 L34.4239077,18.1122667 L34.6804686,18.3282667 L34.4205583,18.5456 Z M34.1646673,17.3649333 C33.999209,17.3622667 33.7513564,17.6056 33.6133628,17.9002667 L33.3681897,18.4389333 L33.8585359,18.6936 L34.3502218,18.9469333 L34.6550135,18.6916 L34.9584654,18.4389333 L34.7132923,17.8996 C34.5786481,17.6042667 34.3321353,17.3616 34.1646673,17.3649333 L34.1646673,17.3649333 Z" id="Fill-236" fill="#FFFFFF"></path>
                        <path d="M34.1654042,17.8984 L34.1654042,18.3290667 L34.1667439,18.7577333 L34.4206253,18.5457333 L34.6805356,18.3284 L34.4239747,18.1124 L34.1654042,17.8984 Z" id="Fill-238" fill="#FFFFFF"></path>
                        <path d="M11.6200651,18.3294 C11.5135554,18.3294 11.4251324,18.4034 11.427142,18.4920667 C11.427142,18.5780667 11.5142253,18.6507333 11.6180554,18.6514 C11.7259048,18.6514 11.8129881,18.5787333 11.8123183,18.4894 C11.8103087,18.4014 11.7259048,18.3280667 11.6200651,18.3294" id="Fill-240" fill="#FFFFFF"></path>
                        <path d="M27.420599,18.3288 C27.3147593,18.3288 27.2283458,18.4014667 27.2270061,18.4908 C27.2270061,18.5781333 27.3147593,18.6514667 27.4192593,18.6514667 C27.5257689,18.6514667 27.6121824,18.5794667 27.6128522,18.4894667 C27.6128522,18.4014667 27.525099,18.3288 27.420599,18.3288" id="Fill-242" fill="#FFFFFF"></path>
                        <path d="M29.5388006,18.2213333 L29.2829096,18.4346667 L29.0256788,18.6526667 L29.5401404,18.6513333 L30.0546019,18.6513333 L29.7973712,18.4346667 L29.5388006,18.2213333 Z" id="Fill-244" fill="#FFFFFF"></path>
                        <path d="M22.409958,18.0071333 C22.305458,18.0058 22.2170349,18.0791333 22.2170349,18.1678 C22.2170349,18.2551333 22.3047881,18.3284667 22.4086183,18.3284667 C22.5157978,18.3284667 22.603551,18.2551333 22.6022112,18.1678 C22.6022112,18.0791333 22.5157978,18.0058 22.409958,18.0071333" id="Fill-246" fill="#FFFFFF"></path>
                        <path d="M23.3735686,17.6855333 L23.3735686,18.0048667 C23.3735686,18.1835333 23.4512737,18.3288667 23.543716,18.3302 C23.6381679,18.3288667 23.8190333,18.1835333 23.9516679,18.0075333 L24.1921519,17.6842 L23.7821904,17.6822 L23.3735686,17.6855333 Z" id="Fill-248" fill="#FFFFFF"></path>
                        <path d="M26.2643333,18.0065333 C26.1591635,18.0065333 26.0714103,18.0778667 26.0720801,18.1678667 C26.0714103,18.2552 26.156484,18.3285333 26.2643333,18.3285333 C26.3701731,18.3285333 26.4579263,18.2552 26.4579263,18.1678667 C26.4559167,18.0792 26.3695032,18.0092 26.2643333,18.0065333" id="Fill-250" fill="#FFFFFF"></path>
                        <path d="M31.4676295,18.1679333 C31.46495,18.0792667 31.3778667,18.0072667 31.2747064,18.0066 C31.1688667,18.0052667 31.0804436,18.0792667 31.0824532,18.1679333 C31.0824532,18.2552667 31.1695365,18.3286 31.2747064,18.3292667 C31.381216,18.3292667 31.4696391,18.2566 31.4676295,18.1679333" id="Fill-252" fill="#FFFFFF"></path>
                        <path d="M32.6460679,17.6836 C32.4464462,17.6836 32.1764878,17.8289333 32.0465327,18.0069333 L31.8060487,18.3289333 L32.4075936,18.3282667 L33.0098083,18.3289333 L33.0077987,18.0062667 C33.0077987,17.8296 32.8456897,17.6842667 32.6460679,17.6836" id="Fill-254" fill="#FFFFFF"></path>
                        <path d="M16.0517359,16.9322667 L16.051066,17.3642667 L16.0524058,17.7916 L16.3082968,17.5769333 L16.5682071,17.3622667 L16.3096365,17.1456 L16.0517359,16.9322667 Z" id="Fill-256" fill="#FFFFFF"></path>
                        <path d="M37.4405413,17.3626 C37.332692,17.3612667 37.2476183,17.4339333 37.2482881,17.5219333 C37.2482881,17.6106 37.3347016,17.6826 37.4398715,17.6839333 C37.5457112,17.6839333 37.6321247,17.6106 37.6321247,17.5219333 C37.6301151,17.4339333 37.5463811,17.3646 37.4405413,17.3626" id="Fill-258" fill="#FFFFFF"></path>
                        <path d="M26.6496436,17.0384 C26.543134,17.0384 26.4573904,17.1110667 26.4573904,17.1990667 C26.4573904,17.2890667 26.5438038,17.3610667 26.6503135,17.3617333 C26.7554833,17.3590667 26.8418968,17.2877333 26.8425667,17.2004 C26.8425667,17.1110667 26.7568231,17.0404 26.6496436,17.0384" id="Fill-260" fill="#FFFFFF"></path>
                        <path d="M4.1042375,16.2864667 L4.10490737,16.7164667 L4.1042375,17.1444667 L4.36146827,16.9324667 L4.61936891,16.7184667 L4.36280801,16.5011333 L4.1042375,16.2864667 Z" id="Fill-262" fill="#FFFFFF"></path>
                        <path d="M14.896475,16.6614667 L14.4155071,16.8241333 L13.9325295,16.9868 L14.896475,16.9888 L15.8590808,16.9888 L15.3767731,16.8254667 L14.896475,16.6614667 Z" id="Fill-264" fill="#FFFFFF"></path>
                        <path d="M23.7588788,16.2864667 L23.7588788,16.7164667 L23.7568692,17.1444667 L24.0167795,16.9338 L24.2726705,16.7151333 L24.0167795,16.5011333 L23.7588788,16.2864667 Z" id="Fill-266" fill="#FFFFFF"></path>
                        <path d="M25.9437997,15.6419333 L25.6879087,15.8566 L25.6852292,15.4252667 L25.6852292,14.9959333 L25.9411202,15.2112667 L26.1996907,15.4252667 L25.9437997,15.6419333 Z M25.492976,16.3939333 C25.3878061,16.3939333 25.3007228,16.3206 25.3020625,16.2332667 C25.3020625,16.1432667 25.3878061,16.0706 25.4943157,16.0726 C25.597476,16.0706 25.6852292,16.1432667 25.6852292,16.2319333 C25.6879087,16.3206 25.5994856,16.3939333 25.492976,16.3939333 L25.492976,16.3939333 Z M27.3525401,15.3159333 L28.1892099,14.6872667 L27.3230657,14.8652667 L26.4555817,15.0446 L26.4549119,14.7239333 L26.4549119,14.4052667 L26.245242,14.4646 L25.9967196,14.5339333 L25.5351779,14.6599333 L25.2658894,15.5066 L24.9945913,16.3526 L25.2102901,16.5339333 C25.3315369,16.6352667 25.963226,16.7072667 26.6176907,16.6979333 L27.807383,16.6786 L27.1602869,16.3112667 L26.8548253,16.1379333 L26.5145304,15.9439333 L27.3525401,15.3159333 Z" id="Fill-268" fill="#FFFFFF"></path>
                        <path d="M25.4943827,16.0729333 C25.3878731,16.0709333 25.3014596,16.1429333 25.3014596,16.2329333 C25.3007897,16.3202667 25.3878731,16.3936 25.4923731,16.3936 C25.5995526,16.3936 25.6873058,16.3202667 25.6852962,16.2316 C25.6852962,16.1429333 25.5975429,16.0709333 25.4943827,16.0729333" id="Fill-270" fill="#FFFFFF"></path>
                        <path d="M25.6853631,14.9960667 L25.6853631,15.4254 L25.6873728,15.8567333 L25.9439337,15.6420667 L26.1998247,15.4254 L25.9412542,15.2107333 L25.6853631,14.9960667 Z" id="Fill-272" fill="#FFFFFF"></path>
                        <path d="M37.4398715,3.49153333 C37.5463811,3.4922 37.6327946,3.41953333 37.6321247,3.33086667 C37.6327946,3.24153333 37.5457112,3.16953333 37.4405413,3.16953333 C37.3353715,3.16953333 37.248958,3.24153333 37.248958,3.3302 C37.2476183,3.41953333 37.3333619,3.49153333 37.4398715,3.49153333" id="Fill-274" fill="#FFFFFF"></path>
                        <path d="M40.3721683,20.5878667 C40.1819247,20.5878667 39.9387612,20.7805333 39.8282324,21.0172 L39.6326298,21.4478667 L40.1745561,21.4452 L40.7164824,21.4452 L40.7151426,21.0178667 L40.7171522,20.5858667 L40.3721683,20.5878667 Z" id="Fill-276" fill="#FFFFFF"></path>
                        <path d="M30.5269285,15.1041333 C30.4318067,15.1041333 30.2489317,15.2488 30.1189766,15.4248 L29.8811721,15.7481333 L30.2884542,15.7481333 L30.6964061,15.7481333 L30.6957362,15.4248 C30.6964061,15.2488 30.6200407,15.1041333 30.5269285,15.1041333" id="Fill-278" fill="#FFFFFF"></path>
                        <path d="M19.9057763,14.3522 L19.9037667,14.7822 L19.9051064,15.2102 L20.1636769,14.9975333 L20.4209077,14.7822 L20.1630071,14.5655333 L19.9057763,14.3522 Z" id="Fill-280" fill="#FFFFFF"></path>
                        <path d="M30.503684,14.4576667 C30.3971744,14.4576667 30.310091,14.529 30.310091,14.6196667 C30.3114308,14.7083333 30.3985141,14.781 30.503684,14.7823333 C30.608184,14.781 30.6959372,14.7083333 30.6966071,14.6203333 C30.6966071,14.531 30.6108635,14.4583333 30.503684,14.4576667" id="Fill-282" fill="#FFFFFF"></path>
                        <path d="M3.71892724,13.9759333 C3.71892724,13.8866 3.63184391,13.8139333 3.52533429,13.8139333 C3.42217404,13.8152667 3.33308109,13.8866 3.33174135,13.9759333 C3.33174135,14.0419333 3.38868045,14.0886 3.45901699,14.1112667 C3.4824625,14.1199333 3.50188878,14.1346 3.52533429,14.1352667 C3.55145929,14.1352667 3.57088558,14.1199333 3.59500096,14.1126 C3.66399776,14.0886 3.71825737,14.0412667 3.71892724,13.9759333" id="Fill-284" fill="#FFFFFF"></path>
                        <path d="M29.3461455,13.8138 C29.2403058,13.8138 29.1538923,13.8864667 29.1518827,13.9758 C29.1545622,14.0624667 29.2423154,14.1364667 29.3468154,14.1364667 C29.453325,14.1364667 29.5404083,14.0624667 29.5404083,13.9758 C29.5383987,13.8871333 29.453325,13.8138 29.3461455,13.8138" id="Fill-286" fill="#FFFFFF"></path>
                        <path d="M39.9466657,10.9101333 L39.945326,10.4268 L39.945326,9.94413333 L39.6023516,9.94413333 C39.4114381,9.9428 39.1575567,10.1601333 39.0356401,10.4268 L38.8145824,10.9101333 L39.3792843,10.9101333 L39.9466657,10.9101333 Z" id="Fill-288" fill="#FFFFFF"></path>
                        <path d="M38.0175019,9.2982 C37.8058224,9.2982 37.6323256,9.4442 37.6329955,9.62086667 C37.6329955,9.77886667 37.7817071,9.89753333 37.9625724,9.9242 C37.9826686,9.9262 37.9967359,9.9442 38.0175019,9.9442 C38.2298513,9.9442 38.4026782,9.7982 38.4026782,9.62086667 C38.4026782,9.5322 38.3604763,9.45286667 38.2914795,9.39486667 C38.2198032,9.3362 38.1240115,9.29686667 38.0175019,9.2982" id="Fill-290" fill="#FFFFFF"></path>
                        <path d="M41.486567,7.4492 L41.4852272,6.9332 L41.2279965,7.14853333 L41.1234965,7.23586667 L40.9707657,7.36453333 L40.232567,6.80186667 L39.4910189,6.24186667 L38.4373106,6.19786667 L38.3696535,6.19453333 L37.2482881,6.14853333 L37.2523074,6.51186667 C37.2563266,6.71453333 37.3621663,7.20586667 37.4901119,7.60253333 L37.7252369,8.3292 L38.215583,8.32786667 L38.6255446,8.33053333 L38.7079388,8.3292 L38.9390446,8.84253333 L39.1748394,9.35186667 L39.6551375,9.20386667 L40.1367753,9.05586667 L40.049692,8.7132 L39.9599292,8.3692 L40.7222433,8.16786667 L41.1248362,8.0592 L41.486567,7.96453333 L41.486567,7.4492 Z" id="Fill-292" fill="#FFFFFF"></path>
                        <path d="M1.67534936,8.12106667 L1.44558333,8.6204 L2.00559615,8.4404 C2.17239423,8.3864 2.31708654,8.30906667 2.41622756,8.2324 C2.50130128,8.1704 2.55355128,8.1044 2.55221154,8.05173333 C2.54417308,7.95373333 2.34991026,7.66506667 2.10138782,7.36973333 C2.05784615,7.32173333 2.02100321,7.2724 1.97679167,7.22373333 L1.93258013,7.1744 L1.41476923,6.60373333 L1.13409295,6.83973333 L0.852076923,7.07706667 L1.37591667,7.3484 L1.79190705,7.56106667 L1.90578526,7.62106667 L1.67534936,8.12106667 Z" id="Fill-294" fill="#FFFFFF"></path>
                        <g id="Group-298" transform="translate(40.862179, 8.000000)" fill="#FFFFFF">
                            <path d="M1.00902788,0.221333333 L0.753136859,0.437333333 L0.496575962,0.651333333 L1.00969776,0.653333333 L1.52281955,0.652 L1.26692853,0.437333333 L1.00902788,0.221333333 Z" id="Fill-296"></path>
                        </g>
                        <path d="M32.4305702,8.0078 C32.3227208,8.00913333 32.2369772,8.07913333 32.2369772,8.16913333 C32.2363074,8.2578 32.3247304,8.32913333 32.4312401,8.33046667 C32.5370798,8.32913333 32.6228234,8.25913333 32.6234933,8.16846667 C32.6234933,8.07846667 32.5364099,8.00646667 32.4305702,8.0078" id="Fill-299" fill="#FFFFFF"></path>
                        <path d="M3.71993205,7.5228 L3.33475577,7.3248 L3.33341603,7.66413333 L3.33475577,8.00813333 L3.71859231,8.0068 C3.93228141,8.00813333 4.10443846,7.94413333 4.10644808,7.86413333 C4.10376859,7.7888 3.93161154,7.6328 3.71993205,7.5228" id="Fill-301" fill="#FFFFFF"></path>
                        <path d="M5.13389744,8.00653333 L5.64500962,8.0052 L6.16014103,8.0052 L5.90425,7.7932 L5.64500962,7.57653333 L5.38978846,7.79186667 L5.13389744,8.00653333 Z" id="Fill-303" fill="#FFFFFF"></path>
                        <path d="M7.95928269,8.00653333 C8.16962244,8.00653333 8.34445897,7.9412 8.3437891,7.86586667 C8.3437891,7.7892 8.17163205,7.63386667 7.95861282,7.52453333 L7.57276667,7.32386667 L7.57343654,7.66386667 L7.57142692,8.0092 L7.95928269,8.00653333 Z" id="Fill-305" fill="#FFFFFF"></path>
                        <path d="M33.0078657,7.36393333 L33.3923721,7.36326667 L33.779558,7.36326667 L33.7788881,6.87993333 L33.7802279,6.7326 L33.7802279,6.3946 L33.3937119,6.39593333 L33.0071958,6.39326667 L33.0078657,6.43193333 L33.0092054,6.87726667 L33.0078657,7.36393333 Z" id="Fill-307" fill="#FFFFFF"></path>
                        <path d="M35.7658619,5.91146667 L35.7665317,6.71746667 L35.7665317,7.5228 L35.9614644,7.12213333 L36.1550574,6.7188 L35.9614644,6.31413333 L35.7658619,5.91146667 Z" id="Fill-309" fill="#FFFFFF"></path>
                        <path d="M3.38171378,5.9388 C3.30333878,5.9948 3.34018173,6.26813333 3.46745737,6.54146667 L3.69521378,7.04013333 L4.3811625,7.03013333 L5.06778109,7.01946667 L4.39857917,6.5928 L3.72669776,6.16813333 L4.59150224,5.79546667 L5.24864647,5.51146667 L5.45429712,5.42346667 L5.23122981,5.47146667 L4.4903516,5.6268 C3.96048301,5.73746667 3.46276827,5.87746667 3.38171378,5.9388" id="Fill-311" fill="#FFFFFF"></path>
                        <path d="M24.1683715,5.74866667 L23.7564003,5.74866667 L23.7590798,6.07133333 C23.7570702,6.24866667 23.8367849,6.39466667 23.9319067,6.39466667 C24.0216696,6.39466667 24.2065542,6.24866667 24.3365093,6.07133333 L24.5743138,5.74866667 L24.1683715,5.74866667 Z" id="Fill-313" fill="#FFFFFF"></path>
                        <path d="M9.62840224,6.07293333 L9.36983173,5.8596 L9.11394071,5.64226667 L8.85804968,5.85693333 L8.60014904,6.0736 L9.11528045,6.0716 L9.62840224,6.07293333 Z" id="Fill-315" fill="#FFFFFF"></path>
                        <path d="M3.14069391,5.1048 C3.24653365,5.1068 3.33361699,5.03346667 3.33361699,4.9428 C3.33361699,4.8528 3.24854327,4.78146667 3.14069391,4.78146667 C3.03686378,4.78146667 2.95045032,4.8528 2.94978045,4.94213333 C2.94844071,5.0308 3.03753365,5.10613333 3.14069391,5.1048" id="Fill-317" fill="#FFFFFF"></path>
                        <path d="M31.7240564,4.9974 L31.9812872,4.7834 L31.7220468,4.56673333 L31.4661558,4.3514 L31.4668256,4.78006667 L31.4688353,5.21206667 L31.7240564,4.9974 Z" id="Fill-319" fill="#FFFFFF"></path>
                        <path d="M22.0262554,3.8138 C21.892951,3.99246667 21.8741946,4.13646667 21.9793644,4.13513333 C22.0852042,4.13646667 22.2801369,3.99246667 22.4094221,3.8138 C22.5427266,3.63513333 22.5601433,3.4918 22.4563131,3.4918 C22.3518131,3.4918 22.1548708,3.63513333 22.0262554,3.8138" id="Fill-321" fill="#FFFFFF"></path>
                        <path d="M24.1454619,3.49153333 L24.144792,3.92086667 L24.4013529,3.70553333 L24.6572439,3.49153333 L24.4020228,3.27753333 L24.1434522,3.06086667 L24.1454619,3.49153333 Z" id="Fill-323" fill="#FFFFFF"></path>
                        <path d="M26.6260641,3.8138 C26.7211859,3.8138 26.9047308,3.6698 27.034016,3.4918 L27.2731603,3.16913333 L26.8638686,3.16913333 L26.4579263,3.16913333 L26.4552468,3.4918 C26.4579263,3.66846667 26.5322821,3.81246667 26.6260641,3.8138" id="Fill-325" fill="#FFFFFF"></path>
                        <path d="M14.5101599,1.23373333 L14.5101599,1.89573333 L14.5094901,2.5624 L14.1256535,2.36306667 L13.7411471,2.1624 L12.9721343,2.61573333 L12.2044612,3.0644 L12.4583426,3.27706667 C12.5996856,3.39506667 13.0746247,3.48973333 13.5154003,3.48506667 C13.9575157,3.48306667 14.4907337,3.3764 14.7017433,3.24506667 L15.0889292,3.00773333 L15.199458,2.1204 L15.3106567,1.23373333 L14.9107433,1.2344 L14.5101599,1.23373333 Z" id="Fill-327" fill="#FFFFFF"></path>
                        <path d="M28.9624429,3.49153333 C29.0689526,3.4922 29.155366,3.4202 29.1546962,3.33086667 C29.1540263,3.24086667 29.0676128,3.16953333 28.9617731,3.16953333 C28.8566032,3.16953333 28.7701897,3.24153333 28.7701897,3.3302 C28.76885,3.41953333 28.8539237,3.49153333 28.9624429,3.49153333" id="Fill-329" fill="#FFFFFF"></path>
                        <path d="M13.1609042,2.50126667 L12.3898817,2.31593333 C11.9671926,2.2146 11.3944522,1.97926667 11.1204747,1.78993333 L10.6167311,1.4506 L10.0138465,1.95593333 L9.40828237,2.46193333 L9.73450994,2.8986 L10.0600676,3.3306 L10.1980612,2.75393333 L10.3313657,2.18193333 L11.7481446,2.33926667 L13.1609042,2.50126667 Z" id="Fill-331" fill="#FFFFFF"></path>
                        <path d="M22.0253176,3.16926667 C22.1304875,3.16793333 22.2175708,3.09726667 22.2175708,3.0066 C22.2195804,2.91793333 22.1324971,2.84526667 22.0253176,2.8466 C21.9181381,2.8466 21.8317247,2.91793333 21.8317247,3.00726667 C21.8317247,3.09726667 21.9208176,3.16926667 22.0253176,3.16926667" id="Fill-333" fill="#FFFFFF"></path>
                        <path d="M28.5764628,2.52406667 C28.6829724,2.52473333 28.7707256,2.4514 28.7707256,2.36206667 C28.7680462,2.27273333 28.6829724,2.2014 28.5764628,2.20206667 C28.4706231,2.20206667 28.3842096,2.27406667 28.3842096,2.3634 C28.3822,2.4514 28.4699532,2.52473333 28.5764628,2.52406667" id="Fill-335" fill="#FFFFFF"></path>
                        <path d="M30.0055003,2.2422 L29.803199,1.81686667 L29.5982183,1.39553333 L29.5687439,2.0142 L29.5399394,2.63153333 L29.7717151,2.43753333 L30.0055003,2.2422 Z" id="Fill-337" fill="#FFFFFF"></path>
                        <path d="M23.9521369,2.2018 C24.0579766,2.2018 24.1457298,2.1298 24.1457298,2.03913333 C24.1430503,1.9498 24.0573067,1.87846667 23.951467,1.87846667 C23.8449574,1.87913333 23.7585439,1.9518 23.7572042,2.04046667 C23.7572042,2.12913333 23.8449574,2.2018 23.9521369,2.2018" id="Fill-339" fill="#FFFFFF"></path>
                        <path d="M39.4154574,3.2708 C39.3511497,3.2708 39.2285631,3.0988 39.1388003,2.8868 L38.978701,2.50413333 L39.2533484,2.5028 L39.5306753,2.50413333 L39.5300054,2.8868 C39.5300054,3.0988 39.4777554,3.2708 39.4154574,3.2708 L39.4154574,3.2708 Z M34.5401304,2.5288 C34.4771625,2.80746667 34.2728516,3.10813333 34.0846176,3.19813333 L33.742983,3.36746667 L33.8568612,2.86346667 C33.9184894,2.5888 34.1248099,2.2848 34.3117042,2.19146667 L34.6526689,2.0248 L34.5401304,2.5288 Z M31.3368035,1.7368 C31.2671369,1.7368 31.2081881,1.64946667 31.2068484,1.54546667 C31.2068484,1.44013333 31.2651272,1.35413333 31.3381433,1.35413333 C31.4091497,1.35413333 31.4674285,1.4388 31.4674285,1.54546667 C31.4667587,1.6508 31.4091497,1.7368 31.3368035,1.7368 L31.3368035,1.7368 Z M6.89251186,2.1208 C6.82150545,2.11946667 6.76188686,2.0348 6.75987724,1.92946667 C6.76188686,1.8228 6.81815609,1.73546667 6.89184199,1.73546667 C6.96485801,1.73546667 7.02179712,1.82413333 7.02179712,1.92946667 C7.02179712,2.0348 6.96418814,2.11946667 6.89251186,2.1208 L6.89251186,2.1208 Z M4.16144455,1.35413333 L3.81445096,1.35413333 L3.98794776,1.09813333 L4.16144455,0.8428 L4.3336016,1.09613333 L4.50776827,1.35413333 L4.16144455,1.35413333 Z M34.1850984,0.6048 L34.3793612,0.894133333 L34.6915215,1.35413333 L34.0685407,1.35413333 L33.4442202,1.35413333 L33.7557106,0.894133333 L33.9513131,0.605466667 L32.5090792,0.604133333 C32.4675471,0.727466667 32.363717,0.8488 32.2344317,0.9128 L31.9229413,1.0648 L32.0274413,0.6068 L32.0274413,0.605466667 L17.9594638,0.605466667 L17.8864478,1.25413333 L17.2453804,2.35813333 L16.6016337,3.46346667 L16.7758003,2.6968 C16.8488163,2.3608 16.955326,1.5028 17.0357106,0.605466667 L8.68173942,0.6048 L8.75542532,0.712133333 L8.9269125,0.971466667 L8.58125865,0.970133333 L8.23493494,0.971466667 L8.41044135,0.713466667 L8.48345737,0.605466667 L7.6159734,0.605466667 L7.5422875,0.712133333 L7.54161763,0.605466667 L4.88423622,0.605466667 L4.80988045,1.92946667 L4.62231635,0.605466667 L3.11376506,0.604133333 L3.11845417,1.1848 L3.11979391,1.97346667 L2.79423622,2.5668 L2.47068814,3.16146667 L1.81957276,2.8688 L1.17046699,2.58146667 L1.47123942,2.5428 L1.77134199,2.5028 L1.64138686,1.7628 L1.50875224,1.02146667 L2.0821625,1.24013333 L2.65490288,1.46346667 L2.88332917,0.9288 L3.02132276,0.6048 L0.35054391,0.605466667 L0.349204167,3.56346667 L14.7742234,3.56213333 L14.9081978,3.36213333 L15.3168196,2.7628 L15.6551048,3.16546667 C15.7629542,3.29413333 15.9344413,3.43813333 16.1159766,3.56213333 L17.942717,3.56213333 L17.9447266,3.2928 L17.942717,2.50546667 L18.2153548,2.50413333 L18.4839734,2.50413333 L18.4096176,3.55746667 L18.4096176,3.56213333 L24.2133869,3.56213333 C24.1986497,3.53146667 24.1852522,3.5028 24.1852522,3.46213333 C24.186592,3.35546667 24.2448708,3.2708 24.3152074,3.2708 C24.3868837,3.2708 24.4444926,3.35746667 24.4465022,3.46213333 C24.4465022,3.50146667 24.4324349,3.53146667 24.4183676,3.56346667 L28.1040022,3.56213333 L28.105342,3.42946667 L28.126108,2.6968 L28.2647715,3.19813333 L28.3639125,3.56213333 L39.0101849,3.56213333 L39.0095151,3.52613333 L39.0336304,3.56213333 L40.0170022,3.56213333 L40.0170022,0.6048 L34.1850984,0.6048 Z" id="Fill-341" fill="#9E2F50"></path>
                        <path d="M31.0770942,24.3672 C31.0060878,24.3645333 30.9484788,24.2785333 30.9484788,24.1745333 C30.9464692,24.0665333 31.0060878,23.9832 31.0770942,23.9832 C31.1501103,23.9832 31.2083891,24.0665333 31.2083891,24.1745333 C31.2063795,24.2785333 31.1487705,24.3645333 31.0770942,24.3672 L31.0770942,24.3672 Z M30.2987032,24.7485333 C30.2256872,24.7485333 30.1680782,24.6625333 30.1680782,24.5572 C30.1660686,24.4518667 30.2250173,24.3645333 30.2993731,24.3645333 C30.3690397,24.3645333 30.4286583,24.4518667 30.4279885,24.5572 C30.4273186,24.6612 30.3677,24.7485333 30.2987032,24.7485333 L30.2987032,24.7485333 Z M29.1478635,24.3632 L28.6936904,24.3632 L28.6930205,23.7892 L28.6923506,23.2152 L29.0574308,23.2138667 L29.4184917,23.2152 L29.2577224,23.6005333 L29.0969532,23.9818667 L29.5169628,23.9832 L29.9376423,23.9818667 L29.7775429,23.5992 L29.6181135,23.2138667 L30.022716,23.2158667 L30.4279885,23.2158667 L30.4273186,23.5585333 C30.4279885,23.7445333 30.2410942,24.0025333 30.0166872,24.1305333 C29.7896006,24.2625333 29.3997353,24.3645333 29.1478635,24.3632 L29.1478635,24.3632 Z M28.0874564,23.2152 L27.7397929,23.2158667 L27.9132897,22.9572 L28.0867865,22.7032 L28.2596135,22.9585333 L28.4331103,23.2138667 L28.0874564,23.2152 Z M27.2025558,24.6445333 L27.0458058,24.8772 L27.0659019,24.1405333 L27.0873378,23.4085333 L27.2239917,23.9098667 L27.3606455,24.4138667 L27.2025558,24.6445333 Z M26.6552705,23.2152 C26.584934,23.2152 26.5266551,23.1278667 26.5259853,23.0218667 C26.5266551,22.9172 26.5835942,22.8305333 26.6552705,22.8305333 C26.7256071,22.8305333 26.7858955,22.9172 26.7852256,23.0218667 C26.7858955,23.1278667 26.7276167,23.2152 26.6552705,23.2152 L26.6552705,23.2152 Z M25.5727577,25.1185333 C25.4515109,25.1105333 25.1936103,24.8345333 24.9959981,24.5052 L24.6362769,23.9078667 L25.1058571,24.0418667 L25.5727577,24.1732 L25.6812769,24.6525333 L25.7884564,25.1325333 L25.5727577,25.1185333 Z M25.0964788,23.2152 C25.1668154,23.2152 25.2271038,23.3025333 25.226434,23.4065333 C25.2271038,23.5132 25.1681551,23.5992 25.0937994,23.5992 C25.0241327,23.6005333 24.9658538,23.5132 24.9658538,23.4085333 C24.9658538,23.3025333 25.0254724,23.2152 25.0964788,23.2152 L25.0964788,23.2152 Z M23.0151872,25.1325333 C22.9448506,25.1312 22.8865718,25.0458667 22.8859019,24.9385333 C22.8859019,24.8358667 22.942841,24.7485333 23.0145173,24.7485333 C23.0882032,24.7485333 23.1464821,24.8345333 23.1458122,24.9405333 C23.1458122,25.0485333 23.0861936,25.1325333 23.0151872,25.1325333 L23.0151872,25.1325333 Z M19.6350141,24.7485333 C19.5633378,24.7485333 19.505059,24.6625333 19.5057288,24.5552 C19.505059,24.4518667 19.5640077,24.3645333 19.6343442,24.3645333 C19.7053506,24.3645333 19.7636295,24.4492 19.7642994,24.5552 C19.7656391,24.6625333 19.7060205,24.7485333 19.6350141,24.7485333 L19.6350141,24.7485333 Z M17.8149724,24.3632 C17.7426263,24.3645333 17.6843474,24.2805333 17.6843474,24.1745333 C17.6843474,24.0685333 17.7432962,23.9832 17.8143026,23.9832 C17.8866487,23.9845333 17.9435878,24.0685333 17.9435878,24.1758667 C17.9435878,24.2805333 17.8866487,24.3645333 17.8149724,24.3632 L17.8149724,24.3632 Z M15.9942609,23.2152 C15.9225846,23.2138667 15.862966,23.1278667 15.8636359,23.0218667 C15.862966,22.9192 15.9225846,22.8325333 15.993591,22.8325333 C16.0659372,22.8305333 16.1228763,22.9172 16.1235462,23.0218667 C16.1235462,23.1292 16.0659372,23.2152 15.9942609,23.2152 L15.9942609,23.2152 Z M14.7074372,23.5978667 C14.6464788,23.5992 14.5111647,23.3985333 14.4066647,23.1565333 L14.2244596,22.7132 L14.5232224,22.9858667 C14.6893506,23.1358667 14.823325,23.3358667 14.823325,23.4272 C14.8226551,23.5212 14.7724147,23.5992 14.7074372,23.5978667 L14.7074372,23.5978667 Z M39.9636135,23.2152 L40.0172032,23.1352 L40.0172032,22.4665333 L38.8234917,22.4658667 C38.7812897,22.6238667 38.7337288,22.7838667 38.6854981,22.9418667 C38.5053026,23.5112 38.262809,23.9752 38.1482609,23.9772 L37.9379212,23.9832 L38.1274949,23.5338667 L38.3137192,23.0872 L37.844809,23.3485333 L37.3765686,23.6158667 L37.7054756,23.0312 L38.0216551,22.4665333 L37.3075718,22.4672 L36.9652673,23.2718667 L36.616934,24.0938667 L36.381809,23.5598667 L36.1486936,23.0245333 L35.953091,23.4452 L35.7588282,23.8678667 L35.1144115,22.9645333 L34.7580397,22.4672 L34.3286519,22.4652 L34.3286519,22.7838667 L34.5885622,23.0205333 C34.730575,23.1525333 34.8478026,23.5112 34.8484724,23.8145333 L34.8484724,24.3632 L34.4579372,24.3645333 L34.0680718,24.3672 L34.1337192,23.8865333 L34.1986968,23.4052 L33.8811776,23.5005333 L33.5623186,23.5898667 L33.7981135,22.6745333 L33.8537128,22.4665333 L31.616341,22.4658667 L31.7442865,22.9605333 L31.537966,23.2638667 L31.3316455,23.5672 L31.000059,23.2658667 L30.6711519,22.9605333 L30.7997673,22.4672 L30.4279885,22.4652 L30.4279885,22.8305333 L30.022716,22.8292 L29.615434,22.8305333 L29.7701744,22.4672 L29.2878667,22.4652 C29.3421263,22.4898667 29.3856679,22.5518667 29.3876776,22.6405333 C29.3870077,22.7432 29.3300686,22.8305333 29.2577224,22.8325333 C29.1853763,22.8305333 29.1270974,22.7432 29.1270974,22.6392 C29.1264276,22.5498667 29.1726487,22.4885333 29.2262385,22.4652 L25.9063538,22.4672 C25.9619532,22.4885333 26.0061647,22.5498667 26.0075045,22.6405333 C26.0054949,22.7445333 25.9485558,22.8305333 25.8762096,22.8305333 C25.8045333,22.8305333 25.7455846,22.7445333 25.7462545,22.6365333 C25.7469244,22.5498667 25.790466,22.4898667 25.8453955,22.4672 L24.3053603,22.4652 C24.2169372,22.6652 24.1010494,22.8292 24.0407609,22.8325333 C23.9798026,22.8305333 23.9315718,22.6672 23.9282224,22.4652 L23.3059115,22.4672 C23.360841,22.4898667 23.4050526,22.5498667 23.4057224,22.6392 C23.4050526,22.7445333 23.3467737,22.8305333 23.2757673,22.8305333 C23.2027513,22.8305333 23.1458122,22.7445333 23.1464821,22.6405333 C23.1458122,22.5518667 23.1906936,22.4912 23.2449532,22.4672 L0.672953205,22.4672 L0.672283333,25.4238667 L22.3647417,25.4238667 L22.3660814,25.1325333 L22.3640718,24.6212 L22.5389083,24.8772 L22.7110654,25.1325333 L22.5395782,25.3865333 L22.5147929,25.4238667 L32.745075,25.4238667 L32.7685205,25.3885333 L32.7912962,25.4238667 L36.669184,25.4238667 L36.669184,25.3865333 L36.6939692,25.4238667 L38.2567801,25.4238667 L38.2701776,24.9385333 L38.4008026,25.4238667 L40.0172032,25.4232 L40.0172032,23.2152 L39.9636135,23.2152 Z" id="Fill-343" fill="#9E2F50"></path>
                        <path d="M39.4376971,17.6836 L38.9982612,17.6836 L39.9541683,18.4416 L40.0171362,18.4916 L40.0171362,17.9736 C39.8697644,17.8069333 39.6373189,17.6822667 39.4376971,17.6836" id="Fill-345" fill="#FFFFFF"></path>
                        <path d="M40.3103391,23.2148667 L40.6573327,23.2148667 L40.483166,22.9568667 L40.3103391,22.7042 L40.1361724,22.9568667 L40.0169353,23.1355333 L40.0169353,23.2148667 L40.3103391,23.2148667 Z" id="Fill-347" fill="#FFFFFF"></path>
                    </g>
                </g>
            </g>
        </g>
    </g>
</svg>