<?xml version="1.0" encoding="UTF-8" standalone="no"?>
<svg width="42px" height="35px" viewBox="0 0 42 35" version="1.1" xmlns="http://www.w3.org/2000/svg" xmlns:xlink="http://www.w3.org/1999/xlink">
    <!-- Generator: Sketch 3.6 (26304) - http://www.bohemiancoding.com/sketch -->
    <title>tax icon</title>
    <desc>Created with Sketch.</desc>
    <defs></defs>
    <g id="Page-1" stroke="none" stroke-width="1" fill="none" fill-rule="evenodd">
        <g id="Large-Desktop-Copy-3" transform="translate(-209.000000, -792.000000)">
            <g id="fact-3" transform="translate(180.000000, 701.000000)">
                <g id="tax-icon" transform="translate(29.000000, 90.000000)">
                    <ellipse id="Oval-1-Copy-6" fill="#EADECE" cx="21.5747863" cy="18.5" rx="17.5747863" ry="17.5"></ellipse>
                    <text id="TAX" transform="translate(22.500000, 23.000000) rotate(-20.000000) translate(-22.500000, -23.000000) " font-family="Metric-Black, Metric" font-size="17.1100006" font-weight="700" letter-spacing="-0.0532607101" fill="#9E2F50">
                        <tspan x="7" y="24">TAX</tspan>
                    </text>
                    <g id="tax-text" transform="translate(22.469846, 18.328990) rotate(-20.000000) translate(-22.469846, -18.328990) translate(2.969846, 6.828990)">
                        <path d="M32.3329531,18.1161564 L32.1031719,18.3078231 L31.8769531,18.4977205 L32.3329531,18.4977205 L32.7871719,18.4977205 L32.5603594,18.3060538 L32.3329531,18.1161564 Z" id="Fill-210" fill="#FFFFFF"></path>
                        <path d="M18.6680344,17.5459923 L18.6674406,17.9269667 L18.6674406,18.3061718 L18.8966281,18.1150949 L19.1228469,17.9269667 L18.8966281,17.7353 L18.6680344,17.5459923 Z" id="Fill-212" fill="#FFFFFF"></path>
                        <path d="M19.5209562,17.6404692 C19.42655,17.6428282 19.3511437,17.7047513 19.3511437,17.7831872 C19.3511437,17.8604436 19.4277375,17.9247256 19.5227375,17.9264949 C19.614175,17.9264949 19.6919562,17.8628026 19.69255,17.7843667 C19.69255,17.7047513 19.61655,17.6404692 19.5209562,17.6404692" id="Fill-214" fill="#FFFFFF"></path>
                        <path d="M22.8817,17.213141 L22.266575,17.1152436 L21.65145,17.0138077 L22.1246687,17.4596538 C22.38295,17.7038077 22.7231687,17.9108077 22.8811062,17.9155256 L23.1661062,17.9249615 L23.0230125,17.5699359 L22.8817,17.213141 Z" id="Fill-216" fill="#FFFFFF"></path>
                        <path d="M15.0820219,17.3559769 C14.9882094,17.3547974 14.9122094,17.4190795 14.9128031,17.4986949 C14.9092406,17.5759513 14.9870219,17.6402333 15.0838031,17.6390538 C15.1764281,17.6390538 15.2530219,17.5759513 15.2518344,17.4975154 C15.2518344,17.4190795 15.1746469,17.3547974 15.0820219,17.3559769" id="Fill-218" fill="#FFFFFF"></path>
                        <path d="M24.870525,16.6429769 L24.8444,17.1890795 L24.8153062,17.7351821 L25.0237125,17.5635667 L25.22915,17.3919513 L25.0504312,17.0174641 L24.870525,16.6429769 Z" id="Fill-220" fill="#FFFFFF"></path>
                        <path d="M29.0870406,17.3559769 C28.9926344,17.3547974 28.9136656,17.420259 28.9166344,17.4975154 C28.9166344,17.5759513 28.9926344,17.6390538 29.0888219,17.6390538 C29.1796656,17.6425923 29.2568531,17.5747718 29.2580406,17.4986949 C29.2580406,17.420259 29.1808531,17.3559769 29.0870406,17.3559769" id="Fill-222" fill="#FFFFFF"></path>
                        <path d="M12.6899219,17.0714846 C12.5955156,17.0708949 12.5201094,17.1345872 12.5171406,17.2142026 C12.5195156,17.2926385 12.5967031,17.3545615 12.6905156,17.3539718 C12.7849219,17.3545615 12.8609219,17.291459 12.8609219,17.2153821 C12.8609219,17.1345872 12.7849219,17.0714846 12.6899219,17.0714846" id="Fill-224" fill="#FFFFFF"></path>
                        <path d="M28.7243781,16.5013205 L28.1935656,16.4989615 L28.4043469,16.7855769 L28.6145344,17.0704231 L28.0617531,17.0716026 L27.5101594,17.0704231 L27.7203469,16.7855769 L27.9335031,16.4995513 L27.4567219,16.4995513 L26.9799406,16.4995513 L26.9799406,16.9277051 L26.9799406,17.3546795 L27.5790344,17.3546795 C27.9073781,17.3570385 28.4191906,17.2780128 28.7160656,17.1812949 C29.0117531,17.0875256 29.2569719,16.8940897 29.2569719,16.7543205 L29.2569719,16.500141 L28.7243781,16.5013205 Z" id="Fill-226" fill="#FFFFFF"></path>
                        <path d="M30.1110812,17.0714846 C30.0154875,17.0703051 29.940675,17.1334077 29.9400812,17.2136128 C29.9424562,17.291459 30.0178625,17.3545615 30.1110812,17.355741 C30.2054875,17.3545615 30.2820812,17.291459 30.282675,17.2136128 C30.282675,17.1334077 30.2054875,17.0714846 30.1110812,17.0714846" id="Fill-228" fill="#FFFFFF"></path>
                        <path d="M34.7230344,16.3550051 L34.3816281,16.1786718 L34.3816281,15.6272615 L34.3816281,15.0734923 L33.9814406,15.0723128 L33.5848156,15.0734923 L33.7896594,15.2451077 L33.9956906,15.4173128 L33.6851594,16.0972872 L33.3764094,16.7790308 L33.7932219,16.7129795 L34.2112219,16.6416205 L34.1263156,17.0001846 L34.0378469,17.3569795 L34.5526281,17.3558 L35.0644406,17.3546205 L35.0650344,16.9447487 C35.0632531,16.7188769 34.9106594,16.4540821 34.7230344,16.3550051" id="Fill-230" fill="#FFFFFF"></path>
                        <path d="M8.36700625,16.3296462 L7.9745375,16.1255949 L8.21738125,16.456441 C8.350975,16.6363128 8.52850625,16.7861077 8.61163125,16.7849282 C8.69475625,16.7861077 8.76125625,16.7277231 8.76185,16.6593128 C8.76125625,16.5903128 8.58431875,16.4416974 8.36700625,16.3296462" id="Fill-232" fill="#FFFFFF"></path>
                        <path d="M22.25375,16.7858128 C22.3481562,16.7864026 22.4265312,16.7215308 22.4265312,16.6419154 C22.4265312,16.5640692 22.3481562,16.4986077 22.256125,16.4997872 C22.1629062,16.4991974 22.0839375,16.564659 22.0839375,16.6430949 C22.0833437,16.720941 22.1605312,16.7858128 22.25375,16.7858128" id="Fill-234" fill="#FFFFFF"></path>
                        <path d="M30.5091313,16.4057231 L30.2841,16.5932615 L30.2829125,16.2140564 L30.2829125,15.8330821 L30.5121,16.0223897 L30.7395063,16.2134667 L30.5091313,16.4057231 Z M30.2823188,15.3612872 C30.1356625,15.3589282 29.915975,15.5741846 29.7936625,15.8348513 L29.57635,16.3113641 L30.010975,16.5366462 L30.4467875,16.7607487 L30.7169438,16.5348769 L30.9859125,16.3113641 L30.7686,15.8342615 C30.6492563,15.5730051 30.4307563,15.3583385 30.2823188,15.3612872 L30.2823188,15.3612872 Z" id="Fill-236" fill="#FFFFFF"></path>
                        <path d="M30.2829719,15.8332 L30.2829719,16.2141744 L30.2841594,16.5933795 L30.5091906,16.405841 L30.7395656,16.2135846 L30.5121594,16.0225077 L30.2829719,15.8332 Z" id="Fill-238" fill="#FFFFFF"></path>
                        <path d="M10.2996031,16.2144692 C10.2051969,16.2144692 10.1268219,16.2799308 10.1286031,16.3583667 C10.1286031,16.4344436 10.2057906,16.4987256 10.2978219,16.4993154 C10.3934156,16.4993154 10.4706031,16.4350333 10.4700094,16.3560077 C10.4682281,16.2781615 10.3934156,16.2132897 10.2996031,16.2144692" id="Fill-240" fill="#FFFFFF"></path>
                        <path d="M24.3046219,16.2139385 C24.2108094,16.2139385 24.1342156,16.2782205 24.1330281,16.3572462 C24.1330281,16.4345026 24.2108094,16.4993744 24.3034344,16.4993744 C24.3978406,16.4993744 24.4744344,16.4356821 24.4750281,16.3560667 C24.4750281,16.2782205 24.3972469,16.2139385 24.3046219,16.2139385" id="Fill-242" fill="#FFFFFF"></path>
                        <path d="M26.1821188,16.1188718 L25.9553063,16.3075897 L25.7273063,16.5004359 L26.1833063,16.4992564 L26.6393063,16.4992564 L26.4113063,16.3075897 L26.1821188,16.1188718 Z" id="Fill-244" fill="#FFFFFF"></path>
                        <path d="M19.8633719,15.9293872 C19.7707469,15.9282077 19.6923719,15.9930795 19.6923719,16.0715154 C19.6923719,16.1487718 19.7701531,16.2136436 19.8621844,16.2136436 C19.9571844,16.2136436 20.0349656,16.1487718 20.0337781,16.0715154 C20.0337781,15.9930795 19.9571844,15.9282077 19.8633719,15.9293872" id="Fill-246" fill="#FFFFFF"></path>
                        <path d="M20.7174812,15.6448949 L20.7174812,15.9273821 C20.7174812,16.0854333 20.7863562,16.2139974 20.8682937,16.2151769 C20.9520125,16.2139974 21.112325,16.0854333 21.2298875,15.929741 L21.4430437,15.6437154 L21.0796687,15.6419462 L20.7174812,15.6448949 Z" id="Fill-248" fill="#FFFFFF"></path>
                        <path d="M23.27975,15.9288564 C23.1865312,15.9288564 23.10875,15.991959 23.1093437,16.0715744 C23.10875,16.1488308 23.1841562,16.2137026 23.27975,16.2137026 C23.3735625,16.2137026 23.4513437,16.1488308 23.4513437,16.0715744 C23.4495625,15.9931385 23.3729687,15.9312154 23.27975,15.9288564" id="Fill-250" fill="#FFFFFF"></path>
                        <path d="M27.8917625,16.0716333 C27.8893875,15.9931974 27.8122,15.9295051 27.7207625,15.9289154 C27.62695,15.9277359 27.548575,15.9931974 27.5503562,16.0716333 C27.5503562,16.1488897 27.6275437,16.2137615 27.7207625,16.2143513 C27.8151687,16.2143513 27.8935437,16.1500692 27.8917625,16.0716333" id="Fill-252" fill="#FFFFFF"></path>
                        <path d="M28.9362875,15.6431846 C28.75935,15.6431846 28.5200687,15.7717487 28.4048812,15.9292103 L28.191725,16.2140564 L28.7249125,16.2134667 L29.2586937,16.2140564 L29.2569125,15.9286205 C29.2569125,15.7723385 29.113225,15.6437744 28.9362875,15.6431846" id="Fill-254" fill="#FFFFFF"></path>
                        <path d="M14.227675,14.9785436 L14.2270812,15.3606974 L14.2282687,15.7387231 L14.4550812,15.5488256 L14.6854562,15.3589282 L14.4562687,15.1672615 L14.227675,14.9785436 Z" id="Fill-256" fill="#FFFFFF"></path>
                        <path d="M33.1859344,15.3592231 C33.0903406,15.3580436 33.0149344,15.4223256 33.0155281,15.5001718 C33.0155281,15.5786077 33.0921219,15.6423 33.1853406,15.6434795 C33.2791531,15.6434795 33.3557469,15.5786077 33.3557469,15.5001718 C33.3539656,15.4223256 33.2797469,15.3609923 33.1859344,15.3592231" id="Fill-258" fill="#FFFFFF"></path>
                        <path d="M23.621275,15.0724308 C23.5268687,15.0724308 23.4508687,15.1367128 23.4508687,15.214559 C23.4508687,15.2941744 23.5274625,15.3578667 23.6218687,15.3584564 C23.7150875,15.3560974 23.7916812,15.2929949 23.792275,15.2157385 C23.792275,15.1367128 23.716275,15.0742 23.621275,15.0724308" id="Fill-260" fill="#FFFFFF"></path>
                        <path d="M3.63784687,14.407259 L3.63844062,14.7876436 L3.63784687,15.166259 L3.86584687,14.9787205 L4.09444062,14.7894128 L3.86703437,14.5971564 L3.63784687,14.407259 Z" id="Fill-262" fill="#FFFFFF"></path>
                        <path d="M13.2036937,14.7389897 L12.7773812,14.8828872 L12.3492875,15.0267846 L13.2036937,15.0285538 L14.0569125,15.0285538 L13.6294125,14.8840667 L13.2036937,14.7389897 Z" id="Fill-264" fill="#FFFFFF"></path>
                        <path d="M21.0590062,14.407259 L21.0590062,14.7876436 L21.057225,15.166259 L21.2876,14.9799 L21.5144125,14.7864641 L21.2876,14.5971564 L21.0590062,14.407259 Z" id="Fill-266" fill="#FFFFFF"></path>
                        <path d="M22.9956406,13.8370949 L22.7688281,14.0269923 L22.7664531,13.6454282 L22.7664531,13.2656333 L22.9932656,13.4561205 L23.2224531,13.6454282 L22.9956406,13.8370949 Z M22.5960469,14.5023256 C22.5028281,14.5023256 22.4256406,14.4374538 22.4268281,14.3601974 C22.4268281,14.2805821 22.5028281,14.2163 22.5972344,14.2180692 C22.6886719,14.2163 22.7664531,14.2805821 22.7664531,14.3590179 C22.7688281,14.4374538 22.6904531,14.5023256 22.5960469,14.5023256 L22.5960469,14.5023256 Z M24.2442969,13.5487103 L24.9858906,12.9925821 L24.2181719,13.1500436 L23.4492656,13.3086846 L23.4486719,13.0250179 L23.4486719,12.7431205 L23.2628281,12.7956077 L23.0425469,12.856941 L22.6334531,12.9684026 L22.3947656,13.7173769 L22.1542969,14.4657615 L22.3454844,14.6261718 C22.4529531,14.7158128 23.0128594,14.7795051 23.5929531,14.7712487 L24.6474531,14.7541462 L24.0738906,14.4291974 L23.8031406,14.2758641 L23.5015156,14.1042487 L24.2442969,13.5487103 Z" id="Fill-268" fill="#FFFFFF"></path>
                        <path d="M22.5972937,14.2183641 C22.5028875,14.2165949 22.4262937,14.2802872 22.4262937,14.3599026 C22.4257,14.437159 22.5028875,14.5020308 22.5955125,14.5020308 C22.6905125,14.5020308 22.7682937,14.437159 22.7665125,14.3587231 C22.7665125,14.2802872 22.6887312,14.2165949 22.5972937,14.2183641" id="Fill-270" fill="#FFFFFF"></path>
                        <path d="M22.7665719,13.2657513 L22.7665719,13.6455462 L22.7683531,14.0271103 L22.9957594,13.8372128 L23.2225719,13.6455462 L22.9933844,13.4556487 L22.7665719,13.2657513 Z" id="Fill-272" fill="#FFFFFF"></path>
                        <path d="M33.1853406,3.0886641 C33.2797469,3.08925385 33.3563406,3.02497179 33.3557469,2.9465359 C33.3563406,2.86751026 33.2791531,2.80381795 33.1859344,2.80381795 C33.0927156,2.80381795 33.0161219,2.86751026 33.0161219,2.94594615 C33.0149344,3.02497179 33.0909344,3.0886641 33.1853406,3.0886641" id="Fill-274" fill="#FFFFFF"></path>
                        <path d="M35.7844219,18.2123436 C35.6157969,18.2123436 35.4002656,18.3827795 35.3022969,18.5921385 L35.1289219,18.9731128 L35.6092656,18.9707538 L36.0896094,18.9707538 L36.0884219,18.5927282 L36.0902031,18.2105744 L35.7844219,18.2123436 Z" id="Fill-276" fill="#FFFFFF"></path>
                        <path d="M27.0579594,13.3613487 C26.9736469,13.3613487 26.8115531,13.4893231 26.6963656,13.6450154 L26.4855844,13.931041 L26.8465844,13.931041 L27.2081781,13.931041 L27.2075844,13.6450154 C27.2081781,13.4893231 27.1404906,13.3613487 27.0579594,13.3613487" id="Fill-278" fill="#FFFFFF"></path>
                        <path d="M17.6437562,12.6961769 L17.641975,13.0765615 L17.6431625,13.4551769 L17.87235,13.2670487 L18.10035,13.0765615 L17.8717562,12.8848949 L17.6437562,12.6961769 Z" id="Fill-280" fill="#FFFFFF"></path>
                        <path d="M27.0373562,12.7894744 C26.94295,12.7894744 26.8657625,12.8525769 26.8657625,12.9327821 C26.86695,13.0112179 26.9441375,13.0755 27.0373562,13.0766795 C27.1299812,13.0755 27.2077625,13.0112179 27.2083562,12.9333718 C27.2083562,12.8543462 27.1323562,12.7900641 27.0373562,12.7894744" id="Fill-282" fill="#FFFFFF"></path>
                        <path d="M3.29632187,12.3633256 C3.29632187,12.2843 3.21913437,12.2200179 3.12472812,12.2200179 C3.03329062,12.2211974 2.95432187,12.2843 2.95313437,12.3633256 C2.95313437,12.4217103 3.00360312,12.4629923 3.06594687,12.4830436 C3.08672812,12.4907103 3.10394687,12.5036846 3.12472812,12.5042744 C3.14788437,12.5042744 3.16510312,12.4907103 3.18647812,12.4842231 C3.24763437,12.4629923 3.29572812,12.4211205 3.29632187,12.3633256" id="Fill-284" fill="#FFFFFF"></path>
                        <path d="M26.0113562,12.2199 C25.9175437,12.2199 25.84095,12.2841821 25.8391687,12.3632077 C25.8415437,12.4398744 25.919325,12.5053359 26.01195,12.5053359 C26.1063562,12.5053359 26.1835437,12.4398744 26.1835437,12.3632077 C26.1817625,12.2847718 26.1063562,12.2199 26.0113562,12.2199" id="Fill-286" fill="#FFFFFF"></path>
                        <path d="M35.4072719,9.65127179 L35.4060844,9.22370769 L35.4060844,8.79673333 L35.1020844,8.79673333 C34.9328656,8.79555385 34.7078344,8.98781026 34.5997719,9.22370769 L34.4038344,9.65127179 L34.9043656,9.65127179 L35.4072719,9.65127179 Z" id="Fill-288" fill="#FFFFFF"></path>
                        <path d="M33.6973312,8.22533077 C33.5097062,8.22533077 33.355925,8.35448462 33.3565187,8.51076667 C33.3565187,8.6505359 33.4883312,8.75551026 33.6486437,8.7791 C33.6664562,8.78086923 33.678925,8.79679231 33.6973312,8.79679231 C33.88555,8.79679231 34.0387375,8.66763846 34.0387375,8.51076667 C34.0387375,8.43233077 34.0013312,8.36215128 33.940175,8.31084359 C33.8766437,8.25894615 33.7917375,8.22415128 33.6973312,8.22533077" id="Fill-290" fill="#FFFFFF"></path>
                        <path d="M36.7721844,6.58967692 L36.7709969,6.13321538 L36.5429969,6.32370256 L36.4503719,6.40095897 L36.3149969,6.51477949 L35.6606844,6.0170359 L35.0034031,5.52165128 L34.0694344,5.48272821 L34.0094656,5.47977949 L33.0155281,5.43908718 L33.0190906,5.76049744 C33.0226531,5.93977949 33.1164656,6.37442051 33.2298719,6.72531795 L33.4382781,7.36813846 L33.8729031,7.36695897 L34.2362781,7.36931795 L34.3093094,7.36813846 L34.5141531,7.82224103 L34.7231531,8.27280513 L35.1488719,8.14188205 L35.5757781,8.01095897 L35.4985906,7.70783077 L35.4190281,7.40352308 L36.0947156,7.22542051 L36.4515594,7.12929231 L36.7721844,7.04554872 L36.7721844,6.58967692 Z" id="Fill-292" fill="#FFFFFF"></path>
                        <path d="M1.48496875,7.18402051 L1.2813125,7.62573846 L1.7776875,7.46650769 C1.92553125,7.41873846 2.05378125,7.35032821 2.14165625,7.28250769 C2.2170625,7.22766154 2.263375,7.16927692 2.2621875,7.12268718 C2.2550625,7.03599487 2.082875,6.7806359 1.86259375,6.51937949 C1.824,6.47691795 1.79134375,6.43327692 1.75215625,6.39022564 L1.71296875,6.34658462 L1.254,5.8417641 L1.00521875,6.05053333 L0.75525,6.26048205 L1.2195625,6.50050769 L1.58828125,6.6886359 L1.68921875,6.74171282 L1.48496875,7.18402051 Z" id="Fill-294" fill="#FFFFFF"></path>
                        <g id="Group-298" transform="translate(36.218750, 7.076923)" fill="#FFFFFF">
                            <path d="M0.894365625,0.195794872 L0.667553125,0.386871795 L0.440146875,0.576179487 L0.894959375,0.577948718 L1.34977187,0.576769231 L1.12295937,0.386871795 L0.894365625,0.195794872 Z" id="Fill-296"></path>
                        </g>
                        <path d="M28.7452781,7.08382308 C28.6496844,7.08500256 28.5736844,7.14692564 28.5736844,7.22654103 C28.5730906,7.30497692 28.6514656,7.36807949 28.7458719,7.36925897 C28.8396844,7.36807949 28.9156844,7.30615641 28.9162781,7.22595128 C28.9162781,7.1463359 28.8390906,7.08264359 28.7452781,7.08382308" id="Fill-299" fill="#FFFFFF"></path>
                        <path d="M3.2972125,6.65478462 L2.95580625,6.47963077 L2.95461875,6.77981026 L2.95580625,7.08411795 L3.296025,7.08293846 C3.48543125,7.08411795 3.638025,7.02750256 3.63980625,6.95673333 C3.63743125,6.89009231 3.4848375,6.75209231 3.2972125,6.65478462" id="Fill-301" fill="#FFFFFF"></path>
                        <path d="M4.5505,7.08270256 L5.00353125,7.08152308 L5.460125,7.08152308 L5.2333125,6.89398462 L5.00353125,6.70231795 L4.7773125,6.89280513 L4.5505,7.08270256 Z" id="Fill-303" fill="#FFFFFF"></path>
                        <path d="M7.05481875,7.08270256 C7.24125625,7.08270256 7.396225,7.02490769 7.39563125,6.95826667 C7.39563125,6.89044615 7.2430375,6.7530359 7.054225,6.65631795 L6.712225,6.47880513 L6.71281875,6.77957436 L6.7110375,7.08506154 L7.05481875,7.08270256 Z" id="Fill-305" fill="#FFFFFF"></path>
                        <path d="M29.2569719,6.51424872 L29.5977844,6.51365897 L29.9409719,6.51365897 L29.9403781,6.08609487 L29.9415656,5.95576154 L29.9415656,5.65676154 L29.5989719,5.65794103 L29.2563781,5.65558205 L29.2569719,5.68978718 L29.2581594,6.0837359 L29.2569719,6.51424872 Z" id="Fill-307" fill="#FFFFFF"></path>
                        <path d="M31.7015594,5.22937436 L31.7021531,5.94237436 L31.7021531,6.65478462 L31.8749344,6.30034872 L32.0465281,5.94355385 L31.8749344,5.58557949 L31.7015594,5.22937436 Z" id="Fill-309" fill="#FFFFFF"></path>
                        <path d="M2.99742812,5.25355385 C2.92795937,5.30309231 2.96061562,5.54488718 3.07342812,5.78668205 L3.27530312,6.22781026 L3.88330312,6.2189641 L4.49189687,6.20952821 L3.89874062,5.83209231 L3.30320937,5.45642564 L4.06974062,5.12675897 L4.65220937,4.87552821 L4.83449062,4.79768205 L4.63677187,4.84014359 L3.98008437,4.97755385 C3.51042812,5.07545128 3.06927187,5.19929744 2.99742812,5.25355385" id="Fill-311" fill="#FFFFFF"></path>
                        <path d="M21.4219656,5.08535897 L21.0568094,5.08535897 L21.0591844,5.37079487 C21.0574031,5.52766667 21.1280594,5.65682051 21.2123719,5.65682051 C21.2919344,5.65682051 21.4558094,5.52766667 21.5709969,5.37079487 L21.7817781,5.08535897 L21.4219656,5.08535897 Z" id="Fill-313" fill="#FFFFFF"></path>
                        <path d="M8.53426562,5.37221026 L8.30507812,5.18349231 L8.07826562,4.9912359 L7.85145312,5.18113333 L7.62285937,5.3728 L8.07945312,5.37103077 L8.53426562,5.37221026 Z" id="Fill-315" fill="#FFFFFF"></path>
                        <path d="M2.78379687,4.51578462 C2.87760937,4.51755385 2.95479687,4.45268205 2.95479687,4.37247692 C2.95479687,4.29286154 2.87939062,4.22975897 2.78379687,4.22975897 C2.69176562,4.22975897 2.61517187,4.29286154 2.61457812,4.37188718 C2.61339062,4.45032308 2.69235937,4.5169641 2.78379687,4.51578462" id="Fill-317" fill="#FFFFFF"></path>
                        <path d="M28.11905,4.42077692 L28.34705,4.23146923 L28.1172687,4.03980256 L27.8904562,3.84931538 L27.89105,4.22852051 L27.8928312,4.61067436 L28.11905,4.42077692 Z" id="Fill-319" fill="#FFFFFF"></path>
                        <path d="M19.5232719,3.37374615 C19.4051156,3.53179744 19.3884906,3.65918205 19.4817094,3.65800256 C19.5755219,3.65918205 19.7483031,3.53179744 19.8628969,3.37374615 C19.9810531,3.21569487 19.9964906,3.0889 19.9044594,3.0889 C19.8118344,3.0889 19.6372719,3.21569487 19.5232719,3.37374615" id="Fill-321" fill="#FFFFFF"></path>
                        <path d="M21.4016594,3.0886641 L21.4010656,3.46845897 L21.6284719,3.27797179 L21.8552844,3.0886641 L21.6290656,2.89935641 L21.3998781,2.70768974 L21.4016594,3.0886641 Z" id="Fill-323" fill="#FFFFFF"></path>
                        <path d="M23.600375,3.37374615 C23.6846875,3.37374615 23.847375,3.24636154 23.9619687,3.0889 L24.1739375,2.8034641 L23.8111562,2.8034641 L23.4513437,2.8034641 L23.4489687,3.0889 C23.4513437,3.24518205 23.51725,3.37256667 23.600375,3.37374615" id="Fill-325" fill="#FFFFFF"></path>
                        <path d="M12.8612781,1.09137949 L12.8612781,1.67699487 L12.8606844,2.26673846 L12.5204656,2.09040513 L12.1796531,1.91289231 L11.4980281,2.31391795 L10.8175906,2.71081538 L11.0426219,2.89894359 C11.1679031,3.00332821 11.5888719,3.08707179 11.9795594,3.08294359 C12.3714344,3.08117436 12.8440594,2.98681538 13.0310906,2.8706359 L13.3742781,2.66068718 L13.4722469,1.87573846 L13.5708094,1.09137949 L13.2163406,1.09196923 L12.8612781,1.09137949 Z" id="Fill-327" fill="#FFFFFF"></path>
                        <path d="M25.6712562,3.0886641 C25.7656625,3.08925385 25.8422562,3.02556154 25.8416625,2.9465359 C25.8410687,2.86692051 25.764475,2.80381795 25.6706625,2.80381795 C25.5774437,2.80381795 25.50085,2.86751026 25.50085,2.94594615 C25.4996625,3.02497179 25.5750687,3.0886641 25.6712562,3.0886641" id="Fill-329" fill="#FFFFFF"></path>
                        <path d="M11.6653469,2.21265897 L10.9819406,2.04871026 C10.6072844,1.95906923 10.0996281,1.75088974 9.85678438,1.58340256 L9.41028438,1.28322308 L8.87590938,1.73024872 L8.33915938,2.1778641 L8.62831563,2.56414615 L8.91687813,2.9463 L9.03919063,2.43617179 L9.15734688,1.93017179 L10.4131281,2.06935128 L11.6653469,2.21265897 Z" id="Fill-331" fill="#FFFFFF"></path>
                        <path d="M19.5224406,2.80358205 C19.6156594,2.80240256 19.6928469,2.73988974 19.6928469,2.65968462 C19.6946281,2.58124872 19.6174406,2.51696667 19.5224406,2.51814615 C19.4274406,2.51814615 19.3508469,2.58124872 19.3508469,2.66027436 C19.3508469,2.73988974 19.4298156,2.80358205 19.5224406,2.80358205" id="Fill-333" fill="#FFFFFF"></path>
                        <path d="M25.3291375,2.23282821 C25.4235437,2.23341795 25.501325,2.16854615 25.501325,2.08952051 C25.49895,2.01049487 25.4235437,1.94739231 25.3291375,1.94798205 C25.235325,1.94798205 25.1587312,2.01167436 25.1587312,2.0907 C25.15695,2.16854615 25.2347312,2.23341795 25.3291375,2.23282821" id="Fill-335" fill="#FFFFFF"></path>
                        <path d="M26.5957844,1.98348462 L26.4164719,1.60722821 L26.2347844,1.23451026 L26.2086594,1.78179231 L26.1831281,2.32789487 L26.3885656,2.15627949 L26.5957844,1.98348462 Z" id="Fill-337" fill="#FFFFFF"></path>
                        <path d="M21.2303031,1.94774615 C21.3241156,1.94774615 21.4018969,1.88405385 21.4018969,1.80384872 C21.3995219,1.72482308 21.3235219,1.66172051 21.2297094,1.66172051 C21.1353031,1.66231026 21.0587094,1.72659231 21.0575219,1.80502821 C21.0575219,1.8834641 21.1353031,1.94774615 21.2303031,1.94774615" id="Fill-339" fill="#FFFFFF"></path>
                        <path d="M34.9364281,2.8934 C34.8794281,2.8934 34.7707719,2.74124615 34.6912094,2.55370769 L34.5493031,2.21519487 L34.7927406,2.21401538 L35.0385531,2.21519487 L35.0379594,2.55370769 C35.0379594,2.74124615 34.9916469,2.8934 34.9364281,2.8934 L34.9364281,2.8934 Z M30.6151156,2.23701538 C30.5593031,2.48352821 30.3782094,2.74950256 30.2113656,2.82911795 L29.9085531,2.97891282 L30.0094906,2.53306667 C30.0641156,2.29009231 30.2469906,2.02116923 30.4126469,1.93860513 L30.7148656,1.79116923 L30.6151156,2.23701538 Z M27.7758031,1.5364 C27.7140531,1.5364 27.6618031,1.45914359 27.6606156,1.36714359 C27.6606156,1.2739641 27.7122719,1.19788718 27.7769906,1.19788718 C27.8399281,1.19788718 27.8915844,1.27278462 27.8915844,1.36714359 C27.8909906,1.46032308 27.8399281,1.5364 27.7758031,1.5364 L27.7758031,1.5364 Z M6.10927187,1.87609231 C6.04633437,1.87491282 5.99349062,1.80001538 5.99170937,1.7068359 C5.99349062,1.61247692 6.04336562,1.53522051 6.10867812,1.53522051 C6.17339687,1.53522051 6.22386562,1.61365641 6.22386562,1.7068359 C6.22386562,1.80001538 6.17280312,1.87491282 6.10927187,1.87609231 L6.10927187,1.87609231 Z M3.68855312,1.19788718 L3.38099062,1.19788718 L3.53477187,0.971425641 L3.68855312,0.745553846 L3.84114687,0.96965641 L3.99552187,1.19788718 L3.68855312,1.19788718 Z M30.3004281,0.535015385 L30.4726156,0.790964103 L30.7493031,1.19788718 L30.1971156,1.19788718 L29.6437406,1.19788718 L29.9198344,0.790964103 L30.0932094,0.535605128 L28.8148656,0.534425641 C28.7780531,0.643528205 28.6860219,0.750861538 28.5714281,0.807476923 L28.2953344,0.941938462 L28.3879594,0.536784615 L28.3879594,0.535605128 L15.9186156,0.535605128 L15.8538969,1.10942564 L15.2856781,2.08604103 L14.7150844,3.0638359 L14.8694594,2.38563077 C14.9341781,2.0884 15.0285844,1.3294 15.0998344,0.535605128 L7.69517812,0.535015385 L7.76049062,0.629964103 L7.91249062,0.859374359 L7.60611562,0.858194872 L7.29914687,0.859374359 L7.45470937,0.63114359 L7.51942812,0.535605128 L6.75052187,0.535605128 L6.68520937,0.629964103 L6.68461562,0.535605128 L4.32920937,0.535605128 L4.26330312,1.7068359 L4.09705312,0.535605128 L2.75992812,0.534425641 L2.76408437,1.04809231 L2.76527187,1.74575897 L2.47670937,2.27063077 L2.18992812,2.79668205 L1.61280312,2.53778462 L1.03745937,2.28360513 L1.30405312,2.2494 L1.57005312,2.21401538 L1.45486562,1.5594 L1.33730312,0.903605128 L1.84555312,1.09704103 L2.35320937,1.29460513 L2.55567812,0.821630769 L2.67799062,0.535015385 L0.310709375,0.535605128 L0.309521875,3.15229744 L13.0953344,3.15111795 L13.2140844,2.97419487 L13.5762719,2.44401538 L13.8761156,2.80022051 C13.9717094,2.91404103 14.1237094,3.04142564 14.2846156,3.15111795 L15.9037719,3.15111795 L15.9055531,2.91286154 L15.9037719,2.21637436 L16.1454281,2.21519487 L16.3835219,2.21519487 L16.3176156,3.14698974 L16.3176156,3.15111795 L21.4618656,3.15111795 C21.4488031,3.12398974 21.4369281,3.09863077 21.4369281,3.06265641 C21.4381156,2.96829744 21.4897719,2.8934 21.5521156,2.8934 C21.6156469,2.8934 21.6667094,2.97006667 21.6684906,3.06265641 C21.6684906,3.09745128 21.6560219,3.12398974 21.6435531,3.15229744 L24.9103656,3.15111795 L24.9115531,3.03375897 L24.9299594,2.38563077 L25.0528656,2.82911795 L25.1407406,3.15111795 L34.5772094,3.15111795 L34.5766156,3.11927179 L34.5979906,3.15111795 L35.4696156,3.15111795 L35.4696156,0.535015385 L30.3004281,0.535015385 Z" id="Fill-341" fill="#9E2F50"></path>
                        <path d="M27.5456062,21.5556 C27.4826687,21.553241 27.4316062,21.4771641 27.4316062,21.3851641 C27.429825,21.2896256 27.4826687,21.2159077 27.5456062,21.2159077 C27.610325,21.2159077 27.6619812,21.2896256 27.6619812,21.3851641 C27.6602,21.4771641 27.6091375,21.553241 27.5456062,21.5556 L27.5456062,21.5556 Z M26.8556687,21.8929333 C26.79095,21.8929333 26.7398875,21.8168564 26.7398875,21.7236769 C26.7381062,21.6304974 26.7903562,21.553241 26.8562625,21.553241 C26.9180125,21.553241 26.9708562,21.6304974 26.9702625,21.7236769 C26.9696687,21.8156769 26.916825,21.8929333 26.8556687,21.8929333 L26.8556687,21.8929333 Z M25.8356062,21.5520615 L25.4330437,21.5520615 L25.43245,21.0442923 L25.4318562,20.5365231 L25.75545,20.5353436 L26.0754812,20.5365231 L25.9329812,20.8773949 L25.7904812,21.2147282 L26.1627625,21.2159077 L26.5356375,21.2147282 L26.3937312,20.8762154 L26.2524187,20.5353436 L26.6110437,20.5371128 L26.9702625,20.5371128 L26.9696687,20.840241 C26.9702625,21.0047795 26.8046062,21.2330103 26.6057,21.346241 C26.4044187,21.4630103 26.0588562,21.553241 25.8356062,21.5520615 L25.8356062,21.5520615 Z M24.8957,20.5365231 L24.5875437,20.5371128 L24.741325,20.3082923 L24.8951062,20.0836 L25.0482937,20.3094718 L25.202075,20.5353436 L24.8957,20.5365231 Z M24.1113562,21.8009333 L23.9724187,22.0067538 L23.9902312,21.3550872 L24.0092312,20.7075487 L24.1303562,21.1510359 L24.2514812,21.5968821 L24.1113562,21.8009333 Z M23.6262625,20.5365231 C23.5639187,20.5365231 23.5122625,20.4592667 23.5116687,20.3654974 C23.5122625,20.2729077 23.5627312,20.196241 23.6262625,20.196241 C23.6886062,20.196241 23.7420437,20.2729077 23.74145,20.3654974 C23.7420437,20.4592667 23.6903875,20.5365231 23.6262625,20.5365231 L23.6262625,20.5365231 Z M22.6667625,22.220241 C22.5592937,22.2131641 22.3307,21.9690103 22.1555437,21.6776769 L21.8367,21.1492667 L22.2529187,21.2678051 L22.6667625,21.3839846 L22.76295,21.8080103 L22.85795,22.2326256 L22.6667625,22.220241 Z M22.2446062,20.5365231 C22.30695,20.5365231 22.3603875,20.6137795 22.3597937,20.7057795 C22.3603875,20.8001385 22.3081375,20.8762154 22.2422312,20.8762154 C22.1804812,20.8773949 22.128825,20.8001385 22.128825,20.7075487 C22.128825,20.6137795 22.1816687,20.5365231 22.2446062,20.5365231 L22.2446062,20.5365231 Z M20.399825,22.2326256 C20.3374812,22.2314462 20.285825,22.155959 20.2852312,22.0610103 C20.2852312,21.9701897 20.3357,21.8929333 20.3992312,21.8929333 C20.4645437,21.8929333 20.5162,21.9690103 20.5156062,22.0627795 C20.5156062,22.1583179 20.4627625,22.2326256 20.399825,22.2326256 L20.399825,22.2326256 Z M17.4037625,21.8929333 C17.3402312,21.8929333 17.288575,21.8168564 17.2891687,21.7219077 C17.288575,21.6304974 17.340825,21.553241 17.4031687,21.553241 C17.4661062,21.553241 17.5177625,21.6281385 17.5183562,21.7219077 C17.5195437,21.8168564 17.4667,21.8929333 17.4037625,21.8929333 L17.4037625,21.8929333 Z M15.7905437,21.5520615 C15.7264187,21.553241 15.6747625,21.4789333 15.6747625,21.3851641 C15.6747625,21.2913949 15.7270125,21.2159077 15.78995,21.2159077 C15.854075,21.2170872 15.9045437,21.2913949 15.9045437,21.3863436 C15.9045437,21.4789333 15.854075,21.553241 15.7905437,21.5520615 L15.7905437,21.5520615 Z M14.1767312,20.5365231 C14.1132,20.5353436 14.0603562,20.4592667 14.06095,20.3654974 C14.0603562,20.2746769 14.1132,20.1980103 14.1761375,20.1980103 C14.2402625,20.196241 14.2907312,20.2729077 14.291325,20.3654974 C14.291325,20.4604462 14.2402625,20.5365231 14.1767312,20.5365231 L14.1767312,20.5365231 Z M13.0361375,20.8750359 C12.9821062,20.8762154 12.8621687,20.6987026 12.7695437,20.4846256 L12.6080437,20.0924462 L12.8728562,20.3336513 C13.0201062,20.4663436 13.1388562,20.6432667 13.1388562,20.7240615 C13.1382625,20.8072154 13.0937312,20.8762154 13.0361375,20.8750359 L13.0361375,20.8750359 Z M35.4222937,20.5365231 L35.4697937,20.4657538 L35.4697937,19.874241 L34.4117312,19.8736513 C34.374325,20.0134205 34.3321687,20.154959 34.2894187,20.2947282 C34.1297,20.7983692 33.9147625,21.2088308 33.8132312,21.2106 L33.6267937,21.2159077 L33.794825,20.8184205 L33.9598875,20.4232923 L33.5442625,20.6544718 L33.1292312,20.890959 L33.4207625,20.3737538 L33.7010125,19.874241 L33.068075,19.8748308 L32.7646687,20.5866513 L32.4559187,21.3138051 L32.2475125,20.8414205 L32.0408875,20.3678564 L31.8675125,20.7399846 L31.695325,21.1138821 L31.1241375,20.3147795 L30.8082625,19.8748308 L30.4276687,19.8730615 L30.4276687,20.154959 L30.6580437,20.3643179 C30.7839187,20.4810872 30.887825,20.7983692 30.8884187,21.0667026 L30.8884187,21.5520615 L30.5422625,21.553241 L30.1967,21.5556 L30.2548875,21.1303949 L30.3124812,20.7046 L30.0310437,20.7889333 L29.7484187,20.867959 L29.9574187,20.058241 L30.0067,19.874241 L28.023575,19.8736513 L28.1369812,20.311241 L27.9541062,20.5795744 L27.7712312,20.8479077 L27.477325,20.5813436 L27.1857937,20.311241 L27.2997937,19.8748308 L26.9702625,19.8730615 L26.9702625,20.196241 L26.6110437,20.1950615 L26.2500437,20.196241 L26.3872,19.8748308 L25.9597,19.8730615 C26.0077937,19.8948821 26.0463875,19.9497282 26.0481687,20.0281641 C26.047575,20.1189846 25.9971062,20.196241 25.9329812,20.1980103 C25.8688562,20.196241 25.8172,20.1189846 25.8172,20.0269846 C25.8166062,19.947959 25.857575,19.8937026 25.905075,19.8730615 L22.96245,19.8748308 C23.0117312,19.8937026 23.0509187,19.947959 23.0521062,20.0281641 C23.050325,20.1201641 22.9998562,20.196241 22.9357312,20.196241 C22.8722,20.196241 22.81995,20.1201641 22.8205437,20.0246256 C22.8211375,19.947959 22.8597312,19.8948821 22.9084187,19.8748308 L21.5433875,19.8730615 C21.4650125,20.0499846 21.3622937,20.1950615 21.3088562,20.1980103 C21.254825,20.196241 21.212075,20.0517538 21.2091062,19.8730615 L20.6575125,19.8748308 C20.7062,19.8948821 20.7453875,19.947959 20.7459812,20.0269846 C20.7453875,20.1201641 20.6937312,20.196241 20.6307937,20.196241 C20.566075,20.196241 20.5156062,20.1201641 20.5162,20.0281641 C20.5156062,19.9497282 20.5553875,19.8960615 20.6034812,19.8748308 L0.59648125,19.8748308 L0.5958875,22.4903436 L19.8232937,22.4903436 L19.8244812,22.2326256 L19.8227,21.7802923 L19.9776687,22.0067538 L20.1302625,22.2326256 L19.9782625,22.4573179 L19.9562937,22.4903436 L29.0240437,22.4903436 L29.044825,22.4590872 L29.0650125,22.4903436 L32.5022312,22.4903436 L32.5022312,22.4573179 L32.5242,22.4903436 L33.9094187,22.4903436 L33.9212937,22.0610103 L34.037075,22.4903436 L35.4697937,22.4897538 L35.4697937,20.5365231 L35.4222937,20.5365231 Z" id="Fill-343" fill="#9E2F50"></path>
                        <path d="M34.9561406,15.6431846 L34.5666406,15.6431846 L35.4139219,16.3137231 L35.4697344,16.3579538 L35.4697344,15.8997231 C35.3391094,15.7522872 35.1330781,15.6420051 34.9561406,15.6431846" id="Fill-345" fill="#FFFFFF"></path>
                        <path d="M35.7296187,20.5362282 L36.0371812,20.5362282 L35.8828062,20.3079974 L35.7296187,20.0844846 L35.5752437,20.3079974 L35.4695562,20.4660487 L35.4695562,20.5362282 L35.7296187,20.5362282 Z" id="Fill-347" fill="#FFFFFF"></path>
                    </g>
                </g>
            </g>
        </g>
    </g>
</svg>