<?xml version="1.0" encoding="UTF-8" standalone="no"?>
<svg width="32px" height="32px" viewBox="0 0 32 32" version="1.1" xmlns="http://www.w3.org/2000/svg" xmlns:xlink="http://www.w3.org/1999/xlink" xmlns:sketch="http://www.bohemiancoding.com/sketch/ns">
    <!-- Generator: Sketch 3.5.2 (25235) - http://www.bohemiancoding.com/sketch -->
    <title>twitter icon + twitter icon</title>
    <desc>Created with Sketch.</desc>
    <defs></defs>
    <g id="Page-1" stroke="none" stroke-width="1" fill="none" fill-rule="evenodd" sketch:type="MSPage">
        <g id="Large-Desktop" sketch:type="MSArtboardGroup" transform="translate(-429.000000, -2243.000000)">
            <g id="d---card-share-icons" sketch:type="MSLayerGroup" transform="translate(430.000000, 2244.000000)">
                <g id="twitter-icon-+-twitter-icon" transform="translate(0.000000, 0.044691)" sketch:type="MSShapeGroup">
                    <path d="M20.8486423,10.9114339 C21.4526698,10.5356902 21.91706,9.94098801 22.1361241,9.23342754 C21.5705288,9.5807877 20.9434419,9.83353613 20.2772822,9.96937152 C19.7437138,9.3800757 18.9827545,9.01176581 18.1398062,9.01176581 C16.5237283,9.01176581 15.2125465,10.3694439 15.2125465,12.0447471 C15.2125465,12.2819521 15.2381681,12.5137508 15.28813,12.7360884 C12.8547254,12.6097142 10.6973927,11.4020632 9.25361956,9.56659594 C9.00188804,10.0139742 8.85648587,10.5350144 8.85648587,11.0918719 C8.85648587,12.1447652 9.37404074,13.07196 10.1593406,13.6173289 C9.67957747,13.6011098 9.22799803,13.4639228 8.83342649,13.2375305 C8.83278595,13.2503706 8.83278595,13.2632108 8.83278595,13.2753752 C8.83278595,14.7459115 9.8409931,15.971809 11.1822801,16.2502378 C10.9363134,16.3191692 10.6768955,16.3563381 10.4110721,16.3563381 C10.2214728,16.3563381 10.0395599,16.3387673 9.86020924,16.30295 C10.2330025,17.507222 11.314231,18.3844077 12.5953074,18.4087365 C11.5935056,19.2223972 10.3303643,19.7076201 8.95961252,19.7076201 C8.72325392,19.7076201 8.49009801,19.6927526 8.26078533,19.6650449 C9.55659413,20.5253357 11.0958075,21.0274536 12.7490366,21.0274536 C18.1346819,21.0274536 21.0785955,16.4056713 21.0785955,12.3981894 C21.0785955,12.2650572 21.0766739,12.1346282 21.0696279,12.004875 C21.640988,11.5764191 22.1367646,11.0411871 22.5294145,10.4329689 C22.0041732,10.6742288 21.4404996,10.8377719 20.8486423,10.9114339 Z" id="twitter-icon" fill="#74736B"></path>
                    <ellipse id="twitter-icon" stroke="#A7A59A" opacity="0.6" cx="15.0196097" cy="15.0196097" rx="15.0196097" ry="15.0196097"></ellipse>
                </g>
            </g>
        </g>
    </g>
</svg>